<svg width="200" height="150" viewBox="0 0 200 150" fill="none" xmlns="http://www.w3.org/2000/svg">
<path fill-rule="evenodd" clip-rule="evenodd" d="M165.6 48.75C168.693 48.75 171.2 51.1005 171.2 54C171.2 56.8995 168.693 59.25 165.6 59.25H133.6C136.693 59.25 139.2 61.6005 139.2 64.5C139.2 67.3995 136.693 69.75 133.6 69.75H151.2C154.293 69.75 156.8 72.1005 156.8 75C156.8 77.8995 154.293 80.25 151.2 80.25H143.061C139.161 80.25 136 82.6005 136 85.5C136 87.433 137.6 89.183 140.8 90.75C143.893 90.75 146.4 93.1005 146.4 96C146.4 98.8995 143.893 101.25 140.8 101.25H74.4001C71.3073 101.25 68.8001 98.8995 68.8001 96C68.8001 93.1005 71.3073 90.75 74.4001 90.75H43.2001C40.1073 90.75 37.6001 88.3995 37.6001 85.5C37.6001 82.6005 40.1073 80.25 43.2001 80.25H75.2001C78.2929 80.25 80.8001 77.8995 80.8001 75C80.8001 72.1005 78.2929 69.75 75.2001 69.75H55.2001C52.1073 69.75 49.6001 67.3995 49.6001 64.5C49.6001 61.6005 52.1073 59.25 55.2001 59.25H87.2001C84.1073 59.25 81.6001 56.8995 81.6001 54C81.6001 51.1005 84.1073 48.75 87.2001 48.75H165.6ZM165.6 69.75C168.693 69.75 171.2 72.1005 171.2 75C171.2 77.8995 168.693 80.25 165.6 80.25C162.507 80.25 160 77.8995 160 75C160 72.1005 162.507 69.75 165.6 69.75Z" fill="#F3F7FF"/>
<path fill-rule="evenodd" clip-rule="evenodd" d="M122.511 47.9979L130.32 99.1751L131.026 104.309C131.253 105.963 130.027 107.458 128.287 107.649L81.823 112.743C80.0833 112.934 78.4886 111.748 78.2611 110.094L70.6454 54.7097C70.5317 53.8827 71.1447 53.1351 72.0145 53.0397C72.02 53.0391 72.0255 53.0385 72.031 53.038L75.8862 52.6542M79.0766 52.6187L82.7404 52.2503L79.0766 52.6187Z" fill="white"/>
<path d="M123.75 47.8288C123.645 47.1461 123.007 46.6684 122.323 46.7618C121.639 46.8553 121.169 47.4844 121.273 48.1671L122.511 47.9979L123.75 47.8288ZM130.32 99.1751L131.561 99.0242C131.56 99.0181 131.559 99.012 131.558 99.0059L130.32 99.1751ZM131.026 104.309L132.266 104.158L131.026 104.309ZM128.287 107.649L128.443 108.889L128.287 107.649ZM81.823 112.743L81.9787 113.983L81.823 112.743ZM78.2611 110.094L79.5019 109.943L78.2611 110.094ZM70.6454 54.7097L69.4046 54.8606L70.6454 54.7097ZM72.0145 53.0397L72.1701 54.2798L72.0145 53.0397ZM72.031 53.038L72.1742 54.2794L72.031 53.038ZM76.0294 53.8956C76.7165 53.8272 77.2094 53.216 77.1304 52.5303C77.0513 51.8447 76.4301 51.3443 75.743 51.4127L75.8862 52.6542L76.0294 53.8956ZM78.9322 51.3773C78.2451 51.4464 77.7528 52.0582 77.8326 52.7438C77.9124 53.4293 78.534 53.9291 79.221 53.86L79.0766 52.6187L78.9322 51.3773ZM82.8848 53.4916C83.5719 53.4225 84.0642 52.8108 83.9844 52.1252C83.9047 51.4396 83.283 50.9399 82.596 51.0089L82.7404 52.2503L82.8848 53.4916ZM122.511 47.9979L121.273 48.1671L129.082 99.3442L130.32 99.1751L131.558 99.0059L123.75 47.8288L122.511 47.9979ZM130.32 99.1751L129.079 99.326L129.785 104.46L131.026 104.309L132.266 104.158L131.561 99.0242L130.32 99.1751ZM131.026 104.309L129.785 104.46C129.91 105.368 129.237 106.288 128.132 106.409L128.287 107.649L128.443 108.889C130.818 108.629 132.596 106.557 132.266 104.158L131.026 104.309ZM128.287 107.649L128.132 106.409L81.6674 111.503L81.823 112.743L81.9787 113.983L128.443 108.889L128.287 107.649ZM81.823 112.743L81.6674 111.503C80.5532 111.625 79.6287 110.865 79.5019 109.943L78.2611 110.094L77.0204 110.245C77.3485 112.63 79.6133 114.243 81.9787 113.983L81.823 112.743ZM78.2611 110.094L79.5019 109.943L71.8861 54.5588L70.6454 54.7097L69.4046 54.8606L77.0204 110.245L78.2611 110.094ZM70.6454 54.7097L71.8861 54.5588C71.8749 54.477 71.9353 54.3056 72.1701 54.2798L72.0145 53.0397L71.8589 51.7995C70.354 51.9645 69.1885 53.2884 69.4046 54.8606L70.6454 54.7097ZM72.0145 53.0397L72.1701 54.2798C72.1715 54.2797 72.1729 54.2796 72.1742 54.2794L72.031 53.038L71.8878 51.7965C71.8782 51.7974 71.8686 51.7985 71.8589 51.7995L72.0145 53.0397ZM72.031 53.038L72.1742 54.2794L76.0294 53.8956L75.8862 52.6542L75.743 51.4127L71.8878 51.7965L72.031 53.038ZM79.0766 52.6187L79.221 53.86L82.8848 53.4916L82.7404 52.2503L82.596 51.0089L78.9322 51.3773L79.0766 52.6187Z" fill="#0098DB"/>
<path fill-rule="evenodd" clip-rule="evenodd" d="M120.912 51.2019L127.648 97.3147L128.253 101.941C128.449 103.431 127.333 104.786 125.763 104.967L83.809 109.796C82.2381 109.977 80.8064 108.915 80.6112 107.425L74.156 58.1369C74.0125 57.0417 74.7858 56.0514 75.8831 55.9251L80.6744 55.3736" fill="#E8F0FE"/>
<path d="M89.3374 38.75H124.727C125.425 38.7501 126.097 39.0158 126.607 39.4932L136.818 49.0596C137.373 49.5794 137.687 50.3061 137.687 51.0664V96.5C137.687 98.0188 136.456 99.25 134.937 99.25H89.3374C87.8186 99.25 86.5874 98.0188 86.5874 96.5V41.5C86.5874 39.9812 87.8186 38.75 89.3374 38.75Z" fill="white" stroke="#0098DB" stroke-width="2.5"/>
<path d="M125.337 39.3022V48.0001C125.337 49.2428 126.412 50.2501 127.737 50.2501H134.084" stroke="#0098DB" stroke-width="2.5" stroke-linecap="round" stroke-linejoin="round"/>
<path d="M94.3999 88.5H115.2M94.3999 50.25H115.2H94.3999ZM94.3999 59.25H128.8H94.3999ZM94.3999 69H128.8H94.3999ZM94.3999 78.75H128.8H94.3999Z" stroke="#0098DB" stroke-opacity="0.57" stroke-width="2.5" stroke-linecap="round" stroke-linejoin="round"/>
</svg>
