<svg width="204" height="174" viewBox="0 0 204 174" fill="none" xmlns="http://www.w3.org/2000/svg">
<path fill-rule="evenodd" clip-rule="evenodd" d="M184.163 94.8614H177.569C177.357 94.8614 177.186 94.712 177.186 94.5271V94.1471C177.186 93.9632 177.357 93.8132 177.569 93.8132H184.163C184.374 93.8132 184.546 93.9632 184.546 94.1471V94.5271C184.546 94.712 184.374 94.8614 184.163 94.8614Z" fill="#E8E6E1"/>
<path fill-rule="evenodd" clip-rule="evenodd" d="M137.752 96.4337C137.752 96.4337 138.013 104.819 148.005 104.819C157.997 104.819 158.258 96.4337 158.258 96.4337H137.752Z" fill="#DAD9D3"/>
<path fill-rule="evenodd" clip-rule="evenodd" d="M113.041 85.4277H128.288V82.2831H113.041V85.4277Z" fill="#D3D1CB"/>
<path fill-rule="evenodd" clip-rule="evenodd" d="M54.3301 96.4337H42.9381C42.1671 96.4337 41.5361 95.844 41.5361 95.1235C41.5361 94.4024 42.1671 93.8132 42.9381 93.8132H54.3301C55.101 93.8132 55.732 94.4024 55.732 95.1235C55.732 95.844 55.101 96.4337 54.3301 96.4337Z" fill="#E8E6E1"/>
<path fill-rule="evenodd" clip-rule="evenodd" d="M54.3301 72.3253H42.9381C42.1671 72.3253 41.5361 71.7356 41.5361 71.0151C41.5361 70.294 42.1671 69.7048 42.9381 69.7048H54.3301C55.101 69.7048 55.732 70.294 55.732 71.0151C55.732 71.7356 55.101 72.3253 54.3301 72.3253Z" fill="#E8E6E1"/>
<path fill-rule="evenodd" clip-rule="evenodd" d="M54.3301 120.542H42.9381C42.1671 120.542 41.5361 119.953 41.5361 119.232C41.5361 118.512 42.1671 117.922 42.9381 117.922H54.3301C55.101 117.922 55.732 118.512 55.732 119.232C55.732 119.953 55.101 120.542 54.3301 120.542Z" fill="#E8E6E1"/>
<path fill-rule="evenodd" clip-rule="evenodd" d="M204 167.973C204 171.302 158.333 174 102 174C45.6669 174 0 171.302 0 167.973C0 164.644 45.6669 161.946 102 161.946C158.333 161.946 204 164.644 204 167.973Z" fill="#E3ECFA"/>
<path fill-rule="evenodd" clip-rule="evenodd" d="M191.181 49.7892H139.53C136.818 49.7892 134.598 47.6002 134.598 44.9252V31.0688C134.598 28.3938 136.818 26.2048 139.53 26.2048H191.181C193.894 26.2048 196.114 28.3938 196.114 31.0688V44.9252C196.114 47.6002 193.894 49.7892 191.181 49.7892Z" fill="#3F8CFF"/>
<path fill-rule="evenodd" clip-rule="evenodd" d="M181.052 33.0181H140.721C140.245 33.0181 139.855 32.6364 139.855 32.1702V31.2455C139.855 30.7792 140.245 30.3976 140.721 30.3976H181.052C181.528 30.3976 181.917 30.7792 181.917 31.2455V32.1702C181.917 32.6364 181.528 33.0181 181.052 33.0181Z" fill="#30619E"/>
<path fill-rule="evenodd" clip-rule="evenodd" d="M168.429 39.3072H140.725C140.247 39.3072 139.855 38.9256 139.855 38.4594V37.5341C139.855 37.0679 140.247 36.6868 140.725 36.6868H168.429C168.908 36.6868 169.299 37.0679 169.299 37.5341V38.4594C169.299 38.9256 168.908 39.3072 168.429 39.3072Z" fill="#30619E"/>
<path fill-rule="evenodd" clip-rule="evenodd" d="M161.065 45.5964H140.728C140.248 45.5964 139.855 45.2152 139.855 44.7485V43.8238C139.855 43.3575 140.248 42.9759 140.728 42.9759H161.065C161.545 42.9759 161.938 43.3575 161.938 43.8238V44.7485C161.938 45.2152 161.545 45.5964 161.065 45.5964Z" fill="#30619E"/>
<path fill-rule="evenodd" clip-rule="evenodd" d="M185.777 45.5964H165.44C164.96 45.5964 164.567 45.2152 164.567 44.7485V43.8238C164.567 43.3575 164.96 42.9759 165.44 42.9759H185.777C186.257 42.9759 186.649 43.3575 186.649 43.8238V44.7485C186.649 45.2152 186.257 45.5964 185.777 45.5964Z" fill="#30619E"/>
<path fill-rule="evenodd" clip-rule="evenodd" d="M180.536 33.0181H162.685C162.465 32.1418 162.216 31.2671 161.938 30.3976H180.536C181.006 30.3976 181.392 30.7792 181.392 31.2455V32.1702C181.392 32.6364 181.006 33.0181 180.536 33.0181Z" fill="#E1EEFF"/>
<path fill-rule="evenodd" clip-rule="evenodd" d="M167.928 39.3072H163.841C163.76 38.4331 163.651 37.5594 163.516 36.6868H167.928C168.393 36.6868 168.773 37.0679 168.773 37.5341V38.4594C168.773 38.9256 168.393 39.3072 167.928 39.3072Z" fill="#E1EEFF"/>
<path fill-rule="evenodd" clip-rule="evenodd" d="M185.777 45.5964H165.44C164.96 45.5964 164.567 45.2152 164.567 44.7485V43.8238C164.567 43.3575 164.96 42.9759 165.44 42.9759H185.777C186.257 42.9759 186.649 43.3575 186.649 43.8238V44.7485C186.649 45.2152 186.257 45.5964 185.777 45.5964Z" fill="#E1EEFF"/>
<path fill-rule="evenodd" clip-rule="evenodd" d="M149.976 56.0783H91.354C87.3774 56.0783 84.1235 52.8198 84.1235 48.8363V28.2059C84.1235 24.2224 87.3774 20.9639 91.354 20.9639H149.976C153.952 20.9639 157.206 24.2224 157.206 28.2059V48.8363C157.206 52.8198 153.952 56.0783 149.976 56.0783Z" fill="#30619E"/>
<path fill-rule="evenodd" clip-rule="evenodd" d="M151.734 30.3976H92.7498C92.0541 30.3976 91.4844 29.8632 91.4844 29.2107V27.9159C91.4844 27.2628 92.0541 26.7289 92.7498 26.7289H151.734C152.431 26.7289 153 27.2628 153 27.9159V29.2107C153 29.8632 152.431 30.3976 151.734 30.3976Z" fill="#30619E"/>
<path fill-rule="evenodd" clip-rule="evenodd" d="M133.325 39.8313H92.7581C92.0578 39.8313 91.4844 39.2975 91.4844 38.6449V37.3496C91.4844 36.697 92.0578 36.1627 92.7581 36.1627H133.325C134.025 36.1627 134.598 36.697 134.598 37.3496V38.6449C134.598 39.2975 134.025 39.8313 133.325 39.8313Z" fill="#30619E"/>
<path fill-rule="evenodd" clip-rule="evenodd" d="M122.289 49.265H92.7518C92.055 49.265 91.4844 48.7312 91.4844 48.0781V46.7833C91.4844 46.1307 92.055 45.5964 92.7518 45.5964H122.289C122.987 45.5964 123.557 46.1307 123.557 46.7833V48.0781C123.557 48.7312 122.987 49.265 122.289 49.265Z" fill="#30619E"/>
<path fill-rule="evenodd" clip-rule="evenodd" d="M154.352 49.265H129.565C128.863 49.265 128.289 48.7312 128.289 48.0781V46.7833C128.289 46.1307 128.863 45.5964 129.565 45.5964H154.352C155.054 45.5964 155.629 46.1307 155.629 46.7833V48.0781C155.629 48.7312 155.054 49.265 154.352 49.265Z" fill="#30619E"/>
<path fill-rule="evenodd" clip-rule="evenodd" d="M113.37 110.584H85.3714C83.5287 110.584 82.0205 109.073 82.0205 107.226V65.2017C82.0205 63.3552 83.5287 61.8434 85.3714 61.8434H113.37C115.214 61.8434 116.722 63.3552 116.722 65.2017V107.226C116.722 109.073 115.214 110.584 113.37 110.584Z" fill="#30619E"/>
<path fill-rule="evenodd" clip-rule="evenodd" d="M113.37 111.108H85.3714C83.5287 111.108 82.0205 109.586 82.0205 107.724V68.3548C82.6699 67.9346 83.3183 67.5113 83.9646 67.0844C85.1626 68.9621 86.4854 70.7201 87.9169 72.3548H86.6556C86.3158 72.3548 86.0375 72.6363 86.0375 72.9795V73.9062C86.0375 74.2499 86.3158 74.5304 86.6556 74.5304H89.959C91.0532 75.619 92.1996 76.6422 93.3909 77.5979H86.6556C86.3158 77.5979 86.0375 77.8783 86.0375 78.222V79.1493C86.0375 79.4925 86.3158 79.7734 86.6556 79.7734H96.3524C98.0699 80.9258 99.8594 81.949 101.711 82.8404H99.8813C99.5415 82.8404 99.2632 83.1214 99.2632 83.4646V84.3918C99.2632 84.735 99.5415 85.0154 99.8813 85.0154H107.141C110.243 86.0213 113.458 86.6765 116.722 86.9591V107.724C116.722 108.782 116.235 109.729 115.476 110.351C114.9 110.824 114.167 111.108 113.37 111.108Z" fill="#3F8CFF"/>
<path fill-rule="evenodd" clip-rule="evenodd" d="M112.419 69.1807H86.8481C86.5063 69.1807 86.2266 68.91 86.2266 68.5793V67.6863C86.2266 67.3551 86.5063 67.0844 86.8481 67.0844H112.419C112.761 67.0844 113.041 67.3551 113.041 67.6863V68.5793C113.041 68.91 112.761 69.1807 112.419 69.1807Z" fill="#F8F6F4"/>
<path fill-rule="evenodd" clip-rule="evenodd" d="M104.524 74.4217H86.8566C86.5102 74.4217 86.2266 74.1515 86.2266 73.8203V72.9273C86.2266 72.5966 86.5102 72.3253 86.8566 72.3253H104.524C104.871 72.3253 105.154 72.5966 105.154 72.9273V73.8203C105.154 74.1515 104.871 74.4217 104.524 74.4217Z" fill="#E1EEFF"/>
<path fill-rule="evenodd" clip-rule="evenodd" d="M112.419 79.6627H86.8481C86.5063 79.6627 86.2266 79.3919 86.2266 79.0612V78.1677C86.2266 77.8365 86.5063 77.5663 86.8481 77.5663H112.419C112.761 77.5663 113.041 77.8365 113.041 78.1677V79.0612C113.041 79.3919 112.761 79.6627 112.419 79.6627Z" fill="#E1EEFF"/>
<path fill-rule="evenodd" clip-rule="evenodd" d="M96.1337 84.9036H86.8349C86.5004 84.9036 86.2266 84.6329 86.2266 84.3022V83.4087C86.2266 83.078 86.5004 82.8073 86.8349 82.8073H96.1337C96.4682 82.8073 96.742 83.078 96.742 83.4087V84.3022C96.742 84.6329 96.4682 84.9036 96.1337 84.9036Z" fill="#E1EEFF"/>
<path fill-rule="evenodd" clip-rule="evenodd" d="M109.278 84.9036H99.9794C99.645 84.9036 99.3711 84.6333 99.3711 84.3026V83.4088C99.3711 83.0781 99.645 82.8073 99.9794 82.8073H109.278C109.613 82.8073 109.887 83.0781 109.887 83.4088V84.3026C109.887 84.6333 109.613 84.9036 109.278 84.9036Z" fill="#E1EEFF"/>
<path fill-rule="evenodd" clip-rule="evenodd" d="M112.419 90.1446H86.8481C86.5063 90.1446 86.2266 89.8744 86.2266 89.5432V88.6497C86.2266 88.319 86.5063 88.0482 86.8481 88.0482H112.419C112.761 88.0482 113.041 88.319 113.041 88.6497V89.5432C113.041 89.8744 112.761 90.1446 112.419 90.1446Z" fill="#E1EEFF"/>
<path fill-rule="evenodd" clip-rule="evenodd" d="M112.419 95.3856H86.8481C86.5063 95.3856 86.2266 95.1148 86.2266 94.7841V93.8911C86.2266 93.5599 86.5063 93.2892 86.8481 93.2892H112.419C112.761 93.2892 113.041 93.5599 113.041 93.8911V94.7841C113.041 95.1148 112.761 95.3856 112.419 95.3856Z" fill="#E1EEFF"/>
<path fill-rule="evenodd" clip-rule="evenodd" d="M107.693 100.627H86.8426C86.5039 100.627 86.2266 100.356 86.2266 100.025V99.1317C86.2266 98.801 86.5039 98.5302 86.8426 98.5302H107.693C108.032 98.5302 108.309 98.801 108.309 99.1317V100.025C108.309 100.356 108.032 100.627 107.693 100.627Z" fill="#E1EEFF"/>
<path fill-rule="evenodd" clip-rule="evenodd" d="M96.647 105.868H86.8474C86.506 105.868 86.2266 105.597 86.2266 105.266V104.373C86.2266 104.042 86.506 103.771 86.8474 103.771H96.647C96.9883 103.771 97.2678 104.042 97.2678 104.373V105.266C97.2678 105.597 96.9883 105.868 96.647 105.868Z" fill="#E1EEFF"/>
<path fill-rule="evenodd" clip-rule="evenodd" d="M120.995 61.8434H82.0205L99.2341 75.5156L125.66 85.4277V66.4954C125.66 63.9369 123.561 61.8434 120.995 61.8434Z" fill="#30619E"/>
<path fill-rule="evenodd" clip-rule="evenodd" d="M119.104 71.8012H90.679C90.2545 71.8012 89.9072 71.4359 89.9072 70.9892V69.4686C89.9072 69.0219 90.2545 68.6566 90.679 68.6566H119.104C119.529 68.6566 119.876 69.0219 119.876 69.4686V70.9892C119.876 71.4359 119.529 71.8012 119.104 71.8012Z" fill="#F8F6F4"/>
<path fill-rule="evenodd" clip-rule="evenodd" d="M133.546 98.9086V71.4233C133.546 69.3254 135.258 67.6085 137.35 67.6085H184.948C187.04 67.6085 188.753 69.3254 188.753 71.4233V98.9086C188.753 101.007 187.04 102.723 184.948 102.723H137.35C135.258 102.723 133.546 101.007 133.546 98.9086Z" fill="#6D5DD3"/>
<path fill-rule="evenodd" clip-rule="evenodd" d="M141.959 89.9989V62.5137C141.959 60.4152 143.671 58.6988 145.763 58.6988H193.362C195.454 58.6988 197.165 60.4152 197.165 62.5137V89.9989C197.165 92.0973 195.454 93.8132 193.362 93.8132H145.763C143.671 93.8132 141.959 92.0973 141.959 89.9989Z" fill="#30619E"/>
<path fill-rule="evenodd" clip-rule="evenodd" d="M193.561 93.7268H157.973C158.076 92.3772 158.185 91.1372 158.285 89.9931H169.248C169.966 89.9931 170.552 89.4087 170.552 88.6939V75.7587C170.552 75.0438 169.966 74.4594 169.248 74.4594H162.713C163.048 74.0857 163.374 73.6963 163.693 73.2891C164.349 72.395 164.983 71.4249 165.381 70.1838C165.576 69.5654 165.711 68.8621 165.667 68.0827C165.644 67.6949 165.569 67.2914 165.438 66.8978C165.372 66.7012 165.294 66.5078 165.201 66.3212L165.005 65.9402C164.043 64.0692 162.952 62.2611 161.706 60.5635C161.453 60.215 161.197 59.8691 160.935 59.5263C161.047 59.2512 161.155 58.976 161.26 58.6988H193.561C195.661 58.6988 197.378 60.411 197.378 62.5043V89.9218C197.378 92.0151 195.661 93.7268 193.561 93.7268ZM173.523 80.5311C173.523 81.4634 174.288 82.2265 175.224 82.2265H190.831C191.766 82.2265 192.532 81.4634 192.532 80.5311V63.6557C192.532 62.7233 191.766 61.9602 190.831 61.9602H175.224C174.288 61.9602 173.523 62.7233 173.523 63.6557V80.5311ZM156.115 75.1884C156.074 75.1386 155.995 75.1098 155.905 75.1098C155.886 75.1098 155.868 75.1109 155.849 75.1135L155.829 75.1161C155.516 73.2697 155.263 71.5811 155.103 69.7274C156.586 67.7961 157.898 65.751 159.03 63.618C160.016 64.9397 160.942 66.3071 161.806 67.7132L161.979 67.9931L162.045 68.1089C162.085 68.1902 162.116 68.284 162.137 68.3982C162.183 68.6252 162.177 68.9381 162.104 69.2903C161.955 69.9973 161.603 70.8201 161.148 71.6062C160.705 72.4076 160.168 73.199 159.583 73.9657C159.461 74.1303 159.336 74.2949 159.208 74.4594H157.286C156.774 74.4594 156.328 74.7576 156.115 75.1884Z" fill="#DE92EB"/>
<path fill-rule="evenodd" clip-rule="evenodd" d="M173.505 81.0973V64.0775C173.505 63.1371 174.268 62.3675 175.2 62.3675H190.74C191.671 62.3675 192.433 63.1371 192.433 64.0775V81.0973C192.433 82.0376 191.671 82.8073 190.74 82.8073H175.2C174.268 82.8073 173.505 82.0376 173.505 81.0973Z" fill="#30619E"/>
<path fill-rule="evenodd" clip-rule="evenodd" d="M190.74 82.8073H175.2C174.268 82.8073 173.505 82.0376 173.505 81.0973V64.0775C173.505 63.1371 174.268 62.3675 175.2 62.3675H190.74C191.671 62.3675 192.433 63.1371 192.433 64.0775V81.0973C192.433 82.0376 191.671 82.8073 190.74 82.8073Z" fill="#FCEDFF"/>
<path fill-rule="evenodd" clip-rule="evenodd" d="M156.155 89.3536V76.2609C156.155 75.5373 156.748 74.9458 157.472 74.9458H169.559C170.284 74.9458 170.876 75.5373 170.876 76.2609V89.3536C170.876 90.0772 170.284 90.6687 169.559 90.6687H157.472C156.748 90.6687 156.155 90.0772 156.155 89.3536Z" fill="#30619E"/>
<path fill-rule="evenodd" clip-rule="evenodd" d="M169.288 90.4795H158.325C158.805 84.9676 159.084 81.6658 157.646 78.8655C158.129 78.7429 158.672 78.5395 159.102 78.2046L159.103 78.2062C160.438 77.2387 161.644 76.1785 162.752 74.9458H169.288C170.005 74.9458 170.592 75.5302 170.592 76.245V89.1803C170.592 89.8951 170.005 90.4795 169.288 90.4795ZM158.19 76.2429L156.337 75.9405L156.163 75.6853C156.161 75.6816 156.158 75.678 156.155 75.6748C156.368 75.244 156.814 74.9458 157.326 74.9458H159.247C158.906 75.3855 158.548 75.8216 158.19 76.2429Z" fill="#FCEDFF"/>
<path fill-rule="evenodd" clip-rule="evenodd" d="M102 13.6265H138.804V8.38556H102V13.6265Z" fill="#30619E"/>
<path fill-rule="evenodd" clip-rule="evenodd" d="M38.9072 51.8492C38.4553 52.8815 37.9524 54.0356 37.5134 55.1501C37.0698 56.2768 36.6246 57.404 36.228 58.5406C35.4145 60.8061 34.7217 63.1015 34.2725 65.3527L34.1224 66.1928L34.0697 66.512C34.0537 66.5984 34.0522 66.718 34.0398 66.8196C34.0161 67.2663 34.0259 67.8067 34.0718 68.3598C34.1688 69.4727 34.3431 70.6615 34.5634 71.8535C34.9987 74.239 35.5512 76.6999 36.098 79.1186L33.4518 80.1868C32.2174 77.8755 31.1754 75.53 30.3078 73.0249C29.8812 71.7708 29.4918 70.4872 29.2173 69.094C29.0812 68.3945 28.9579 67.6719 28.9264 66.8502C28.9233 66.6358 28.912 66.4378 28.9207 66.2081C28.929 65.9843 28.9388 65.732 28.9574 65.5818L29.0585 64.5395C29.2184 63.1631 29.4577 61.8153 29.7667 60.509C30.0571 59.1927 30.429 57.9144 30.8236 56.6502C31.2229 55.3861 31.6629 54.1446 32.1509 52.9237C32.3928 52.3116 32.645 51.7054 32.906 51.1002C33.1665 50.4839 33.4317 49.914 33.7504 49.2651L38.9072 51.8492Z" fill="#ED975D"/>
<path fill-rule="evenodd" clip-rule="evenodd" d="M36.2552 78.0903L38.3813 80.146L33.7455 82.2831C33.7455 82.2831 32.6203 80.3366 33.3968 78.5763L36.2552 78.0903Z" fill="#E6776F"/>
<path fill-rule="evenodd" clip-rule="evenodd" d="M39.9587 83.2921L36.0679 84.9036L33.6494 82.3549L38.2567 80.1868L39.9587 83.2921Z" fill="#E6776F"/>
<path fill-rule="evenodd" clip-rule="evenodd" d="M125.771 77.0422V66.1572C125.771 63.9337 124.135 62.0649 121.979 61.6424L125.082 59.2229H132.7C132.049 60.9386 131.64 62.5303 131.64 62.5303L133.021 63.1865C132.843 63.6576 132.668 64.1307 132.496 64.6064C131.783 66.5595 131.121 68.5312 130.577 70.5888C130.507 70.8437 130.443 71.1048 130.381 71.368L130.288 71.7615L130.238 71.9756C130.218 72.077 130.196 72.1768 130.182 72.2807C130.048 73.1086 130.198 74.0264 130.552 74.7447C130.746 75.1346 130.967 75.4743 131.207 75.7742C129.413 76.3462 127.594 76.7671 125.771 77.0422Z" fill="#FEFCFB"/>
<path fill-rule="evenodd" clip-rule="evenodd" d="M134.226 56.0568H129.34L129.917 55.5757H134.598C134.472 55.7156 134.347 55.8776 134.226 56.0568Z" fill="#F8F6F4"/>
<path fill-rule="evenodd" clip-rule="evenodd" d="M134.762 55.6753H129.866L137.775 49.3767H143.642C144.131 50.9207 144.105 52.4862 141.909 53.3216C140.004 53.7482 137.959 54.365 136.69 54.7691C136.31 54.8577 135.897 54.9961 135.436 55.18C135.207 55.2717 134.982 55.4436 134.762 55.6753ZM149.114 52.3813C148.362 51.8331 147.99 50.6932 147.823 49.3767H154.261C154.393 49.3767 154.52 49.3563 154.64 49.3185C154.466 50.3169 154.247 51.3069 153.986 52.2839C153.507 52.2687 152.961 52.2582 152.374 52.2582C151.369 52.2582 150.242 52.2891 149.114 52.3813ZM155.071 45.7667C154.851 45.5833 154.569 45.4727 154.261 45.4727H147.754C147.785 44.8747 147.824 44.3249 147.853 43.8669L146.385 45.4727H142.677L154.367 36.1627C154.896 38.5782 155.152 41.0163 155.152 43.4371C155.152 44.2154 155.124 44.9932 155.071 45.7667Z" fill="#66A4FF"/>
<path fill-rule="evenodd" clip-rule="evenodd" d="M154.239 49.5004H147.8C147.641 48.2399 147.669 46.817 147.732 45.5964H154.239C154.546 45.5964 154.829 45.707 155.049 45.8904C154.967 47.0843 154.823 48.2687 154.618 49.4422C154.498 49.4799 154.371 49.5004 154.239 49.5004ZM143.62 49.5004H137.752L142.655 45.5964H146.363L143.387 48.8526C143.472 49.0669 143.551 49.2834 143.62 49.5004Z" fill="#E1EEFF"/>
<path fill-rule="evenodd" clip-rule="evenodd" d="M120.915 78.0904C115.813 78.0904 110.789 76.9584 106.206 74.8175L109.766 71.9637H119.744C120.176 71.9637 120.528 71.61 120.528 71.1775V69.7052C120.528 69.2727 120.176 68.919 119.744 68.919H113.564L122.391 61.8434C124.548 62.278 126.185 64.2003 126.185 66.4876V77.6845C124.429 77.9569 122.668 78.0904 120.915 78.0904Z" fill="#66A4FF"/>
<path fill-rule="evenodd" clip-rule="evenodd" d="M119.11 71.8012H109.361L113.072 68.6566H119.11C119.532 68.6566 119.876 69.0219 119.876 69.4686V70.9892C119.876 71.4359 119.532 71.8012 119.11 71.8012Z" fill="#F8F6F4"/>
<path fill-rule="evenodd" clip-rule="evenodd" d="M94.9161 61.585H91.1557C90.5406 60.606 89.9701 59.5882 89.4464 58.5305C89.2403 58.1144 89.0432 57.6957 88.8555 57.2753L91.0159 55.5542C91.0569 55.5552 91.0979 55.5552 91.1389 55.5552H97.7684V59.3135L94.9161 61.585ZM97.8998 59.2087V55.5552H102.487L97.8998 59.2087Z" fill="#FEFCFB"/>
<path fill-rule="evenodd" clip-rule="evenodd" d="M97.9911 59.2229V55.5542H98.1226V59.1206L97.9911 59.2229Z" fill="#E0DED8"/>
<path fill-rule="evenodd" clip-rule="evenodd" d="M146.165 20.4397H145.639V19.9156C145.817 20.0883 145.992 20.2626 146.165 20.4397Z" fill="#EEEBE7"/>
<path fill-rule="evenodd" clip-rule="evenodd" d="M102.955 55.8671H91.6074C91.5664 55.8671 91.5254 55.8671 91.4844 55.8661L99.391 49.5685H110.863L102.955 55.8671ZM115.765 45.6645H104.293L111.202 40.161H122.675L115.765 45.6645ZM127.576 36.257H116.104L123.013 30.754H134.486L127.576 36.257ZM139.387 26.85H127.915L135.305 20.9639H146.696C146.707 20.9764 146.718 20.9895 146.729 21.0021L139.387 26.85Z" fill="#66A4FF"/>
<path fill-rule="evenodd" clip-rule="evenodd" d="M133.925 30.3976H122.505L127.384 26.7289H138.804L133.925 30.3976Z" fill="#E1EEFF"/>
<path fill-rule="evenodd" clip-rule="evenodd" d="M122.358 39.8313H110.938L115.817 36.1627H127.237L122.358 39.8313Z" fill="#E1EEFF"/>
<path fill-rule="evenodd" clip-rule="evenodd" d="M110.791 49.265H99.3711L104.251 45.5964H115.67L110.791 49.265Z" fill="#E1EEFF"/>
<path fill-rule="evenodd" clip-rule="evenodd" d="M92.7729 63.9398C92.3247 63.2624 91.894 62.5619 91.4844 61.8434H95.1648L92.7729 63.9398Z" fill="#66A4FF"/>
<path fill-rule="evenodd" clip-rule="evenodd" d="M98.1226 20.4397H97.9911V17.3996C98.0347 17.3646 98.0784 17.3296 98.1226 17.2952V20.4397Z" fill="#E0DED8"/>
<path fill-rule="evenodd" clip-rule="evenodd" d="M104.3 20.4398H104.432V13.1024H104.3V20.4398Z" fill="#E0DED8"/>
<path fill-rule="evenodd" clip-rule="evenodd" d="M124.608 14.1506V13.1024H125.66L124.608 14.1506Z" fill="#F8F6F4"/>
<path fill-rule="evenodd" clip-rule="evenodd" d="M86.2486 45.0723C86.2339 44.6562 86.2266 44.2396 86.2266 43.8246C86.2297 35.4512 89.2605 27.2885 94.7733 20.9639H116.196L108.829 26.8941H93.0192C92.3248 26.8941 91.7561 27.4665 91.7561 28.1666V29.5548C91.7561 30.2544 92.3248 30.8273 93.0192 30.8273H103.944L97.0562 36.3716H93.0192C92.3248 36.3716 91.7561 36.9445 91.7561 37.6441V39.0328C91.7561 39.5001 92.0098 39.9109 92.3856 40.1321L86.2486 45.0723Z" fill="#66A4FF"/>
<path fill-rule="evenodd" clip-rule="evenodd" d="M103.87 30.3976H92.7679C92.0622 30.3976 91.4844 29.8632 91.4844 29.2107V27.9159C91.4844 27.2628 92.0622 26.7289 92.7679 26.7289H108.835L103.87 30.3976Z" fill="#E1EEFF"/>
<path fill-rule="evenodd" clip-rule="evenodd" d="M92.1088 39.8313C91.736 39.6155 91.4844 39.2147 91.4844 38.7589V37.4041C91.4844 36.7216 92.0485 36.1627 92.7373 36.1627H96.7421L92.1088 39.8313Z" fill="#E1EEFF"/>
<path fill-rule="evenodd" clip-rule="evenodd" d="M135.649 68.1325C135.977 67.2593 136.316 66.3852 136.659 65.512C136.78 66.0134 136.911 66.5413 137.052 67.0967C137.108 67.3204 137.167 67.5486 137.227 67.7812H137.211C136.653 67.7812 136.123 67.9073 135.649 68.1325Z" fill="#FEFCFB"/>
<path fill-rule="evenodd" clip-rule="evenodd" d="M134.344 74.9458C133.95 74.5408 133.666 74.1279 133.586 73.8133C133.529 73.5874 133.538 73.4471 133.585 73.2621L133.759 72.6722C133.827 72.4347 133.898 72.1966 133.976 71.9558C134.396 70.6357 134.852 69.3091 135.33 67.9815C135.812 67.7424 136.35 67.6085 136.917 67.6085H136.933C137.141 68.4524 137.369 69.3543 137.619 70.3147C137.647 70.4225 137.676 70.532 137.704 70.6415V70.641C137.885 71.3292 138.075 72.0462 138.278 72.7966C137.41 73.3493 136.51 73.8659 135.579 74.3437C135.17 74.5536 134.757 74.755 134.344 74.9458Z" fill="#9787FF"/>
<path fill-rule="evenodd" clip-rule="evenodd" d="M125.59 13.1024H104.103C104.473 12.9014 104.846 12.7068 105.226 12.5175C110.138 10.0695 115.349 8.90967 120.48 8.90967C123.486 8.90967 126.464 9.30746 129.34 10.0775L125.59 13.1024Z" fill="#66A4FF"/>
<path fill-rule="evenodd" clip-rule="evenodd" d="M88.8116 57.6008C88.4399 56.7686 88.1049 55.9305 87.8042 55.0852C88.758 55.5757 89.8342 55.8608 90.972 55.8797L88.8116 57.6008ZM119.209 20.9775H115.902L119.209 18.3434V20.9775Z" fill="#FBFAF8"/>
<path fill-rule="evenodd" clip-rule="evenodd" d="M91.3408 55.8661C90.203 55.8472 89.1267 55.5621 88.173 55.0715C86.9858 51.7309 86.3496 48.3013 86.2266 44.8931L92.3834 39.9896C92.5705 40.0986 92.7877 40.161 93.019 40.161H111.059L104.149 45.6645H93.019C92.3224 45.6645 91.7519 46.2332 91.7519 46.9276V48.3055C91.7519 49.0004 92.3224 49.5685 93.019 49.5685H99.2473L91.3408 55.8661ZM115.96 36.257H97.0691L103.979 30.754H122.87L115.96 36.257ZM127.771 26.85H108.88L116.27 20.9639H135.161L127.771 26.85Z" fill="#87B8FF"/>
<path fill-rule="evenodd" clip-rule="evenodd" d="M122.889 30.3976H104.103L108.977 26.7289H127.763L122.889 30.3976Z" fill="white"/>
<path fill-rule="evenodd" clip-rule="evenodd" d="M111.277 39.8313H93.174C92.9419 39.8313 92.724 39.7727 92.5361 39.6703L97.2383 36.1627H116.196L111.277 39.8313Z" fill="white"/>
<path fill-rule="evenodd" clip-rule="evenodd" d="M99.1136 49.265H92.7741C92.065 49.265 91.4844 48.7312 91.4844 48.0781V46.7833C91.4844 46.1307 92.065 45.5964 92.7741 45.5964H104.103L99.1136 49.265Z" fill="white"/>
<path fill-rule="evenodd" clip-rule="evenodd" d="M136.701 13.6265H125.66L129.316 10.4819C131.881 11.2133 134.36 12.2687 136.701 13.6265Z" fill="#87B8FF"/>
<path fill-rule="evenodd" clip-rule="evenodd" d="M129.557 55.8289H102.526L110.434 49.5303H122.264C122.962 49.5303 123.532 48.9621 123.532 48.2672V46.8893C123.532 46.1949 122.962 45.6263 122.264 45.6263H115.335L122.246 40.1227H133.088C133.785 40.1227 134.355 39.5546 134.355 38.8602V37.4818C134.355 36.7874 133.785 36.2187 133.088 36.2187H127.147L134.056 30.7157H151.796C151.967 30.7157 152.13 30.6817 152.279 30.6198C153.047 32.4908 153.638 34.397 154.058 36.3162L142.368 45.6263H129.343C128.646 45.6263 128.076 46.1949 128.076 46.8893V48.2672C128.076 48.9621 128.646 49.5303 129.343 49.5303H137.466L129.557 55.8289ZM150.436 26.8117H138.958L146.3 20.9639C147.854 22.7332 149.243 24.686 150.436 26.8117Z" fill="#87B8FF"/>
<path fill-rule="evenodd" clip-rule="evenodd" d="M151.987 30.3976H134.072L139.022 26.7289H150.614C150.908 27.217 151.19 27.7144 151.46 28.2217C151.827 28.9117 152.165 29.6067 152.474 30.3075C152.324 30.3656 152.159 30.3976 151.987 30.3976Z" fill="white"/>
<path fill-rule="evenodd" clip-rule="evenodd" d="M133.333 39.8313H122.505L127.4 36.1627H133.333C134.029 36.1627 134.598 36.697 134.598 37.3496V38.6449C134.598 39.2975 134.029 39.8313 133.333 39.8313Z" fill="white"/>
<path fill-rule="evenodd" clip-rule="evenodd" d="M122.285 49.265H110.413L115.331 45.5964H122.285C122.985 45.5964 123.557 46.1307 123.557 46.7833V48.0781C123.557 48.7312 122.985 49.265 122.285 49.265Z" fill="white"/>
<path fill-rule="evenodd" clip-rule="evenodd" d="M137.615 49.265H129.547C128.855 49.265 128.289 48.7312 128.289 48.0781V46.7833C128.289 46.1307 128.855 45.5964 129.547 45.5964H142.484L137.615 49.265Z" fill="white"/>
<path fill-rule="evenodd" clip-rule="evenodd" d="M105.846 74.7173C104.127 73.9201 102.472 72.9804 100.899 71.9055H109.376L105.846 74.7173ZM113.143 68.9056H97.1109C95.4373 67.3763 93.9031 65.6688 92.5361 63.7899L94.9799 61.8434H120.979C121.293 61.8434 121.6 61.8748 121.897 61.9341L113.143 68.9056Z" fill="#87B8FF"/>
<path fill-rule="evenodd" clip-rule="evenodd" d="M109.335 71.8012H100.994C99.6915 70.8524 98.4449 69.8026 97.2681 68.6566H113.041L109.335 71.8012Z" fill="white"/>
<path fill-rule="evenodd" clip-rule="evenodd" d="M141.793 3.96115C140.083 3.04188 138.297 2.22639 136.481 1.53772L136.668 1.04822C138.504 1.74474 140.313 2.56967 142.043 3.49994L141.793 3.96115ZM84.1699 16.8178L83.7461 16.5075C88.007 10.7356 93.7111 5.98625 100.241 2.77302L100.474 3.24261C94.0187 6.41916 88.3808 11.1135 84.1699 16.8178ZM77.7865 29.0517L77.2886 28.8835C78.1561 26.3327 79.2487 23.8543 80.5368 21.5179L80.9974 21.7705C79.7245 24.0802 78.6445 26.5298 77.7865 29.0517Z" fill="#3F8CFF"/>
<path fill-rule="evenodd" clip-rule="evenodd" d="M77.7827 28.8253L77.2886 28.6615C78.1495 26.1772 79.2337 23.7634 80.5119 21.488L80.969 21.734C79.7058 23.9834 78.6342 26.3692 77.7827 28.8253Z" fill="#3F8CFF"/>
<path fill-rule="evenodd" clip-rule="evenodd" d="M84.5498 16.7711L84.1235 16.4585C88.4092 10.6431 94.1465 5.85794 100.715 2.62048L100.948 3.09361C96.9281 5.07537 93.2236 7.64327 89.9793 10.6764C87.984 12.5414 86.1627 14.5829 84.5498 16.7711Z" fill="#3F8CFF"/>
<path fill-rule="evenodd" clip-rule="evenodd" d="M142.225 4.1928C140.447 3.20043 138.589 2.32008 136.701 1.57665L136.896 1.04822C138.805 1.80013 140.686 2.69066 142.485 3.69491L142.225 4.1928Z" fill="#3F8CFF"/>
<path fill-rule="evenodd" clip-rule="evenodd" d="M34.608 93.3526C34.2279 93.3526 33.8362 93.3306 33.4334 93.286C32.6421 93.1891 31.8182 93.0261 30.8771 92.6262C28.3339 91.5455 26.8108 89.078 26.8145 86.4859C26.815 85.9403 26.8833 85.3895 27.0237 84.8449C27.2777 83.857 27.6489 83.106 28.0527 82.421C28.4617 81.7459 28.9128 81.1558 29.4055 80.65C30.3845 79.6249 31.5222 78.9211 32.7378 78.3734C34.0712 77.7324 35.3993 77.0799 36.7305 76.4337C36.648 77.9075 36.5933 79.0039 36.6212 79.626C39.6502 79.626 51.0558 79.626 57.2804 79.626C57.9744 74.504 58.4134 70.1482 58.6653 66.4512C62.178 64.9539 65.7106 63.4985 69.2685 62.0934C72.7181 60.7381 76.1867 59.4205 79.6994 58.192C77.9727 53.3976 77.143 48.4559 77.142 43.5702C77.1378 27.524 86.0681 12.0888 101.479 4.50566C107.693 1.4486 114.282 0 120.773 0C136.869 0 152.353 8.90807 159.96 24.2688C163.031 30.4689 164.483 37.0447 164.481 43.5199C164.481 45.7699 164.304 48.0072 163.959 50.2126C163.639 52.255 163.175 54.2707 162.571 56.2424C162.199 57.4546 161.775 58.6501 161.3 59.8256C161.081 59.5389 160.858 59.2549 160.631 58.9745L161.263 58.4913C161.263 58.4913 158.137 52.6691 156.085 52.4736C156.056 52.471 156.028 52.4689 156 52.4668C155.766 52.4489 155.068 52.4002 154.103 52.3698C154.871 49.4988 155.268 46.5246 155.269 43.5231C155.27 39.1799 154.441 34.7785 152.705 30.5522C152.399 29.8064 152.064 29.0669 151.701 28.3327C151.434 27.7928 151.154 27.2635 150.863 26.7441C148.434 22.4151 145.184 18.7993 141.406 15.9959C140.061 14.9981 138.649 14.1029 137.183 13.3152C134.787 12.028 132.249 11.0275 129.624 10.3341C126.753 9.57524 123.781 9.18322 120.78 9.18322C115.66 9.18322 110.459 10.3263 105.556 12.7387C105.177 12.9253 104.804 13.1171 104.435 13.3152C102.228 14.5012 100.2 15.8974 98.3654 17.4645C98.3212 17.5017 98.2775 17.5394 98.2339 17.5771C90.6155 24.1509 86.3488 33.7036 86.3451 43.5487C86.3436 48.6576 87.4897 53.8457 89.912 58.7365C95.9158 70.8594 108.133 77.8896 120.835 77.8896C124.38 77.8896 127.963 77.342 131.458 76.2047C132.11 77.0369 132.899 77.5689 133.638 78.0201C135.724 79.1836 137.797 79.7517 139.993 80.0882L140.228 79.1218C140.243 79.1831 140.309 79.2282 140.396 79.2439C140.289 79.9467 140.112 81.1375 139.889 82.6877C137.833 83.684 135.737 84.5043 133.618 85.1552C133.285 85.2574 132.952 85.3554 132.617 85.4492C132.145 85.5823 131.67 85.7071 131.196 85.8229C130.263 86.0514 129.329 86.2479 128.392 86.413C125.882 86.8548 123.359 87.0713 120.851 87.0708C119.606 87.0708 118.364 87.0178 117.129 86.9119C113.843 86.631 110.604 85.9796 107.48 84.9796C100.121 82.6248 93.3905 78.3346 88.118 72.3924C86.6764 70.7672 85.3441 69.0193 84.1374 67.1525C83.4865 67.577 82.8335 67.9978 82.1794 68.4155C79.702 69.9957 77.1998 71.5266 74.6866 73.0344C70.0982 75.7754 65.4609 78.4169 60.7868 80.9849C59.8399 81.5001 58.8929 82.0132 57.9444 82.5247C57.5364 80.7077 57.2804 79.626 57.2804 79.626H49.9522C49.9522 79.626 41.4331 79.626 36.6212 79.626C36.6212 83.4582 37.1822 87.9759 37.8142 92.797C37.1354 93.0376 36.424 93.2116 35.6664 93.2928C35.3236 93.3327 34.9708 93.3526 34.608 93.3526ZM139.95 77.9415C138.306 77.2471 136.642 76.4311 135.371 75.4353C135.162 75.2733 134.964 75.1014 134.789 74.928C135.214 74.7398 135.638 74.5412 136.059 74.3342C137.017 73.863 137.942 73.3536 138.835 72.8085C139.242 74.2508 139.695 75.8126 140.199 77.5018L140.146 77.5086C140.003 77.527 139.896 77.6113 139.896 77.6999C139.896 77.7083 139.897 77.7162 139.899 77.7245L139.95 77.9415ZM155.467 70.0266C155.348 68.6357 155.28 67.1514 155.28 65.4376C155.28 64.3328 155.308 63.1321 155.367 61.7993C155.785 62.2092 156.073 62.4613 156.073 62.4613L156.074 62.4602L156.157 62.3968L157.413 61.4361C157.912 62.0237 158.407 62.619 158.876 63.2348C159.05 63.4613 159.223 63.6887 159.394 63.9172C158.262 66.0503 156.951 68.0953 155.467 70.0266Z" fill="#FDC748"/>
<path fill-rule="evenodd" clip-rule="evenodd" d="M42.9226 35.1144C43.4707 37.9007 44.0172 43.0067 42.062 44.866C42.062 44.866 42.8259 47.6928 48.0191 47.6928C53.7292 47.6928 50.7481 44.8665 50.7481 44.8665C47.6317 44.1241 47.7118 41.8189 48.2547 39.6537L42.9226 35.1144Z" fill="#FFB27D"/>
<path fill-rule="evenodd" clip-rule="evenodd" d="M39.8698 46.6446C40.5046 45.6444 39.4331 43.2225 39.4331 43.2225C39.4331 43.2225 48.9002 40.8168 52.7681 44.5058C53.5709 45.271 52.6792 46.3933 52.6792 46.3933L39.8698 46.6446Z" fill="#30619E"/>
<path fill-rule="evenodd" clip-rule="evenodd" d="M53.1 45.0723C52.4947 44.989 51.8573 44.915 51.2119 44.8615C50.1704 44.7748 48.8325 44.7417 47.4314 44.7417C45.654 44.7417 43.775 44.7953 42.2722 44.861C41.5224 44.8941 40.7641 44.951 40.0373 45.0202C39.9062 44.1094 39.4331 43.1465 39.4331 43.1465C39.4331 43.1465 42.466 42.4518 45.7996 42.4518C48.3562 42.4518 51.0893 42.8602 52.7677 44.3026C53.017 44.5168 53.1032 44.7617 53.1032 44.9978C53.1027 45.0231 53.1021 45.0479 53.1 45.0723Z" fill="#3F8CFF"/>
<path fill-rule="evenodd" clip-rule="evenodd" d="M22.9013 152.719C23.2861 153.159 23.8986 153.654 24.1636 153.591C24.1889 153.585 24.2667 153.567 24.2982 153.398C24.3119 153.327 24.2946 153.26 24.2457 153.197C24.0369 152.924 23.3329 152.777 22.9013 152.719ZM24.1184 153.778C23.6284 153.778 22.846 152.962 22.6158 152.658L22.6084 152.559L22.6962 152.512C22.7509 152.517 24.0401 152.627 24.3913 153.086C24.4717 153.191 24.5012 153.308 24.478 153.432C24.4344 153.667 24.3056 153.745 24.2052 153.769L24.1184 153.778Z" fill="#30619E"/>
<path fill-rule="evenodd" clip-rule="evenodd" d="M22.8986 152.291C23.395 152.311 24.1841 152.128 24.3082 151.901C24.3193 151.881 24.3461 151.832 24.263 151.745C24.1994 151.679 24.12 151.647 24.0196 151.647H24.019C23.672 151.647 23.1752 152.036 22.8986 152.291ZM22.9628 152.473C22.8529 152.473 22.7556 152.466 22.6783 152.451L22.6084 152.389L22.6294 152.299C22.6626 152.264 23.4396 151.464 24.019 151.464H24.0196C24.1705 151.464 24.2972 151.517 24.3955 151.62C24.548 151.779 24.507 151.919 24.4686 151.988C24.2951 152.306 23.4891 152.473 22.9628 152.473Z" fill="#30619E"/>
<path fill-rule="evenodd" clip-rule="evenodd" d="M58.203 165.251C58.9212 165.352 59.8981 165.346 60.079 165.098C60.1021 165.065 60.1258 165.01 60.0606 164.896C60.0248 164.833 59.9659 164.791 59.8813 164.769C59.4864 164.66 58.6746 165.01 58.203 165.251ZM59.0921 165.494C58.6305 165.494 58.1541 165.435 57.9075 165.386L57.835 165.312L57.8797 165.218C57.9364 165.185 59.2845 164.416 59.9291 164.592C60.0611 164.628 60.1589 164.7 60.2193 164.806C60.3277 164.994 60.2835 165.127 60.2272 165.204C60.0669 165.426 59.5879 165.494 59.0921 165.494Z" fill="#30619E"/>
<path fill-rule="evenodd" clip-rule="evenodd" d="M58.8681 163.701C58.7524 163.701 58.6478 163.739 58.5505 163.819C58.2277 164.083 58.09 164.704 58.0405 165.006C58.5164 164.721 59.1441 164.067 59.1015 163.806C59.0984 163.785 59.0879 163.72 58.9233 163.703L58.8681 163.701ZM57.9259 165.261L57.8723 165.244L57.835 165.161C57.8392 165.117 57.9433 164.081 58.4343 163.678C58.5842 163.556 58.7551 163.503 58.9417 163.522C59.193 163.547 59.2656 163.674 59.2824 163.776C59.3529 164.212 58.4296 165.044 57.9632 165.254L57.9259 165.261Z" fill="#30619E"/>
<path fill-rule="evenodd" clip-rule="evenodd" d="M53.6289 165.09H57.4539L57.8351 156.181H54.0095L53.6289 165.09Z" fill="#FFB27D"/>
<path fill-rule="evenodd" clip-rule="evenodd" d="M19.4536 149.944L22.7325 151.988L29.9691 146.171L26.6897 144.127L19.4536 149.944Z" fill="#FFB27D"/>
<path fill-rule="evenodd" clip-rule="evenodd" d="M23.0337 151.621L19.6887 148.919C19.5672 148.82 19.3922 148.818 19.2685 148.914L16.512 151.049C16.2259 151.27 16.229 151.7 16.514 151.923C17.6982 152.846 18.3217 153.238 19.7925 154.426C20.6973 155.157 22.9477 157.386 24.1974 158.396C25.4198 159.384 26.6233 158.319 26.2031 157.796C24.3205 155.447 23.5602 153.436 23.3669 152.192C23.3318 151.968 23.2118 151.765 23.0337 151.621Z" fill="#20282E"/>
<path fill-rule="evenodd" clip-rule="evenodd" d="M57.4007 165.09H53.1624C53.0039 165.09 52.8666 165.195 52.8323 165.342L52.0657 168.62C51.986 168.96 52.2575 169.283 52.6236 169.276C54.1524 169.251 56.3616 169.166 58.2834 169.166C60.5302 169.166 62.4705 169.283 65.1055 169.283C66.6982 169.283 67.1409 167.752 66.4737 167.613C63.4377 166.983 60.9591 166.915 58.3352 165.377C58.0505 165.21 57.7356 165.09 57.4007 165.09Z" fill="#20282E"/>
<path fill-rule="evenodd" clip-rule="evenodd" d="M34.5657 46.5545C31.2886 48.1454 29.4434 58.6021 29.4434 58.6021L37.4513 61.8434C37.4513 61.8434 39.2534 57.5151 40.283 52.8962C41.3619 48.0572 37.9162 44.9276 34.5657 46.5545Z" fill="#0A1629"/>
<path fill-rule="evenodd" clip-rule="evenodd" d="M38.5332 52.3322C36.5378 54.3929 35.6256 58.4304 35.2266 61.0561L37.1598 61.8434C37.1598 61.8434 38.9116 57.6215 39.9585 53.046C39.7875 51.9253 39.3625 51.4762 38.5332 52.3322Z" fill="#23273A"/>
<path fill-rule="evenodd" clip-rule="evenodd" d="M56.9799 46.2738C56.9799 46.2738 61.1121 50.9174 57.2093 79.6626C50.9519 79.6626 39.4861 79.6626 36.4412 79.6626C36.2985 76.4908 38.3011 61.0187 35.2266 46.0745C35.2266 46.0745 38.7863 45.3635 42.1785 45.2011C44.8324 45.0738 48.6744 44.9897 51.0074 45.2016C54.083 45.4803 56.9799 46.2738 56.9799 46.2738Z" fill="#0A1629"/>
<path fill-rule="evenodd" clip-rule="evenodd" d="M58.3498 57.369L54.9802 51.3615C54.3286 54.6522 54.0517 56.6872 54.1892 59.9305C54.2803 61.9944 56.1102 69.6368 57.7441 70.753C58.2582 65.1351 58.4058 60.7598 58.3498 57.369Z" fill="#23273A"/>
<path fill-rule="evenodd" clip-rule="evenodd" d="M59.3216 50.3132C59.8297 52.8334 60.3665 55.4122 60.9183 57.9459C61.4696 60.4852 62.0489 63.0142 62.7197 65.4675C62.8932 66.0714 63.0543 66.6914 63.2455 67.2755L63.3843 67.7203L63.4534 67.9426L63.4295 67.9157C63.3895 67.8706 63.3484 67.8659 63.3796 67.9126C63.4206 68.0162 63.7469 68.2412 64.1714 68.4029C64.6011 68.5688 65.127 68.715 65.684 68.8259C67.9385 69.2541 70.5941 69.3157 73.1142 69.3085L73.6083 72.1246C72.9105 72.3465 72.2589 72.5098 71.5756 72.6674C70.8986 72.827 70.2148 72.9644 69.5201 73.0691C68.1307 73.2831 66.7097 73.42 65.193 73.3588C64.4323 73.3272 63.6456 73.2552 62.8023 73.0489C61.9632 72.8327 61.0347 72.5393 60.0625 71.7799C59.5876 71.401 59.1163 70.8765 58.7801 70.2384C58.6944 70.0855 58.6206 69.9077 58.5562 69.7584L58.2684 69.0224C58.0023 68.3651 57.7841 67.7177 57.5456 67.0646C56.6654 64.4589 55.9369 61.8583 55.2895 59.2459C54.652 56.6251 54.0929 54.0272 53.6289 51.3478L59.3216 50.3132Z" fill="#FFB27D"/>
<path fill-rule="evenodd" clip-rule="evenodd" d="M51.6958 49.2075C50.6245 52.7766 54.9683 63.4157 54.9683 63.4157L63.6187 61.1804C63.6187 61.1804 63.2864 55.6532 61.3161 51.2657C58.3433 44.6471 52.9814 44.9231 51.6958 49.2075Z" fill="#0A1629"/>
<path fill-rule="evenodd" clip-rule="evenodd" d="M72.9478 69.8164L77.2887 69.7048L75.2009 74.4151C75.2009 74.4151 73.4352 74.6601 71.9841 72.1716L70.4536 70.2705L72.2136 69.9019C72.4552 69.8513 72.701 69.8224 72.9478 69.8164Z" fill="#FFB27D"/>
<path fill-rule="evenodd" clip-rule="evenodd" d="M79.9175 70.5692L77.4812 74.4217L75.1855 74.3529L77.2316 69.7048L79.9175 70.5692Z" fill="#FFB27D"/>
<path fill-rule="evenodd" clip-rule="evenodd" d="M57.8351 156.181L57.6304 160.898H53.6289L53.8336 156.181H57.8351Z" fill="#ED975D"/>
<path fill-rule="evenodd" clip-rule="evenodd" d="M26.2457 144.127L29.4434 146.253L25.8061 149.367L22.6084 147.242L26.2457 144.127Z" fill="#ED975D"/>
<path fill-rule="evenodd" clip-rule="evenodd" d="M43.1235 32.3632C43.3563 36.2029 43.2972 38.462 45.2356 40.4341C48.1517 43.4012 52.8954 41.6465 53.815 37.8152C54.6433 34.3664 54.1239 28.6664 50.3647 27.1359C46.6609 25.6271 42.8912 28.524 43.1235 32.3632Z" fill="#FFB27D"/>
<path fill-rule="evenodd" clip-rule="evenodd" d="M38.5031 31.6459C39.4602 35.0808 41.7146 39.0375 44.6282 39.2886C48.2492 39.6007 49.8835 35.9406 50.3597 32.1584C52.5305 30.7047 51.3898 29.1076 53.5669 28.9042C56.3578 28.6432 55.4674 23.6444 51.7877 22.8399C51.7877 22.8399 53.0194 25.0919 50.4338 23.956C47.8487 22.8197 45.3208 22.332 42.531 22.6147C42.531 22.6147 45.8282 24.2273 42.6034 24.9469C39.3782 25.6665 38.4126 27.6156 39.8972 28.7913C39.8972 28.7913 37.8724 29.3846 38.5031 31.6459Z" fill="#233862"/>
<path fill-rule="evenodd" clip-rule="evenodd" d="M48.3752 33.083C48.4384 34.1038 48.9298 35.0641 49.5204 35.6924C50.4089 36.6371 51.3356 36.0491 51.4925 34.8975C51.634 33.8617 51.3422 32.1216 50.2564 31.601C49.186 31.0879 48.3031 31.9154 48.3752 33.083Z" fill="#FFB27D"/>
<path fill-rule="evenodd" clip-rule="evenodd" d="M49.5838 79.6627C49.5838 79.6627 53.3571 106.778 50.3842 117.641C45.6762 134.846 27.6625 149.367 27.6625 149.367L21.5566 145.396C21.5566 145.396 36.8941 133.133 38.772 118.733C40.4587 105.796 36.2239 90.157 36.2239 79.6627C41.0462 79.6627 49.5838 79.6627 49.5838 79.6627Z" fill="#30619E"/>
<path fill-rule="evenodd" clip-rule="evenodd" d="M29.8242 147.795L23.6597 143.81C27.8787 139.965 37.5795 130.03 39.0534 118.796C39.3354 116.645 39.4533 114.419 39.4533 112.155C39.4533 105.75 38.5129 99.0357 37.6904 92.8261C37.0522 88.0077 36.4857 83.4926 36.4857 79.6627C41.3451 79.6627 49.9483 79.6627 49.9483 79.6627H43.6346C43.6346 79.6627 46.2634 87.8312 48.5269 97.238C48.82 102.418 49.0345 108.329 49.0345 113.888C49.0345 117.19 48.9591 120.367 48.7797 123.194C48.939 122.834 49.0929 122.473 49.2416 122.11C46.6144 128.528 42.406 134.395 38.4152 139.038C35.7678 142.118 33.216 144.658 31.2843 146.462C30.7454 146.965 30.2553 147.411 29.8242 147.795Z" fill="#3F8CFF"/>
<path fill-rule="evenodd" clip-rule="evenodd" d="M50.208 119.242C50.2101 119.236 50.2122 119.229 50.2143 119.222C50.2117 119.229 50.2101 119.235 50.208 119.242Z" fill="#2C5B99"/>
<path fill-rule="evenodd" clip-rule="evenodd" d="M50.1312 119.485C50.1854 119.317 50.239 119.148 50.291 118.978C50.239 119.148 50.1859 119.317 50.1312 119.485Z" fill="#2C5B99"/>
<path fill-rule="evenodd" clip-rule="evenodd" d="M50.2103 118.71C50.2109 118.709 50.2114 118.707 50.2119 118.705C50.2114 118.706 50.2109 118.709 50.2103 118.71Z" fill="#2C5B99"/>
<path fill-rule="evenodd" clip-rule="evenodd" d="M51.0581 115.825C51.2232 115.013 51.3583 114.135 51.4677 113.205C51.4677 113.206 51.4677 113.205 51.4677 113.206C51.4109 113.688 51.3473 114.156 51.2763 114.608C51.21 115.027 51.1375 115.434 51.0581 115.825Z" fill="#2C5B99"/>
<path fill-rule="evenodd" clip-rule="evenodd" d="M51.1429 94.847C49.3704 92.8613 47.8452 91.7169 47.8452 91.7169C48.4869 100.468 49.0128 113.43 48.429 122.639C49.2127 120.865 49.8754 119.04 50.3855 117.19C51.8319 111.917 51.6793 102.803 51.1429 94.847Z" fill="#30619E"/>
<path fill-rule="evenodd" clip-rule="evenodd" d="M48.6379 123.163C48.8273 120.309 48.9069 117.101 48.9069 113.768C48.9069 108.155 48.6804 102.187 48.3711 96.9578C49.7593 102.478 51.0174 108.42 51.5257 113.411C51.3363 114.976 51.0735 116.4 50.7226 117.621C50.5584 118.19 50.3791 118.756 50.1863 119.32C50.0087 119.837 49.8198 120.351 49.6197 120.863C49.3171 121.638 48.9887 122.405 48.6379 123.163Z" fill="#2B73DF"/>
<path fill-rule="evenodd" clip-rule="evenodd" d="M29.9689 148.29L27.6306 149.892L21.0308 145.395L23.0881 143.602L29.9689 148.29Z" fill="#30619E"/>
<path fill-rule="evenodd" clip-rule="evenodd" d="M27.6306 149.892L21.0308 145.395L23.0881 143.602L29.9689 148.29L27.6306 149.892Z" fill="#264D90"/>
<path fill-rule="evenodd" clip-rule="evenodd" d="M57.3147 79.6627C57.3147 79.6627 63.1732 104.292 63.5862 116.057C64.0484 129.252 59.4061 160.374 59.4061 160.374H52.8169C52.8169 160.374 52.0057 129.009 51.7124 116.992C51.3932 103.889 43.6392 79.6627 43.6392 79.6627H57.3147Z" fill="#30619E"/>
<path fill-rule="evenodd" clip-rule="evenodd" d="M52.7566 157.753C52.5633 150.29 51.9571 126.854 51.7125 116.856C51.6865 115.803 51.6124 114.678 51.498 113.498C51.0178 108.56 49.8291 102.681 48.5177 97.2193C46.2605 87.8225 43.6392 79.6627 43.6392 79.6627H57.3147C57.3147 79.6627 63.1733 104.202 63.5862 115.925C63.608 116.548 63.6185 117.211 63.6185 117.908C63.6185 118.149 63.6175 118.395 63.6148 118.644C63.5603 124.238 62.9001 131.823 62.1186 138.975C61.8379 141.54 61.542 144.049 61.2529 146.39C61.0829 147.765 60.9151 149.081 60.7547 150.318C60.7488 150.361 60.743 150.406 60.7372 150.449C60.3586 153.359 60.0187 155.813 59.7767 157.517L52.7566 157.753Z" fill="#3F8CFF"/>
<path fill-rule="evenodd" clip-rule="evenodd" d="M60.4641 157.753L60.1007 160.373H52.2635L52.0518 158.035L60.4641 157.753Z" fill="#30619E"/>
<path fill-rule="evenodd" clip-rule="evenodd" d="M60.1007 160.373H52.2635L52.0518 158.035L60.4641 157.753L60.1007 160.373Z" fill="#264D90"/>
<path fill-rule="evenodd" clip-rule="evenodd" d="M157.898 56.0783C158.353 56.4975 158.705 56.8543 159.082 57.2551C159.447 57.6471 159.806 58.0422 160.154 58.444C160.851 59.2473 161.498 60.0862 162.124 60.9381C163.386 62.6353 164.491 64.443 165.466 66.3136L165.664 66.6945C165.757 66.881 165.837 67.0744 165.904 67.2709C166.037 67.6644 166.112 68.0678 166.136 68.4556C166.18 69.2347 166.043 69.9379 165.846 70.5562C165.443 71.7969 164.801 72.7668 164.137 73.6607C162.749 75.4129 161.209 76.8302 159.448 78.0904L158.119 76.5918C158.747 75.8781 159.395 75.1074 159.974 74.3371C160.566 73.5706 161.11 72.7794 161.559 71.9782C162.019 71.1923 162.376 70.3696 162.527 69.6628C162.601 69.3107 162.607 68.9979 162.56 68.771C162.539 68.6568 162.508 68.563 162.468 68.4818L162.4 68.366L162.225 68.0862C161.198 66.4372 160.086 64.8407 158.889 63.3096C158.295 62.5405 157.661 61.8027 157.027 61.0723C156.711 60.706 156.387 60.3482 156.062 59.9966C155.74 59.6581 155.386 59.2834 155.103 59.0031L157.898 56.0783Z" fill="#FFB27D"/>
<path fill-rule="evenodd" clip-rule="evenodd" d="M158.47 76.1565L154.577 75.4698L156.612 79.1385C156.612 79.1385 159.118 79.0455 159.835 77.4782L158.47 76.1565Z" fill="#FFB27D"/>
<path fill-rule="evenodd" clip-rule="evenodd" d="M151.423 76.9943L153.212 79.6626L156.155 78.7638L154.196 75.4698L151.423 76.9943Z" fill="#E6776F"/>
<path fill-rule="evenodd" clip-rule="evenodd" d="M157.595 164.749L157.476 164.77C157.446 164.784 157.41 164.809 157.399 164.887C157.379 165.034 157.41 165.142 157.494 165.219C157.693 165.4 158.209 165.424 158.895 165.287C158.473 165.033 157.898 164.749 157.595 164.749ZM158.12 165.561C157.817 165.561 157.536 165.509 157.369 165.356C157.237 165.236 157.185 165.07 157.214 164.862C157.236 164.705 157.327 164.633 157.4 164.601C157.858 164.396 159.055 165.164 159.19 165.252L159.23 165.346L159.16 165.42C158.882 165.486 158.484 165.561 158.12 165.561Z" fill="#30619E"/>
<path fill-rule="evenodd" clip-rule="evenodd" d="M158.645 163.705L158.602 163.708C158.483 163.723 158.457 163.775 158.449 163.82C158.394 164.088 158.841 164.725 159.216 165.023C159.194 164.647 159.106 164.012 158.851 163.787C158.789 163.733 158.721 163.705 158.645 163.705ZM159.315 165.298L159.269 165.286C158.893 165.073 158.177 164.225 158.265 163.782C158.282 163.698 158.346 163.552 158.58 163.523C158.73 163.501 158.861 163.547 158.975 163.648C159.403 164.025 159.408 165.156 159.408 165.204L159.362 165.285L159.315 165.298Z" fill="#30619E"/>
<path fill-rule="evenodd" clip-rule="evenodd" d="M139.755 164.75C139.682 164.75 139.624 164.76 139.581 164.784C139.543 164.805 139.523 164.836 139.519 164.884C139.507 165.01 139.543 165.107 139.627 165.183C139.865 165.396 140.515 165.434 141.386 165.289C140.846 165.031 140.128 164.75 139.755 164.75ZM140.457 165.563C140.065 165.563 139.704 165.502 139.502 165.321C139.373 165.206 139.317 165.053 139.333 164.868C139.343 164.757 139.397 164.671 139.491 164.621C139.978 164.353 141.544 165.156 141.722 165.249L141.771 165.344L141.697 165.422C141.363 165.489 140.891 165.563 140.457 165.563Z" fill="#30619E"/>
<path fill-rule="evenodd" clip-rule="evenodd" d="M140.811 163.704L140.755 163.707C140.585 163.724 140.574 163.792 140.57 163.814C140.526 164.081 141.157 164.747 141.635 165.037C141.589 164.729 141.458 164.095 141.134 163.825C141.036 163.744 140.93 163.704 140.811 163.704ZM141.75 165.296L141.711 165.288C141.241 165.076 140.313 164.229 140.385 163.784C140.403 163.679 140.477 163.548 140.736 163.522C140.928 163.503 141.101 163.556 141.253 163.683C141.748 164.093 141.839 165.151 141.843 165.196L141.804 165.279L141.75 165.296Z" fill="#30619E"/>
<path fill-rule="evenodd" clip-rule="evenodd" d="M148.028 44.0241C147.874 46.3806 147.451 51.1675 149.32 52.4901C149.32 52.4901 148.986 54.9034 144.573 55.462C139.721 56.0759 141.939 53.425 141.939 53.425C144.505 52.4776 144.179 50.5854 143.476 48.8585L148.028 44.0241Z" fill="#FFB27D"/>
<path fill-rule="evenodd" clip-rule="evenodd" d="M145.639 165.09H141.697L141.433 156.181H145.376L145.639 165.09Z" fill="#FFB27D"/>
<path fill-rule="evenodd" clip-rule="evenodd" d="M164.041 165.09H160.063L158.784 156.181H162.762L164.041 165.09Z" fill="#FFB27D"/>
<path fill-rule="evenodd" clip-rule="evenodd" d="M159.784 164.566H164.259C164.422 164.566 164.554 164.684 164.577 164.85L165.087 168.537C165.14 168.92 164.824 169.282 164.448 169.275C162.888 169.247 162.136 169.152 160.168 169.152C158.958 169.152 157.189 169.283 155.517 169.283C153.882 169.283 153.756 167.561 154.452 167.405C157.574 166.705 158.067 165.742 159.118 164.822C159.308 164.655 159.546 164.566 159.784 164.566Z" fill="#20282E"/>
<path fill-rule="evenodd" clip-rule="evenodd" d="M141.476 164.566H145.872C146.032 164.566 146.162 164.684 146.184 164.85L146.685 168.537C146.737 168.92 146.427 169.282 146.058 169.275C144.525 169.247 143.787 169.152 141.854 169.152C140.664 169.152 138.205 169.283 136.562 169.283C134.956 169.283 134.833 167.561 135.517 167.405C138.582 166.705 139.789 165.742 140.822 164.822C141.009 164.655 141.242 164.566 141.476 164.566Z" fill="#20282E"/>
<path fill-rule="evenodd" clip-rule="evenodd" d="M141.433 156.181L141.572 160.898H145.639L145.5 156.181H141.433Z" fill="#ED975D"/>
<path fill-rule="evenodd" clip-rule="evenodd" d="M162.842 156.181H158.784L159.458 160.898H163.516L162.842 156.181Z" fill="#ED975D"/>
<path fill-rule="evenodd" clip-rule="evenodd" d="M147.565 39.1482C147.833 43.0802 148.029 44.739 146.342 46.9989C143.804 50.3987 138.977 49.8714 137.555 46.099C136.274 42.7039 136.052 36.8433 139.622 34.7917C143.14 32.7698 147.298 35.2157 147.565 39.1482Z" fill="#FFB27D"/>
<path fill-rule="evenodd" clip-rule="evenodd" d="M149.736 42.7618C151.914 43.987 153.526 40.9649 153.526 40.9649C153.526 40.9649 149.627 41.3925 149.975 39.0487C150.438 35.94 148.233 32.1599 142.701 32.6439C142.394 32.6709 142.098 32.7094 141.812 32.7574C140.739 32.305 139.287 32.3531 138.372 33.5572C136.825 33.6891 134.69 35.5811 136.122 38.0769C136.122 38.0769 136.248 37.6799 136.586 37.3019C136.703 38.7631 137.972 41.0858 139.55 41.2378C139.89 43.2406 138.574 45.5585 139.041 47.6457C139.716 50.6599 144.748 51.3614 144.748 51.3614C144.197 49.9018 145.043 49.0377 145.043 49.0377C148.463 50.614 150.716 49.0741 150.716 49.0741C148.386 48.1942 149.09 46.6327 149.09 46.6327C152.212 47.8352 153.526 45.0053 153.526 45.0053C151.863 45.0929 150.459 44.1548 149.736 42.7618Z" fill="#233862"/>
<path fill-rule="evenodd" clip-rule="evenodd" d="M140.906 41.6843C140.931 42.4819 140.584 43.2168 140.124 43.6873C139.433 44.3959 138.589 43.9011 138.364 42.9938C138.161 42.177 138.276 40.8241 139.171 40.455C140.052 40.0917 140.877 40.7723 140.906 41.6843Z" fill="#FFB27D"/>
<path fill-rule="evenodd" clip-rule="evenodd" d="M144.587 78.0369C144.587 78.0369 145.577 103.842 147.92 118.996C149.813 131.237 158.208 159.849 158.208 159.849H163.515C163.515 159.849 159.141 132.217 158.18 120.11C155.749 89.4742 162.056 82.8981 156.121 76.5181L144.587 78.0369Z" fill="#0A1629"/>
<path fill-rule="evenodd" clip-rule="evenodd" d="M149.154 85.9616C149.154 85.9616 146.604 85.5444 145.113 90.1394C145.676 98.8449 146.609 110.397 147.984 118.721C148.287 120.575 148.751 122.81 149.319 125.259C148.243 110.553 149.154 85.9616 149.154 85.9616Z" fill="#010205"/>
<path fill-rule="evenodd" clip-rule="evenodd" d="M140.349 78.5542C140.349 78.5542 135.928 107.113 136.186 119.065C136.454 131.497 141.026 159.849 141.026 159.849H146.345C146.345 159.849 145.503 132.223 145.973 120.014C146.486 106.703 151.948 77.0422 151.948 77.0422L140.349 78.5542Z" fill="#0A1629"/>
<path fill-rule="evenodd" clip-rule="evenodd" d="M164.567 160.373H157.252L156.681 157.753L164.517 157.813L164.567 160.373Z" fill="#30619E"/>
<path fill-rule="evenodd" clip-rule="evenodd" d="M164.567 160.373H157.252L156.681 157.753L164.517 157.813L164.567 160.373Z" fill="#3F8CFF"/>
<path fill-rule="evenodd" clip-rule="evenodd" d="M155.754 52.4213C157.788 52.616 160.886 58.414 160.886 58.414L155.742 62.3675C155.742 62.3675 151.483 58.6248 151.99 56.5225C152.518 54.3331 153.799 52.2344 155.754 52.4213Z" fill="#30619E"/>
<path fill-rule="evenodd" clip-rule="evenodd" d="M155.809 62.4042C155.809 62.4042 155.521 62.1521 155.103 61.7423C155.103 61.7417 155.103 61.7412 155.103 61.7407C155.519 62.149 155.807 62.401 155.81 62.4031L155.809 62.4042ZM155.893 62.3397L156.193 62.1096L155.28 58.6957C155.408 56.8514 155.586 54.7786 155.821 52.4165C155.821 52.4165 155.791 52.4139 155.736 52.4097C155.764 52.4118 155.792 52.4139 155.821 52.4165C157.873 52.612 160.999 58.4342 160.999 58.4342L160.367 58.9174L155.893 62.3397Z" fill="#3F8CFF"/>
<path fill-rule="evenodd" clip-rule="evenodd" d="M154.233 54.6976C154.233 54.6976 153.408 54.4559 152.626 54.5155C152.353 55.0843 152.143 55.7133 151.99 56.3519C151.481 58.5164 155.771 62.3675 155.771 62.3675L156.154 62.0667L154.233 54.6976Z" fill="#30619E"/>
<path fill-rule="evenodd" clip-rule="evenodd" d="M155.784 62.3675C155.784 62.3675 155.507 62.118 155.103 61.7119C155.144 60.7774 155.2 59.778 155.273 58.6988L156.155 62.077L155.784 62.3675Z" fill="#264D90"/>
<path fill-rule="evenodd" clip-rule="evenodd" d="M138.675 60.2392C137.189 64.0026 135.623 67.8228 134.377 71.5946C134.297 71.8308 134.225 72.0644 134.155 72.2975L133.978 72.8763C133.93 73.0578 133.921 73.1955 133.979 73.4171C134.095 73.8593 134.642 74.5012 135.33 75.0331C136.722 76.1276 138.59 77.0032 140.381 77.7395L139.914 79.6626C137.736 79.3279 135.68 78.7626 133.611 77.605C132.61 76.9917 131.517 76.2293 130.804 74.7604C130.455 74.0361 130.307 73.1105 130.44 72.2756C130.454 72.1708 130.475 72.0701 130.494 71.9679L130.543 71.7521L130.636 71.3552C130.696 71.0898 130.759 70.8265 130.828 70.5694C131.364 68.4945 132.016 66.5061 132.718 64.5366C133.414 62.5623 134.159 60.6324 134.989 58.6988L138.675 60.2392Z" fill="#FFB27D"/>
<path fill-rule="evenodd" clip-rule="evenodd" d="M135.335 55.3341C135.335 55.3341 133.56 56.2311 140.287 78.6145C146.584 77.7925 153.091 76.9433 156.154 76.5436C155.043 70.1357 154.515 66.1639 155.867 52.5393C155.867 52.5393 152.448 52.2519 149.013 52.533C146.326 52.7533 144.128 52.9537 141.808 53.4741C138.75 54.1596 135.335 55.3341 135.335 55.3341Z" fill="#30619E"/>
<path fill-rule="evenodd" clip-rule="evenodd" d="M140.105 77.5663C139.341 75.0109 138.693 72.75 138.144 70.7476L138.258 65.9858L138.569 66.1362C138.569 66.1362 140.768 60.6424 140.766 57.7599C140.765 57.1164 140.655 56.6028 140.385 56.3098C139.437 55.279 138.643 54.8015 137.638 54.8015C137.346 54.8015 137.037 54.8419 136.701 54.9205C137.975 54.5164 140.027 53.8996 141.939 53.473C144.266 52.9531 146.472 52.7529 149.168 52.5328C150.301 52.4406 151.431 52.4097 152.439 52.4097C154.499 52.4097 156.046 52.5391 156.046 52.5391C155.811 54.9011 155.632 56.9738 155.503 58.8181C155.427 59.9087 155.369 60.9185 155.326 61.8629C155.326 61.8634 155.326 61.864 155.326 61.8645C155.266 63.1972 155.238 64.3979 155.238 65.5026C155.239 69.5008 155.607 72.2485 156.155 75.48L140.105 77.5663Z" fill="#3F8CFF"/>
<path fill-rule="evenodd" clip-rule="evenodd" d="M138.278 70.2289C137.884 69.0918 137.536 68.0448 137.227 67.0844C137.536 68.0452 137.885 69.0908 138.278 70.2289Z" fill="#2C5B99"/>
<path fill-rule="evenodd" clip-rule="evenodd" d="M156.293 75.5549L157.186 76.818C157.255 76.9156 157.14 77.0393 156.958 77.0618L140.473 79.135C140.331 79.153 140.205 79.1009 140.184 79.0163L139.858 77.6816C139.836 77.5895 139.948 77.4944 140.103 77.4753L156.021 75.4733C156.139 75.4588 156.248 75.4913 156.293 75.5549Z" fill="#30619E"/>
<path fill-rule="evenodd" clip-rule="evenodd" d="M140.418 79.1385C140.3 79.1385 140.203 79.09 140.185 79.0164L139.909 77.8889L139.859 77.6817C139.857 77.6737 139.855 77.6661 139.855 77.6581C139.855 77.5735 139.961 77.4929 140.103 77.4754L156.021 75.4734C156.04 75.4708 156.058 75.4698 156.076 75.4698C156.172 75.4698 156.255 75.5014 156.293 75.555L157.185 76.8181C157.199 76.8376 157.205 76.8581 157.206 76.8786C157.207 76.9612 157.104 77.0439 156.958 77.0619L140.473 79.135C140.454 79.1375 140.436 79.1385 140.418 79.1385Z" fill="#233862"/>
<path fill-rule="evenodd" clip-rule="evenodd" d="M154.078 77.5642L154.459 77.5067C154.535 77.4956 154.587 77.4424 154.576 77.3887L154.184 75.549C154.173 75.4953 154.101 75.4608 154.025 75.4719L153.645 75.5288C153.569 75.5405 153.516 75.5937 153.527 75.6474L153.92 77.4865C153.931 77.5402 154.002 77.5753 154.078 77.5642Z" fill="#0A1629"/>
<path fill-rule="evenodd" clip-rule="evenodd" d="M143.562 79.1363L143.943 79.0794C144.019 79.0683 144.071 79.0151 144.06 78.9609L143.668 77.1219C143.657 77.0682 143.585 77.0331 143.509 77.0442L143.129 77.1017C143.053 77.1128 143.001 77.166 143.012 77.2202L143.404 79.0592C143.415 79.1129 143.487 79.148 143.562 79.1363Z" fill="#0A1629"/>
<path fill-rule="evenodd" clip-rule="evenodd" d="M136.175 62.7683C136.603 64.8318 137.222 67.4448 138.088 70.753L138.278 62.3675L136.175 62.7683Z" fill="#30619E"/>
<path fill-rule="evenodd" clip-rule="evenodd" d="M138.162 70.753C137.571 68.5427 137.089 66.6353 136.701 64.988L138.278 65.7666L138.162 70.7525V70.753Z" fill="#2B73DF"/>
<path fill-rule="evenodd" clip-rule="evenodd" d="M135.096 55.0448C133.13 55.8477 131.443 62.6898 131.443 62.6898L138.2 66.0362C138.2 66.0362 141.469 57.671 140.004 56.0401C138.478 54.3421 137.357 54.1214 135.096 55.0448Z" fill="#30619E"/>
<path fill-rule="evenodd" clip-rule="evenodd" d="M138.199 66.0362L137.89 65.8832L131.443 62.6898C131.443 62.6898 133.13 55.8479 135.096 55.045C135.96 54.6921 136.658 54.506 137.275 54.506C138.273 54.506 139.061 54.9917 140.003 56.0403C140.271 56.3383 140.38 56.8608 140.382 57.5155C140.384 60.4476 138.199 66.0362 138.199 66.0362Z" fill="#3F8CFF"/>
<path fill-rule="evenodd" clip-rule="evenodd" d="M146.965 160.373H139.883L139.33 157.753L147.217 157.813L146.965 160.373Z" fill="#30619E"/>
<path fill-rule="evenodd" clip-rule="evenodd" d="M146.965 160.373H139.883L139.33 157.753L147.217 157.813L146.965 160.373Z" fill="#3F8CFF"/>
<path fill-rule="evenodd" clip-rule="evenodd" d="M140.45 77.3563L139.914 77.1107C139.336 76.8465 138.72 77.3842 138.814 78.0717L139.202 80.9223C139.284 81.5288 139.845 81.9122 140.362 81.7C140.539 81.6267 140.724 81.5206 140.901 81.3659C141.269 81.0454 141.453 80.5269 141.431 80.0073L141.381 78.8264C141.354 78.1767 140.991 77.6035 140.45 77.3563Z" fill="#FFB27D"/>
</svg>
