<svg width="93" height="70" viewBox="0 0 93 70" fill="none" xmlns="http://www.w3.org/2000/svg">
<path fill-rule="evenodd" clip-rule="evenodd" d="M77.0041 22.75C78.4423 22.75 79.6081 23.8469 79.6081 25.2C79.6081 26.5531 78.4423 27.65 77.0041 27.65H62.1241C63.5623 27.65 64.7281 28.7469 64.7281 30.1C64.7281 31.4531 63.5623 32.55 62.1241 32.55H70.3081C71.7463 32.55 72.9121 33.6469 72.9121 35C72.9121 36.3531 71.7463 37.45 70.3081 37.45H66.5234C64.7099 37.45 63.2401 38.5469 63.2401 39.9C63.2401 40.8021 63.9841 41.6187 65.4721 42.35C66.9103 42.35 68.0761 43.4469 68.0761 44.8C68.0761 46.1531 66.9103 47.25 65.4721 47.25H34.5961C33.158 47.25 31.9921 46.1531 31.9921 44.8C31.9921 43.4469 33.158 42.35 34.5961 42.35H20.0881C18.65 42.35 17.4841 41.2531 17.4841 39.9C17.4841 38.5469 18.65 37.45 20.0881 37.45H34.9681C36.4063 37.45 37.5721 36.3531 37.5721 35C37.5721 33.6469 36.4063 32.55 34.9681 32.55H25.6681C24.23 32.55 23.0641 31.4531 23.0641 30.1C23.0641 28.7469 24.23 27.65 25.6681 27.65H40.5481C39.11 27.65 37.9441 26.5531 37.9441 25.2C37.9441 23.8469 39.11 22.75 40.5481 22.75H77.0041ZM77.0041 32.55C78.4423 32.55 79.6081 33.6469 79.6081 35C79.6081 36.3531 78.4423 37.45 77.0041 37.45C75.5658 37.45 74.4001 36.3531 74.4001 35C74.4001 33.6469 75.5658 32.55 77.0041 32.55Z" fill="#0095DA" fill-opacity="0.07"/>
<path fill-rule="evenodd" clip-rule="evenodd" d="M56.9676 22.3989L60.5988 46.2816L60.927 48.6774C61.0326 49.4493 60.4625 50.147 59.6534 50.2361L38.0476 52.6133C37.2387 52.7024 36.4972 52.149 36.3914 51.3771L32.8501 25.5311C32.7972 25.1452 33.0822 24.7963 33.4867 24.7518C33.4893 24.7515 33.4918 24.7512 33.4944 24.751L35.287 24.5719" fill="white"/>
<path d="M57.5439 22.3203C57.495 22.0017 57.1984 21.7788 56.8803 21.8223C56.5623 21.866 56.3437 22.1596 56.3921 22.4781L56.9677 22.3992L57.5439 22.3203ZM60.5989 46.2819L61.176 46.2115C61.1755 46.2086 61.1751 46.2058 61.1746 46.2029L60.5989 46.2819ZM35.3538 25.1514C35.6733 25.1195 35.9025 24.8343 35.8658 24.5143C35.829 24.1944 35.5401 23.9608 35.2206 23.9928L35.2872 24.5721L35.3538 25.1514ZM36.7036 23.9762C36.3841 24.0085 36.1552 24.294 36.1923 24.6139C36.2294 24.9338 36.5184 25.1671 36.8379 25.1348L36.7707 24.5556L36.7036 23.9762ZM38.5416 24.9629C38.8611 24.9307 39.09 24.6452 39.0529 24.3253C39.0158 24.0053 38.7267 23.7721 38.4073 23.8043L38.4744 24.3836L38.5416 24.9629ZM56.9677 22.3992L56.3921 22.4781L60.0232 46.3608L60.5989 46.2819L61.1746 46.2029L57.5439 22.3203L56.9677 22.3992ZM60.5989 46.2819L60.0219 46.3523L60.3501 48.7482L60.9272 48.6777L61.5038 48.6072L61.176 46.2115L60.5989 46.2819ZM60.9272 48.6777L60.3501 48.7482C60.4083 49.1719 60.0953 49.6012 59.5815 49.6577L59.6536 50.2364L59.7261 50.815C60.8305 50.6937 61.6573 49.7268 61.5038 48.6072L60.9272 48.6777ZM59.6536 50.2364L59.5815 49.6577L37.9755 52.0349L38.0478 52.6136L38.1202 53.1922L59.7261 50.815L59.6536 50.2364ZM38.0478 52.6136L37.9755 52.0349C37.4574 52.0918 37.0275 51.7372 36.9685 51.3069L36.3915 51.3774L35.8146 51.4478C35.9672 52.5608 37.0203 53.3136 38.1202 53.1922L38.0478 52.6136ZM36.3915 51.3774L36.9685 51.3069L33.4272 25.4609L32.8502 25.5314L32.2733 25.6018L35.8146 51.4478L36.3915 51.3774ZM32.8502 25.5314L33.4272 25.4609C33.4219 25.4228 33.45 25.3428 33.5592 25.3307L33.4869 24.752L33.4145 24.1733C32.7147 24.2503 32.1728 24.8681 32.2733 25.6018L32.8502 25.5314ZM33.4869 24.752L33.5592 25.3307C33.5599 25.3307 33.5605 25.3306 33.5611 25.3306L33.4945 24.7512L33.4279 24.1719C33.4235 24.1723 33.419 24.1728 33.4145 24.1733L33.4869 24.752ZM33.4945 24.7512L33.5611 25.3306L35.3538 25.1514L35.2872 24.5721L35.2206 23.9928L33.4279 24.1719L33.4945 24.7512ZM36.7707 24.5556L36.8379 25.1348L38.5416 24.9629L38.4744 24.3836L38.4073 23.8043L36.7036 23.9762L36.7707 24.5556Z" fill="#0095DA"/>
<path fill-rule="evenodd" clip-rule="evenodd" d="M56.2241 23.894L59.3564 45.4133L59.6377 47.5723C59.7288 48.2676 59.2099 48.9 58.4798 48.9844L38.9712 51.238C38.2408 51.3224 37.575 50.8268 37.4842 50.1315L34.4826 27.1304C34.4159 26.6193 34.7754 26.1571 35.2857 26.0982L37.5136 25.8408" fill="#0095DA" fill-opacity="0.27"/>
<path d="M41.5419 18.0835H57.9981C58.3227 18.0835 58.6351 18.2075 58.8723 18.4303L63.6204 22.8946C63.8785 23.1372 64.0245 23.4763 64.0245 23.8311V45.0335C64.0245 45.7423 63.4521 46.3168 62.7457 46.3168H41.5419C40.8357 46.3168 40.2632 45.7423 40.2632 45.0335V19.3668C40.2632 18.6581 40.8357 18.0835 41.5419 18.0835Z" fill="white" stroke="#0095DA" stroke-width="2.5"/>
<path d="M58.2817 18.3408V22.3998C58.2817 22.9798 58.7816 23.4498 59.3977 23.4498H62.3491" stroke="#0095DA" stroke-width="2.5" stroke-linecap="round" stroke-linejoin="round"/>
<path d="M43.896 41.3002H53.568M43.896 23.4502H53.568M43.896 27.6502H59.892M43.896 32.2002H59.892M43.896 36.7502H59.892" stroke="#0095DA" stroke-opacity="0.47" stroke-width="2.5" stroke-linecap="round" stroke-linejoin="round"/>
</svg>
