<svg width="119" height="102" viewBox="0 0 119 102" fill="none" xmlns="http://www.w3.org/2000/svg">
<g clip-path="url(#clip0_4397_11525)">
<path fill-rule="evenodd" clip-rule="evenodd" d="M107.428 55.6086H103.582C103.458 55.6086 103.358 55.521 103.358 55.4126V55.1899C103.358 55.0821 103.458 54.9941 103.582 54.9941H107.428C107.551 54.9941 107.652 55.0821 107.652 55.1899V55.4126C107.652 55.521 107.551 55.6086 107.428 55.6086Z" fill="#E8E6E1"/>
<path fill-rule="evenodd" clip-rule="evenodd" d="M80.3552 56.5303C80.3552 56.5303 80.5075 61.4458 86.3361 61.4458C92.1648 61.4458 92.3171 56.5303 92.3171 56.5303H80.3552Z" fill="#DAD9D3"/>
<path fill-rule="evenodd" clip-rule="evenodd" d="M65.9407 50.0782H74.8348V48.2349H65.9407V50.0782Z" fill="#D3D1CB"/>
<path fill-rule="evenodd" clip-rule="evenodd" d="M31.6927 56.5303H25.0473C24.5976 56.5303 24.2295 56.1846 24.2295 55.7622C24.2295 55.3395 24.5976 54.9941 25.0473 54.9941H31.6927C32.1424 54.9941 32.5104 55.3395 32.5104 55.7622C32.5104 56.1846 32.1424 56.5303 31.6927 56.5303Z" fill="#E8E6E1"/>
<path fill-rule="evenodd" clip-rule="evenodd" d="M31.6927 42.3975H25.0473C24.5976 42.3975 24.2295 42.0518 24.2295 41.6294C24.2295 41.2067 24.5976 40.8613 25.0473 40.8613H31.6927C32.1424 40.8613 32.5104 41.2067 32.5104 41.6294C32.5104 42.0518 32.1424 42.3975 31.6927 42.3975Z" fill="#E8E6E1"/>
<path fill-rule="evenodd" clip-rule="evenodd" d="M31.6927 70.6623H25.0473C24.5976 70.6623 24.2295 70.3171 24.2295 69.8944C24.2295 69.4723 24.5976 69.1265 25.0473 69.1265H31.6927C32.1424 69.1265 32.5104 69.4723 32.5104 69.8944C32.5104 70.3171 32.1424 70.6623 31.6927 70.6623Z" fill="#E8E6E1"/>
<path fill-rule="evenodd" clip-rule="evenodd" d="M119 98.4672C119 100.419 92.3609 102 59.5 102C26.639 102 0 100.419 0 98.4672C0 96.5157 26.639 94.9341 59.5 94.9341C92.3609 94.9341 119 96.5157 119 98.4672Z" fill="#0095DA" fill-opacity="0.17"/>
<path fill-rule="evenodd" clip-rule="evenodd" d="M111.522 29.1867H81.3926C79.8106 29.1867 78.5156 27.9035 78.5156 26.3354V18.2126C78.5156 16.6445 79.8106 15.3613 81.3926 15.3613H111.522C113.105 15.3613 114.4 16.6445 114.4 18.2126V26.3354C114.4 27.9035 113.105 29.1867 111.522 29.1867Z" fill="#0095DA"/>
<path fill-rule="evenodd" clip-rule="evenodd" d="M105.614 19.3555H82.0872C81.8095 19.3555 81.582 19.1317 81.582 18.8584V18.3164C81.582 18.043 81.8095 17.8193 82.0872 17.8193H105.614C105.891 17.8193 106.118 18.043 106.118 18.3164V18.8584C106.118 19.1317 105.891 19.3555 105.614 19.3555Z" fill="#30619E"/>
<path fill-rule="evenodd" clip-rule="evenodd" d="M98.2502 23.042H82.0895C81.8107 23.042 81.582 22.8183 81.582 22.545V22.0026C81.582 21.7293 81.8107 21.5059 82.0895 21.5059H98.2502C98.5296 21.5059 98.7577 21.7293 98.7577 22.0026V22.545C98.7577 22.8183 98.5296 23.042 98.2502 23.042Z" fill="#30619E"/>
<path fill-rule="evenodd" clip-rule="evenodd" d="M93.9545 26.729H82.0913C81.8113 26.729 81.582 26.5056 81.582 26.232V25.6899C81.582 25.4166 81.8113 25.1929 82.0913 25.1929H93.9545C94.2345 25.1929 94.4638 25.4166 94.4638 25.6899V26.232C94.4638 26.5056 94.2345 26.729 93.9545 26.729Z" fill="#30619E"/>
<path fill-rule="evenodd" clip-rule="evenodd" d="M108.37 26.729H96.5066C96.2266 26.729 95.9973 26.5056 95.9973 26.232V25.6899C95.9973 25.4166 96.2266 25.1929 96.5066 25.1929H108.37C108.65 25.1929 108.878 25.4166 108.878 25.6899V26.232C108.878 26.5056 108.65 26.729 108.37 26.729Z" fill="#30619E"/>
<path fill-rule="evenodd" clip-rule="evenodd" d="M105.313 19.3555H94.8996C94.7713 18.8418 94.626 18.329 94.4639 17.8193H105.313C105.587 17.8193 105.812 18.043 105.812 18.3164V18.8584C105.812 19.1317 105.587 19.3555 105.313 19.3555Z" fill="#E1EEFF"/>
<path fill-rule="evenodd" clip-rule="evenodd" d="M97.9579 23.042H95.5739C95.5266 22.5296 95.463 22.0174 95.3843 21.5059H97.9579C98.2292 21.5059 98.4509 21.7293 98.4509 22.0026V22.545C98.4509 22.8183 98.2292 23.042 97.9579 23.042Z" fill="#E1EEFF"/>
<path fill-rule="evenodd" clip-rule="evenodd" d="M108.37 26.729H96.5066C96.2266 26.729 95.9973 26.5056 95.9973 26.232V25.6899C95.9973 25.4166 96.2266 25.1929 96.5066 25.1929H108.37C108.65 25.1929 108.878 25.4166 108.878 25.6899V26.232C108.878 26.5056 108.65 26.729 108.37 26.729Z" fill="#E1EEFF"/>
<path fill-rule="evenodd" clip-rule="evenodd" d="M87.486 32.8734H53.2898C50.9701 32.8734 49.072 30.9632 49.072 28.6281V16.5344C49.072 14.1992 50.9701 12.2891 53.2898 12.2891H87.486C89.8053 12.2891 91.7035 14.1992 91.7035 16.5344V28.6281C91.7035 30.9632 89.8053 32.8734 87.486 32.8734Z" fill="#30619E"/>
<path fill-rule="evenodd" clip-rule="evenodd" d="M88.5116 17.8191H54.1041C53.6983 17.8191 53.366 17.5058 53.366 17.1233V16.3643C53.366 15.9814 53.6983 15.6685 54.1041 15.6685H88.5116C88.9182 15.6685 89.2501 15.9814 89.2501 16.3643V17.1233C89.2501 17.5058 88.9182 17.8191 88.5116 17.8191Z" fill="#30619E"/>
<path fill-rule="evenodd" clip-rule="evenodd" d="M77.773 23.3493H54.109C53.7005 23.3493 53.366 23.0364 53.366 22.6538V21.8945C53.366 21.5119 53.7005 21.1987 54.109 21.1987H77.773C78.1813 21.1987 78.5156 21.5119 78.5156 21.8945V22.6538C78.5156 23.0364 78.1813 23.3493 77.773 23.3493Z" fill="#30619E"/>
<path fill-rule="evenodd" clip-rule="evenodd" d="M71.3353 28.8796H54.1053C53.6988 28.8796 53.366 28.5666 53.366 28.1838V27.4248C53.366 27.0422 53.6988 26.729 54.1053 26.729H71.3353C71.7425 26.729 72.075 27.0422 72.075 27.4248V28.1838C72.075 28.5666 71.7425 28.8796 71.3353 28.8796Z" fill="#30619E"/>
<path fill-rule="evenodd" clip-rule="evenodd" d="M90.0386 28.8796H75.5795C75.17 28.8796 74.8352 28.5666 74.8352 28.1838V27.4248C74.8352 27.0422 75.17 26.729 75.5795 26.729H90.0386C90.4481 26.729 90.7835 27.0422 90.7835 27.4248V28.1838C90.7835 28.5666 90.4481 28.8796 90.0386 28.8796Z" fill="#30619E"/>
<path fill-rule="evenodd" clip-rule="evenodd" d="M66.1324 64.825H49.7999C48.725 64.825 47.8452 63.9392 47.8452 62.8565V38.2216C47.8452 37.1392 48.725 36.2529 49.7999 36.2529H66.1324C67.2081 36.2529 68.0878 37.1392 68.0878 38.2216V62.8565C68.0878 63.9392 67.2081 64.825 66.1324 64.825Z" fill="#30619E"/>
<path fill-rule="evenodd" clip-rule="evenodd" d="M66.1324 65.1321H49.7999C48.725 65.1321 47.8452 64.2399 47.8452 63.1484V40.0699C48.224 39.8236 48.6023 39.5754 48.9793 39.3252C49.6781 40.4259 50.4497 41.4565 51.2848 42.4147H50.549C50.3508 42.4147 50.1885 42.5798 50.1885 42.7809V43.3242C50.1885 43.5257 50.3508 43.6901 50.549 43.6901H52.476C53.1143 44.3282 53.783 44.928 54.4779 45.4883H50.549C50.3508 45.4883 50.1885 45.6527 50.1885 45.8541V46.3977C50.1885 46.5989 50.3508 46.7636 50.549 46.7636H56.2055C57.2074 47.4391 58.2512 48.0389 59.3313 48.5615H58.264C58.0658 48.5615 57.9035 48.7262 57.9035 48.9274V49.4709C57.9035 49.6721 58.0658 49.8365 58.264 49.8365H62.4988C64.3083 50.4261 66.1838 50.8102 68.0878 50.9759V63.1484C68.0878 63.7686 67.8037 64.3238 67.3609 64.6884C67.0249 64.9657 66.5973 65.1321 66.1324 65.1321Z" fill="#0095DA"/>
<path fill-rule="evenodd" clip-rule="evenodd" d="M65.5777 40.5541H50.6614C50.462 40.5541 50.2988 40.3954 50.2988 40.2015V39.678C50.2988 39.4839 50.462 39.3252 50.6614 39.3252H65.5777C65.7772 39.3252 65.9406 39.4839 65.9406 39.678V40.2015C65.9406 40.3954 65.7772 40.5541 65.5777 40.5541Z" fill="#F8F6F4"/>
<path fill-rule="evenodd" clip-rule="evenodd" d="M60.9723 43.6264H50.6663C50.4643 43.6264 50.2988 43.468 50.2988 43.2738V42.7504C50.2988 42.5565 50.4643 42.3975 50.6663 42.3975H60.9723C61.1747 42.3975 61.3398 42.5565 61.3398 42.7504V43.2738C61.3398 43.468 61.1747 43.6264 60.9723 43.6264Z" fill="#E1EEFF"/>
<path fill-rule="evenodd" clip-rule="evenodd" d="M65.5777 46.6986H50.6614C50.462 46.6986 50.2988 46.5399 50.2988 46.346V45.8223C50.2988 45.6281 50.462 45.4697 50.6614 45.4697H65.5777C65.7772 45.4697 65.9406 45.6281 65.9406 45.8223V46.346C65.9406 46.5399 65.7772 46.6986 65.5777 46.6986Z" fill="#E1EEFF"/>
<path fill-rule="evenodd" clip-rule="evenodd" d="M56.078 49.7709H50.6537C50.4585 49.7709 50.2988 49.6122 50.2988 49.4183V48.8945C50.2988 48.7007 50.4585 48.542 50.6537 48.542H56.078C56.2731 48.542 56.4328 48.7007 56.4328 48.8945V49.4183C56.4328 49.6122 56.2731 49.7709 56.078 49.7709Z" fill="#E1EEFF"/>
<path fill-rule="evenodd" clip-rule="evenodd" d="M63.7456 49.7709H58.3214C58.1263 49.7709 57.9666 49.6124 57.9666 49.4185V48.8946C57.9666 48.7007 58.1263 48.542 58.3214 48.542H63.7456C63.941 48.542 64.1008 48.7007 64.1008 48.8946V49.4185C64.1008 49.6124 63.941 49.7709 63.7456 49.7709Z" fill="#E1EEFF"/>
<path fill-rule="evenodd" clip-rule="evenodd" d="M65.5777 52.8432H50.6614C50.462 52.8432 50.2988 52.6848 50.2988 52.4906V51.9669C50.2988 51.773 50.462 51.6143 50.6614 51.6143H65.5777C65.7772 51.6143 65.9406 51.773 65.9406 51.9669V52.4906C65.9406 52.6848 65.7772 52.8432 65.5777 52.8432Z" fill="#E1EEFF"/>
<path fill-rule="evenodd" clip-rule="evenodd" d="M65.5777 55.9159H50.6614C50.462 55.9159 50.2988 55.7572 50.2988 55.5633V55.0398C50.2988 54.8457 50.462 54.687 50.6614 54.687H65.5777C65.7772 54.687 65.9406 54.8457 65.9406 55.0398V55.5633C65.9406 55.7572 65.7772 55.9159 65.5777 55.9159Z" fill="#E1EEFF"/>
<path fill-rule="evenodd" clip-rule="evenodd" d="M62.8209 58.9884H50.6582C50.4606 58.9884 50.2988 58.8296 50.2988 58.6355V58.1119C50.2988 57.918 50.4606 57.7593 50.6582 57.7593H62.8209C63.0186 57.7593 63.1802 57.918 63.1802 58.1119V58.6355C63.1802 58.8296 63.0186 58.9884 62.8209 58.9884Z" fill="#E1EEFF"/>
<path fill-rule="evenodd" clip-rule="evenodd" d="M56.3774 62.0603H50.661C50.4618 62.0603 50.2988 61.9015 50.2988 61.7074V61.1839C50.2988 60.9899 50.4618 60.8311 50.661 60.8311H56.3774C56.5765 60.8311 56.7395 60.9899 56.7395 61.1839V61.7074C56.7395 61.9015 56.5765 62.0603 56.3774 62.0603Z" fill="#E1EEFF"/>
<path fill-rule="evenodd" clip-rule="evenodd" d="M70.5803 36.2529H47.8452L57.8865 44.2677L73.3016 50.0782V38.98C73.3016 37.4802 72.0772 36.2529 70.5803 36.2529Z" fill="#30619E"/>
<path fill-rule="evenodd" clip-rule="evenodd" d="M69.4773 42.0905H52.896C52.6484 42.0905 52.4458 41.8763 52.4458 41.6145V40.7231C52.4458 40.4612 52.6484 40.2471 52.896 40.2471H69.4773C69.7252 40.2471 69.9276 40.4612 69.9276 40.7231V41.6145C69.9276 41.8763 69.7252 42.0905 69.4773 42.0905Z" fill="#F8F6F4"/>
<path fill-rule="evenodd" clip-rule="evenodd" d="M77.9019 57.9811V41.8691C77.9019 40.6393 78.9005 39.6328 80.1209 39.6328H107.886C109.107 39.6328 110.106 40.6393 110.106 41.8691V57.9811C110.106 59.2112 109.107 60.2172 107.886 60.2172H80.1209C78.9005 60.2172 77.9019 59.2112 77.9019 57.9811Z" fill="#0D7BAE"/>
<path fill-rule="evenodd" clip-rule="evenodd" d="M82.8093 52.758V36.646C82.8093 35.4158 83.808 34.4097 85.0283 34.4097H112.794C114.015 34.4097 115.013 35.4158 115.013 36.646V52.758C115.013 53.9881 114.015 54.994 112.794 54.994H85.0283C83.808 54.994 82.8093 53.9881 82.8093 52.758Z" fill="#30619E"/>
<path fill-rule="evenodd" clip-rule="evenodd" d="M112.911 54.9433H92.151C92.2111 54.1522 92.2746 53.4253 92.333 52.7546H98.7281C99.1469 52.7546 99.4887 52.412 99.4887 51.993V44.4103C99.4887 43.9912 99.1469 43.6486 98.7281 43.6486H94.916C95.1114 43.4296 95.3016 43.2013 95.4876 42.9626C95.8703 42.4385 96.2401 41.8698 96.4723 41.1423C96.5861 40.7797 96.6648 40.3675 96.6391 39.9106C96.6257 39.6832 96.582 39.4467 96.5056 39.216C96.4671 39.1007 96.4216 38.9874 96.3673 38.878L96.253 38.6546C95.6918 37.5578 95.0554 36.4979 94.3286 35.5028C94.181 35.2985 94.0316 35.0957 93.8788 34.8948C93.9441 34.7335 94.0071 34.5722 94.0684 34.4097H112.911C114.136 34.4097 115.137 35.4134 115.137 36.6405V52.7128C115.137 53.9399 114.136 54.9433 112.911 54.9433ZM101.222 47.2079C101.222 47.7544 101.668 48.2018 102.214 48.2018H111.318C111.864 48.2018 112.31 47.7544 112.31 47.2079V37.3154C112.31 36.7689 111.864 36.3215 111.318 36.3215H102.214C101.668 36.3215 101.222 36.7689 101.222 37.3154V47.2079ZM91.0671 44.076C91.0432 44.0468 90.9971 44.0299 90.9446 44.0299C90.9336 44.0299 90.9231 44.0306 90.912 44.0321L90.9003 44.0336C90.7177 42.9512 90.5701 41.9614 90.4768 40.8747C91.3419 39.7426 92.1072 38.5437 92.7676 37.2933C93.3427 38.0681 93.8829 38.8697 94.3869 39.694L94.4878 39.8581L94.5263 39.9259C94.5496 39.9736 94.5677 40.0286 94.58 40.0955C94.6068 40.2286 94.6033 40.412 94.5607 40.6185C94.4738 41.0329 94.2685 41.5153 94.0031 41.9761C93.7446 42.4459 93.4314 42.9098 93.0901 43.3592C93.019 43.4557 92.9461 43.5522 92.8714 43.6486H91.7502C91.4516 43.6486 91.1914 43.8234 91.0671 44.076Z" fill="#0095DA"/>
<path fill-rule="evenodd" clip-rule="evenodd" d="M101.211 47.5396V37.5625C101.211 37.0112 101.656 36.5601 102.2 36.5601H111.265C111.808 36.5601 112.253 37.0112 112.253 37.5625V47.5396C112.253 48.0908 111.808 48.542 111.265 48.542H102.2C101.656 48.542 101.211 48.0908 101.211 47.5396Z" fill="#30619E"/>
<path fill-rule="evenodd" clip-rule="evenodd" d="M111.265 48.542H102.2C101.656 48.542 101.211 48.0908 101.211 47.5396V37.5625C101.211 37.0112 101.656 36.5601 102.2 36.5601H111.265C111.808 36.5601 112.253 37.0112 112.253 37.5625V47.5396C112.253 48.0908 111.808 48.542 111.265 48.542Z" fill="#FCEDFF"/>
<path fill-rule="evenodd" clip-rule="evenodd" d="M91.0903 52.3795V44.7045C91.0903 44.2803 91.4362 43.9336 91.8586 43.9336H98.9093C99.3323 43.9336 99.6776 44.2803 99.6776 44.7045V52.3795C99.6776 52.8037 99.3323 53.1505 98.9093 53.1505H91.8586C91.4362 53.1505 91.0903 52.8037 91.0903 52.3795Z" fill="#30619E"/>
<path fill-rule="evenodd" clip-rule="evenodd" d="M98.7512 53.0396H92.3562C92.6362 49.8084 92.7989 47.8729 91.9601 46.2313C92.2418 46.1595 92.5586 46.0402 92.8094 45.8439L92.81 45.8449C93.5887 45.2777 94.2922 44.6562 94.9386 43.9336H98.7512C99.1695 43.9336 99.5119 44.2762 99.5119 44.6952V52.278C99.5119 52.697 99.1695 53.0396 98.7512 53.0396ZM92.2774 44.694L91.1965 44.5167L91.095 44.3671C91.0938 44.3649 91.0921 44.3628 91.0903 44.3609C91.2146 44.1084 91.4748 43.9336 91.7734 43.9336H92.894C92.6951 44.1913 92.4863 44.447 92.2774 44.694Z" fill="#FCEDFF"/>
<path fill-rule="evenodd" clip-rule="evenodd" d="M59.5 7.9878H80.969V4.91553H59.5V7.9878Z" fill="#30619E"/>
<path fill-rule="evenodd" clip-rule="evenodd" d="M22.6957 30.3942C22.4321 30.9994 22.1388 31.6759 21.8827 32.3292C21.6239 32.9897 21.3642 33.6505 21.1329 34.3168C20.6583 35.6448 20.2542 36.9904 19.9922 38.3101L19.9046 38.8025L19.8739 38.9896C19.8645 39.0403 19.8637 39.1104 19.8564 39.17C19.8426 39.4318 19.8483 39.7486 19.8751 40.0728C19.9317 40.7252 20.0334 41.4221 20.1619 42.1209C20.4158 43.5193 20.7381 44.9619 21.057 46.3797L19.5134 47.0059C18.7934 45.651 18.1855 44.2761 17.6794 42.8076C17.4306 42.0724 17.2034 41.3199 17.0433 40.5032C16.9639 40.0932 16.892 39.6696 16.8736 39.1879C16.8718 39.0622 16.8652 38.9462 16.8703 38.8115C16.8751 38.6803 16.8808 38.5324 16.8917 38.4444L16.9507 37.8334C17.0439 37.0265 17.1835 36.2364 17.3638 35.4706C17.5332 34.699 17.7501 33.9497 17.9803 33.2086C18.2132 32.4676 18.4699 31.7398 18.7546 31.0241C18.8957 30.6653 19.0428 30.3099 19.195 29.9551C19.347 29.5939 19.5017 29.2598 19.6876 28.8794L22.6957 30.3942Z" fill="#ED975D"/>
<path fill-rule="evenodd" clip-rule="evenodd" d="M21.1488 45.7769L22.389 46.9819L19.6848 48.2347C19.6848 48.2347 19.0285 47.0937 19.4814 46.0618L21.1488 45.7769Z" fill="#E6776F"/>
<path fill-rule="evenodd" clip-rule="evenodd" d="M23.3093 48.8262L21.0397 49.7709L19.6289 48.2768L22.3165 47.0059L23.3093 48.8262Z" fill="#E6776F"/>
<path fill-rule="evenodd" clip-rule="evenodd" d="M73.3663 45.1626V38.7817C73.3663 37.4783 72.412 36.3828 71.1543 36.1351L72.9644 34.7168H77.4082C77.0285 35.7226 76.7899 36.6556 76.7899 36.6556L77.5955 37.0403C77.4916 37.3164 77.3896 37.5938 77.2892 37.8726C76.8733 39.0176 76.4871 40.1734 76.1698 41.3796C76.129 41.529 76.0916 41.682 76.0555 41.8363L76.0012 42.067L75.9721 42.1925C75.9604 42.252 75.9476 42.3105 75.9394 42.3714C75.8612 42.8567 75.9487 43.3947 76.1552 43.8158C76.2684 44.0443 76.3973 44.2435 76.5373 44.4193C75.4908 44.7546 74.4297 45.0013 73.3663 45.1626Z" fill="#FEFCFB"/>
<path fill-rule="evenodd" clip-rule="evenodd" d="M78.2984 32.8611H75.4482L75.7848 32.5791H78.5154C78.4419 32.6611 78.369 32.7561 78.2984 32.8611Z" fill="#F8F6F4"/>
<path fill-rule="evenodd" clip-rule="evenodd" d="M78.6111 32.6371H75.7551L80.3687 28.9449H83.7911C84.0764 29.85 84.0612 30.7677 82.7802 31.2574C81.669 31.5075 80.476 31.869 79.7358 32.1059C79.5141 32.1579 79.2732 32.239 79.0043 32.3468C78.8707 32.4006 78.7395 32.5013 78.6111 32.6371ZM86.9831 30.7062C86.5445 30.3848 86.3275 29.7166 86.23 28.9449H89.9855C90.0625 28.9449 90.1366 28.9329 90.2066 28.9108C90.1051 29.496 89.9774 30.0764 89.8251 30.6491C89.5457 30.6402 89.2272 30.634 88.8848 30.634C88.2985 30.634 87.6411 30.6521 86.9831 30.7062ZM90.458 26.8287C90.3297 26.7212 90.1652 26.6563 89.9855 26.6563H86.1898C86.2079 26.3058 86.2306 25.9835 86.2475 25.715L85.3912 26.6563H83.2282L90.0474 21.1987C90.356 22.6147 90.5053 24.0439 90.5053 25.463C90.5053 25.9193 90.489 26.3752 90.458 26.8287Z" fill="#66A4FF"/>
<path fill-rule="evenodd" clip-rule="evenodd" d="M89.9726 29.0176H86.2166C86.1238 28.2786 86.1401 27.4445 86.1769 26.729H89.9726C90.1517 26.729 90.3168 26.7938 90.4451 26.9013C90.3973 27.6012 90.3133 28.2955 90.1937 28.9834C90.1237 29.0055 90.0496 29.0176 89.9726 29.0176ZM83.7782 29.0176H80.3552L83.2153 26.729H85.3783L83.6423 28.6378C83.6919 28.7634 83.738 28.8903 83.7782 29.0176Z" fill="#E1EEFF"/>
<path fill-rule="evenodd" clip-rule="evenodd" d="M70.5339 45.777C67.5577 45.777 64.627 45.1134 61.9536 43.8584L64.0303 42.1855H69.8508C70.1028 42.1855 70.3081 41.9782 70.3081 41.7246V40.8616C70.3081 40.608 70.1028 40.4007 69.8508 40.4007H66.2458L71.3949 36.2529C72.6531 36.5077 73.608 37.6346 73.608 38.9754V45.5391C72.5837 45.6988 71.5564 45.777 70.5339 45.777Z" fill="#66A4FF"/>
<path fill-rule="evenodd" clip-rule="evenodd" d="M69.4809 42.0905H63.7939L65.9587 40.2471H69.4809C69.727 40.2471 69.9277 40.4612 69.9277 40.7231V41.6145C69.9277 41.8763 69.727 42.0905 69.4809 42.0905Z" fill="#F8F6F4"/>
<path fill-rule="evenodd" clip-rule="evenodd" d="M55.3676 36.1017H53.1741C52.8153 35.5278 52.4825 34.9312 52.177 34.3111C52.0567 34.0672 51.9418 33.8218 51.8323 33.5753L53.0925 32.5664C53.1164 32.567 53.1403 32.567 53.1643 32.567H57.0315V34.7701L55.3676 36.1017ZM57.1081 34.7087V32.567H59.784L57.1081 34.7087Z" fill="#FEFCFB"/>
<path fill-rule="evenodd" clip-rule="evenodd" d="M57.1614 34.717V32.5664H57.2381V34.6571L57.1614 34.717Z" fill="#E0DED8"/>
<path fill-rule="evenodd" clip-rule="evenodd" d="M85.2629 11.982H84.9561V11.6748C85.0599 11.776 85.162 11.8782 85.2629 11.982Z" fill="#EEEBE7"/>
<path fill-rule="evenodd" clip-rule="evenodd" d="M60.0572 32.7496H53.4377C53.4138 32.7496 53.3899 32.7496 53.366 32.749L57.9782 29.0573H64.6702L60.0572 32.7496ZM67.5297 26.7687H60.8377L64.8679 23.5425H71.5605L67.5297 26.7687ZM74.4194 21.254H67.7274L71.7577 18.0281H78.4502L74.4194 21.254ZM81.3091 15.7395H74.6172L78.928 12.2891H85.5727C85.5792 12.2964 85.5856 12.3041 85.592 12.3115L81.3091 15.7395Z" fill="#0095DA"/>
<path fill-rule="evenodd" clip-rule="evenodd" d="M78.1229 17.8191H71.4612L74.3073 15.6685H80.9689L78.1229 17.8191Z" fill="#E1EEFF"/>
<path fill-rule="evenodd" clip-rule="evenodd" d="M71.3755 23.3493H64.7139L67.5599 21.1987H74.2216L71.3755 23.3493Z" fill="#E1EEFF"/>
<path fill-rule="evenodd" clip-rule="evenodd" d="M64.6282 28.8796H57.9666L60.8132 26.729H67.4742L64.6282 28.8796Z" fill="#E1EEFF"/>
<path fill-rule="evenodd" clip-rule="evenodd" d="M54.1176 37.4819C53.8561 37.0848 53.6049 36.6741 53.366 36.2529H55.5129L54.1176 37.4819Z" fill="#66A4FF"/>
<path fill-rule="evenodd" clip-rule="evenodd" d="M57.2381 11.982H57.1614V10.1999C57.1868 10.1794 57.2123 10.1588 57.2381 10.1387V11.982Z" fill="#E0DED8"/>
<path fill-rule="evenodd" clip-rule="evenodd" d="M60.8416 11.9819H60.9186V7.68066H60.8416V11.9819Z" fill="#E0DED8"/>
<path fill-rule="evenodd" clip-rule="evenodd" d="M72.688 8.29513V7.68066H73.3017L72.688 8.29513Z" fill="#F8F6F4"/>
<path fill-rule="evenodd" clip-rule="evenodd" d="M50.3117 26.4216C50.3031 26.1777 50.2988 25.9334 50.2988 25.6902C50.3006 20.7816 52.0686 15.9966 55.2844 12.2891H67.781L63.4836 15.7654H54.2612C53.8561 15.7654 53.5244 16.1009 53.5244 16.5113V17.3251C53.5244 17.7352 53.8561 18.0711 54.2612 18.0711H60.634L56.6161 21.3212H54.2612C53.8561 21.3212 53.5244 21.657 53.5244 22.0671V22.8812C53.5244 23.1551 53.6724 23.3959 53.8916 23.5256L50.3117 26.4216Z" fill="#0095DA"/>
<path fill-rule="evenodd" clip-rule="evenodd" d="M60.5909 17.8191H54.1147C53.703 17.8191 53.366 17.5058 53.366 17.1233V16.3643C53.366 15.9814 53.703 15.6685 54.1147 15.6685H63.4872L60.5909 17.8191Z" fill="#E1EEFF"/>
<path fill-rule="evenodd" clip-rule="evenodd" d="M53.7302 23.3493C53.5127 23.2228 53.366 22.9878 53.366 22.7206V21.9264C53.366 21.5264 53.695 21.1987 54.0968 21.1987H56.433L53.7302 23.3493Z" fill="#E1EEFF"/>
<path fill-rule="evenodd" clip-rule="evenodd" d="M79.1287 39.94C79.32 39.4281 79.5177 38.9157 79.7178 38.4038C79.7884 38.6977 79.8648 39.0072 79.9471 39.3328C79.9797 39.4639 80.0142 39.5977 80.0492 39.734H80.0398C79.7143 39.734 79.4052 39.8079 79.1287 39.94Z" fill="#FEFCFB"/>
<path fill-rule="evenodd" clip-rule="evenodd" d="M78.3673 43.934C78.1375 43.6966 77.9718 43.4545 77.9252 43.2701C77.8919 43.1377 77.8972 43.0554 77.9246 42.947L78.0261 42.6012C78.0658 42.462 78.1072 42.3224 78.1527 42.1812C78.3977 41.4074 78.6637 40.6297 78.9425 39.8515C79.2237 39.7113 79.5375 39.6328 79.8683 39.6328H79.8776C79.9989 40.1275 80.1319 40.6562 80.2778 41.2192C80.2941 41.2824 80.311 41.3466 80.3273 41.4108C80.4329 41.8142 80.5438 42.2342 80.6622 42.6741C80.1558 42.9981 79.6308 43.3009 79.0878 43.581C78.8492 43.7041 78.6083 43.8221 78.3673 43.934Z" fill="#0095DA"/>
<path fill-rule="evenodd" clip-rule="evenodd" d="M73.2609 7.68095H60.7268C60.9426 7.56312 61.1602 7.44905 61.3819 7.33808C64.2472 5.90304 67.287 5.22314 70.2801 5.22314C72.0336 5.22314 73.7707 5.45633 75.4484 5.90773L73.2609 7.68095Z" fill="#66A4FF"/>
<path fill-rule="evenodd" clip-rule="evenodd" d="M51.8069 33.7659C51.5901 33.278 51.3946 32.7867 51.2192 32.2912C51.7756 32.5788 52.4034 32.7459 53.0671 32.757L51.8069 33.7659ZM69.5387 12.2971H67.6096L69.5387 10.7529V12.2971Z" fill="#FBFAF8"/>
<path fill-rule="evenodd" clip-rule="evenodd" d="M53.2821 32.749C52.6184 32.7379 51.9906 32.5708 51.4342 32.2832C50.7417 30.3249 50.3706 28.3144 50.2988 26.3165L53.8903 23.4421C53.9994 23.506 54.1261 23.5425 54.2611 23.5425H64.7844L60.7536 26.7687H54.2611C53.8547 26.7687 53.5219 27.1021 53.5219 27.5092V28.3169C53.5219 28.7243 53.8547 29.0573 54.2611 29.0573H57.8942L53.2821 32.749ZM67.6433 21.254H56.6236L60.6544 18.0281H71.6741L67.6433 21.254ZM74.5331 15.7395H63.5133L67.8241 12.2891H78.8439L74.5331 15.7395Z" fill="#87B8FF"/>
<path fill-rule="evenodd" clip-rule="evenodd" d="M71.6853 17.8191H60.7268L63.57 15.6685H74.5285L71.6853 17.8191Z" fill="white"/>
<path fill-rule="evenodd" clip-rule="evenodd" d="M64.9117 23.3493H54.3516C54.2162 23.3493 54.0891 23.3149 53.9795 23.2549L56.7224 21.1987H67.7811L64.9117 23.3493Z" fill="white"/>
<path fill-rule="evenodd" clip-rule="evenodd" d="M57.8163 28.8796H54.1183C53.7047 28.8796 53.366 28.5666 53.366 28.1838V27.4248C53.366 27.0422 53.7047 26.729 54.1183 26.729H60.7268L57.8163 28.8796Z" fill="white"/>
<path fill-rule="evenodd" clip-rule="evenodd" d="M79.7423 7.98792H73.3018L75.4344 6.14453C76.9307 6.57328 78.3768 7.19197 79.7423 7.98792Z" fill="#87B8FF"/>
<path fill-rule="evenodd" clip-rule="evenodd" d="M75.575 32.7272H59.8069L64.4199 29.0349H71.3207C71.7279 29.0349 72.0604 28.7018 72.0604 28.2944V27.4867C72.0604 27.0796 71.7279 26.7463 71.3207 26.7463H67.2788L71.3102 23.5201H77.6347C78.0413 23.5201 78.3738 23.1871 78.3738 22.78V21.972C78.3738 21.5649 78.0413 21.2315 77.6347 21.2315H74.1691L78.1994 18.0056H88.5477C88.6475 18.0056 88.7426 17.9857 88.8295 17.9494C89.2775 19.0462 89.6222 20.1636 89.8672 21.2887L83.048 26.7463H75.4501C75.0436 26.7463 74.7111 27.0796 74.7111 27.4867V28.2944C74.7111 28.7018 75.0436 29.0349 75.4501 29.0349H80.1886L75.575 32.7272ZM87.7544 15.7171H81.0589L85.3417 12.2891C86.2482 13.3262 87.0585 14.471 87.7544 15.7171Z" fill="#87B8FF"/>
<path fill-rule="evenodd" clip-rule="evenodd" d="M88.6592 17.8191H78.2087L81.0962 15.6685H87.8582C88.0297 15.9546 88.1942 16.2462 88.3517 16.5435C88.5658 16.948 88.763 17.3554 88.9432 17.7663C88.8557 17.8003 88.7595 17.8191 88.6592 17.8191Z" fill="white"/>
<path fill-rule="evenodd" clip-rule="evenodd" d="M77.7775 23.3493H71.4612L74.3166 21.1987H77.7775C78.1835 21.1987 78.5154 21.5119 78.5154 21.8945V22.6538C78.5154 23.0364 78.1835 23.3493 77.7775 23.3493Z" fill="white"/>
<path fill-rule="evenodd" clip-rule="evenodd" d="M71.3328 28.8796H64.4075L67.2763 26.729H71.3328C71.7411 26.729 72.0748 27.0422 72.0748 27.4248V28.1838C72.0748 28.5666 71.7411 28.8796 71.3328 28.8796Z" fill="white"/>
<path fill-rule="evenodd" clip-rule="evenodd" d="M80.2754 28.8796H75.569C75.1654 28.8796 74.8352 28.5666 74.8352 28.1838V27.4248C74.8352 27.0422 75.1654 26.729 75.569 26.729H83.1156L80.2754 28.8796Z" fill="white"/>
<path fill-rule="evenodd" clip-rule="evenodd" d="M61.7436 43.7997C60.7408 43.3324 59.7754 42.7815 58.8579 42.1514H63.8028L61.7436 43.7997ZM66.0002 40.3928H56.6481C55.6719 39.4964 54.7769 38.4954 53.9795 37.394L55.405 36.2529H70.5712C70.7543 36.2529 70.9334 36.2713 71.1067 36.3061L66.0002 40.3928Z" fill="#87B8FF"/>
<path fill-rule="evenodd" clip-rule="evenodd" d="M63.7788 42.0905H58.9132C58.1534 41.5343 57.4262 40.9189 56.7397 40.2471H65.9406L63.7788 42.0905Z" fill="white"/>
<path fill-rule="evenodd" clip-rule="evenodd" d="M82.7125 2.32184C81.715 1.78296 80.6732 1.30491 79.6139 0.901206L79.7229 0.614258C80.7939 1.02256 81.8492 1.50614 82.8584 2.05147L82.7125 2.32184ZM49.0991 9.85849L48.8518 9.67659C51.3374 6.29307 54.6648 3.50897 58.4739 1.62535L58.6098 1.90062C54.8442 3.76274 51.5554 6.5146 49.0991 9.85849ZM45.3754 17.0301L45.085 16.9315C45.591 15.4362 46.2284 13.9833 46.9797 12.6137L47.2484 12.7618C46.5059 14.1158 45.8759 15.5517 45.3754 17.0301Z" fill="#3F8CFF"/>
<path fill-rule="evenodd" clip-rule="evenodd" d="M45.3732 16.8974L45.085 16.8013C45.5872 15.345 46.2196 13.93 46.9652 12.5962L47.2319 12.7404C46.495 14.059 45.8699 15.4576 45.3732 16.8974Z" fill="#3F8CFF"/>
<path fill-rule="evenodd" clip-rule="evenodd" d="M49.3207 9.83132L49.072 9.64808C51.572 6.23905 54.9188 3.43395 58.7504 1.53613L58.8863 1.81348C56.5414 2.97521 54.3804 4.48053 52.4879 6.25857C51.324 7.35184 50.2616 8.54859 49.3207 9.83132Z" fill="#3F8CFF"/>
<path fill-rule="evenodd" clip-rule="evenodd" d="M82.9645 2.45763C81.9274 1.8759 80.8435 1.35983 79.7422 0.924027L79.8559 0.614258C80.9695 1.05503 82.0668 1.57707 83.1162 2.16577L82.9645 2.45763Z" fill="#3F8CFF"/>
<path fill-rule="evenodd" clip-rule="evenodd" d="M20.1881 54.7239C19.9663 54.7239 19.7378 54.711 19.5029 54.6849C19.0413 54.6281 18.5607 54.5325 18.0117 54.2981C16.5282 53.6646 15.6397 52.2181 15.6418 50.6986C15.6421 50.3788 15.682 50.0559 15.7639 49.7367C15.912 49.1576 16.1286 48.7173 16.3641 48.3158C16.6027 47.92 16.8659 47.5741 17.1533 47.2776C17.7243 46.6767 18.388 46.2641 19.0971 45.943C19.8749 45.5673 20.6496 45.1848 21.4262 44.806C21.3781 45.6699 21.3461 46.3126 21.3624 46.6773C23.1293 46.6773 29.7826 46.6773 33.4136 46.6773C33.8185 43.6748 34.0745 41.1214 34.2215 38.9542C36.2706 38.0764 38.3312 37.2233 40.4067 36.3996C42.4189 35.6051 44.4423 34.8327 46.4914 34.1126C45.4841 31.302 45.0001 28.4052 44.9996 25.5412C44.9971 16.1348 50.2064 7.08654 59.1961 2.64125C62.821 0.849179 66.6646 0 70.451 0C79.8403 0 88.8726 5.22197 93.3101 14.2265C95.1015 17.8611 95.9485 21.7159 95.9473 25.5117C95.9473 26.8306 95.8441 28.1422 95.6428 29.435C95.4561 30.6322 95.1855 31.8139 94.8331 32.9697C94.6161 33.6803 94.3688 34.3811 94.0917 35.0702C93.964 34.9021 93.8339 34.7356 93.7015 34.5713L94.0701 34.288C94.0701 34.288 92.2466 30.875 91.0496 30.7604C91.0327 30.7589 91.0164 30.7576 91.0001 30.7564C90.8636 30.7459 90.4564 30.7174 89.8935 30.6995C90.3415 29.0165 90.5731 27.273 90.5736 25.5135C90.5742 22.9675 90.0906 20.3874 89.078 17.9099C88.8995 17.4727 88.7041 17.0392 88.4923 16.6088C88.3366 16.2923 88.1732 15.9821 88.0035 15.6776C86.5866 13.1399 84.6907 11.0203 82.4869 9.37691C81.7023 8.79199 80.8786 8.26722 80.0235 7.80546C78.6258 7.0509 77.1453 6.4644 75.6141 6.05792C73.9393 5.61307 72.2056 5.38327 70.4551 5.38327C67.4684 5.38327 64.4345 6.05335 61.5744 7.46751C61.3533 7.5769 61.1357 7.68933 60.9205 7.80546C59.6331 8.5007 58.4501 9.31917 57.3799 10.2378C57.3541 10.2596 57.3286 10.2817 57.3032 10.3038C52.8591 14.1574 50.3702 19.7573 50.368 25.5285C50.3672 28.5234 51.0357 31.5647 52.4487 34.4317C55.9509 41.5383 63.0776 45.6594 70.4871 45.6594C72.5551 45.6594 74.6451 45.3384 76.6839 44.6717C77.0642 45.1596 77.5245 45.4714 77.9556 45.7359C79.1724 46.418 80.3816 46.751 81.6626 46.9483L81.7997 46.3817C81.8085 46.4177 81.847 46.4441 81.8977 46.4533C81.8353 46.8653 81.7321 47.5634 81.602 48.4721C80.4026 49.0561 79.18 49.537 77.9439 49.9186C77.7496 49.9785 77.5554 50.0359 77.36 50.0909C77.0846 50.1689 76.8076 50.2421 76.5311 50.31C75.9868 50.4439 75.442 50.5591 74.8954 50.6559C73.4312 50.9149 71.9595 51.0418 70.4965 51.0415C69.7702 51.0415 69.0457 51.0104 68.3253 50.9484C66.4085 50.7837 64.5191 50.4018 62.6967 49.8156C58.404 48.4352 54.4778 45.9203 51.4022 42.4369C50.5613 41.4842 49.7841 40.4596 49.0802 39.3653C48.7005 39.6141 48.3196 39.8608 47.938 40.1056C46.4929 41.032 45.0333 41.9294 43.5672 42.8133C40.8907 44.4201 38.1856 45.9685 35.459 47.4739C34.9067 47.7759 34.3542 48.0767 33.801 48.3765C33.563 47.3114 33.4136 46.6773 33.4136 46.6773H29.1388C29.1388 46.6773 24.1694 46.6773 21.3624 46.6773C21.3624 48.9238 21.6897 51.5721 22.0583 54.3982C21.6624 54.5393 21.2474 54.6413 20.8055 54.6889C20.6055 54.7123 20.3997 54.7239 20.1881 54.7239ZM81.6376 45.6898C80.6786 45.2828 79.7079 44.8044 78.9665 44.2207C78.8446 44.1257 78.7291 44.025 78.627 43.9233C78.8749 43.813 79.1222 43.6966 79.3678 43.5752C79.9266 43.299 80.4662 43.0004 80.9871 42.6808C81.2246 43.5263 81.4888 44.4419 81.7828 45.4321L81.7519 45.4361C81.6685 45.4469 81.6061 45.4963 81.6061 45.5482C81.6061 45.5531 81.6066 45.5578 81.6078 45.5626L81.6376 45.6898ZM90.6891 41.0501C90.6197 40.2347 90.58 39.3646 90.58 38.36C90.58 37.7123 90.5964 37.0085 90.6308 36.2272C90.8746 36.4675 91.0426 36.6152 91.0426 36.6152L91.0432 36.6146L91.0916 36.5774L91.8243 36.0143C92.1154 36.3587 92.4041 36.7077 92.6777 37.0687C92.7792 37.2015 92.8801 37.3348 92.9799 37.4687C92.3195 38.7191 91.5548 39.9179 90.6891 41.0501Z" fill="#FDC748"/>
<path fill-rule="evenodd" clip-rule="evenodd" d="M25.0381 20.5845C25.3579 22.2178 25.6767 25.211 24.5361 26.3009C24.5361 26.3009 24.9817 27.958 28.0111 27.958C31.342 27.958 29.603 26.3012 29.603 26.3012C27.7851 25.866 27.8318 24.5147 28.1485 23.2454L25.0381 20.5845Z" fill="#FFB27D"/>
<path fill-rule="evenodd" clip-rule="evenodd" d="M23.2574 27.3436C23.6277 26.7573 23.0027 25.3376 23.0027 25.3376C23.0027 25.3376 28.5252 23.9273 30.7814 26.0898C31.2497 26.5384 30.7296 27.1963 30.7296 27.1963L23.2574 27.3436Z" fill="#30619E"/>
<path fill-rule="evenodd" clip-rule="evenodd" d="M30.975 26.4219C30.622 26.3731 30.2501 26.3297 29.8737 26.2983C29.2661 26.2475 28.4857 26.2281 27.6684 26.2281C26.6315 26.2281 25.5355 26.2595 24.6588 26.298C24.2214 26.3174 23.7791 26.3508 23.3551 26.3914C23.2787 25.8574 23.0027 25.293 23.0027 25.293C23.0027 25.293 24.7719 24.8857 26.7165 24.8857C28.2078 24.8857 29.8021 25.1251 30.7812 25.9707C30.9266 26.0963 30.9769 26.2398 30.9769 26.3782C30.9766 26.3931 30.9763 26.4076 30.975 26.4219Z" fill="#0095DA"/>
<path fill-rule="evenodd" clip-rule="evenodd" d="M13.3591 89.5252C13.5836 89.7831 13.9408 90.0733 14.0954 90.0363C14.1102 90.0328 14.1556 90.0223 14.1739 89.9232C14.1819 89.8816 14.1718 89.8423 14.1433 89.8054C14.0215 89.6453 13.6109 89.5592 13.3591 89.5252ZM14.0691 90.146C13.7832 90.146 13.3268 89.6676 13.1925 89.4894L13.1882 89.4314L13.2394 89.4038C13.2714 89.4067 14.0234 89.4712 14.2283 89.7403C14.2752 89.8018 14.2924 89.8704 14.2788 89.9431C14.2534 90.0809 14.1783 90.1266 14.1197 90.1407L14.0691 90.146Z" fill="#30619E"/>
<path fill-rule="evenodd" clip-rule="evenodd" d="M13.3575 89.2739C13.6471 89.2856 14.1074 89.1783 14.1798 89.0452C14.1863 89.0335 14.2019 89.0048 14.1534 88.9538C14.1163 88.9151 14.07 88.8963 14.0114 88.8963C13.809 88.8963 13.5189 89.1244 13.3575 89.2739ZM13.395 89.3805C13.3309 89.3805 13.2741 89.3764 13.229 89.3676L13.1882 89.3313L13.2005 89.2785C13.2198 89.258 13.6731 88.7891 14.0111 88.7891C14.0991 88.7891 14.1734 88.8201 14.2307 88.8805C14.3197 88.9737 14.2957 89.0558 14.2733 89.0962C14.1721 89.2826 13.702 89.3805 13.395 89.3805Z" fill="#30619E"/>
<path fill-rule="evenodd" clip-rule="evenodd" d="M33.9517 96.8714C34.3707 96.9306 34.9405 96.9271 35.0461 96.7817C35.0595 96.7623 35.0734 96.7301 35.0353 96.6633C35.0144 96.6263 34.9801 96.6017 34.9307 96.5888C34.7004 96.5249 34.2268 96.7301 33.9517 96.8714ZM34.4704 97.0138C34.2011 97.0138 33.9232 96.9792 33.7794 96.9505L33.7371 96.9071L33.7631 96.852C33.7962 96.8327 34.5826 96.3819 34.9586 96.4851C35.0356 96.5062 35.0927 96.5484 35.1279 96.6105C35.1911 96.7207 35.1654 96.7987 35.1325 96.8438C35.039 96.9739 34.7596 97.0138 34.4704 97.0138Z" fill="#30619E"/>
<path fill-rule="evenodd" clip-rule="evenodd" d="M34.3397 95.9626C34.2722 95.9626 34.2112 95.9849 34.1544 96.0318C33.9661 96.1865 33.8858 96.5506 33.8569 96.7276C34.1345 96.5605 34.5007 96.1772 34.4759 96.0242C34.474 96.0118 34.4679 95.9737 34.3719 95.9638L34.3397 95.9626ZM33.7901 96.8771L33.7588 96.8671L33.7371 96.8185C33.7395 96.7927 33.8002 96.1854 34.0867 95.9491C34.1741 95.8776 34.2738 95.8465 34.3826 95.8577C34.5292 95.8723 34.5716 95.9468 34.5814 96.0066C34.6225 96.2622 34.0839 96.7499 33.8118 96.873L33.7901 96.8771Z" fill="#30619E"/>
<path fill-rule="evenodd" clip-rule="evenodd" d="M31.2834 96.7767H33.5147L33.7371 91.5542H31.5055L31.2834 96.7767Z" fill="#FFB27D"/>
<path fill-rule="evenodd" clip-rule="evenodd" d="M11.3479 87.8982L13.2606 89.0965L17.4819 85.6865L15.569 84.4883L11.3479 87.8982Z" fill="#FFB27D"/>
<path fill-rule="evenodd" clip-rule="evenodd" d="M13.4362 88.8812L11.485 87.2973C11.4141 87.2392 11.312 87.2381 11.2399 87.2943L9.63192 88.5459C9.46502 88.6754 9.46683 88.9275 9.63308 89.0582C10.3239 89.5993 10.6876 89.8291 11.5455 90.5255C12.0733 90.954 13.3861 92.2607 14.1151 92.8528C14.8281 93.4319 15.5302 92.8076 15.2851 92.501C14.1869 91.124 13.7434 89.9452 13.6306 89.2159C13.6101 89.0846 13.5401 88.9656 13.4362 88.8812Z" fill="#20282E"/>
<path fill-rule="evenodd" clip-rule="evenodd" d="M33.4838 96.7769H31.0114C30.919 96.7769 30.8389 96.8384 30.8189 96.9246L30.3717 98.8462C30.3252 99.0455 30.4836 99.2348 30.6971 99.2307C31.5889 99.2161 32.8776 99.1662 33.9987 99.1662C35.3093 99.1662 36.4411 99.2348 37.9782 99.2348C38.9073 99.2348 39.1655 98.3373 38.7763 98.2559C37.0053 97.8866 35.5595 97.8467 34.0289 96.9451C33.8628 96.8472 33.6791 96.7769 33.4838 96.7769Z" fill="#20282E"/>
<path fill-rule="evenodd" clip-rule="evenodd" d="M20.1633 27.2905C18.2517 28.2231 17.1753 34.3529 17.1753 34.3529L21.8466 36.253C21.8466 36.253 22.8978 33.7157 23.4984 31.0081C24.1278 28.1714 22.1178 26.3368 20.1633 27.2905Z" fill="#0A1629"/>
<path fill-rule="evenodd" clip-rule="evenodd" d="M22.4777 30.6773C21.3137 31.8853 20.7816 34.2521 20.5488 35.7913L21.6765 36.2529C21.6765 36.2529 22.6984 33.778 23.3091 31.0958C23.2094 30.4388 22.9614 30.1755 22.4777 30.6773Z" fill="#23273A"/>
<path fill-rule="evenodd" clip-rule="evenodd" d="M33.2383 27.1262C33.2383 27.1262 35.6487 29.8483 33.3721 46.699C29.7219 46.699 23.0335 46.699 21.2573 46.699C21.1741 44.8396 22.3423 35.7698 20.5488 27.0094C20.5488 27.0094 22.6253 26.5926 24.6041 26.4974C26.1522 26.4228 28.3934 26.3735 29.7543 26.4977C31.5484 26.6611 33.2383 27.1262 33.2383 27.1262Z" fill="#0A1629"/>
<path fill-rule="evenodd" clip-rule="evenodd" d="M34.0374 33.63L32.0718 30.1084C31.6917 32.0374 31.5302 33.2304 31.6104 35.1316C31.6635 36.3415 32.731 40.8215 33.6841 41.4758C33.984 38.1826 34.0701 35.6177 34.0374 33.63Z" fill="#23273A"/>
<path fill-rule="evenodd" clip-rule="evenodd" d="M34.6042 29.4941C34.9006 30.9715 35.2137 32.4832 35.5356 33.9685C35.8572 35.457 36.1951 36.9396 36.5864 38.3777C36.6876 38.7317 36.7816 39.0952 36.8931 39.4376L36.9741 39.6983L37.0144 39.8286L37.0005 39.8128C36.9771 39.7864 36.9532 39.7837 36.9714 39.811C36.9953 39.8718 37.1856 40.0037 37.4332 40.0984C37.6839 40.1957 37.9907 40.2814 38.3156 40.3464C39.6307 40.5974 41.1798 40.6335 42.6499 40.6293L42.9381 42.2801C42.531 42.4102 42.1509 42.5059 41.7524 42.5983C41.3574 42.6919 40.9586 42.7724 40.5533 42.8338C39.7428 42.9593 38.9139 43.0395 38.0292 43.0036C37.5854 42.9851 37.1265 42.9429 36.6346 42.822C36.1451 42.6952 35.6035 42.5232 35.0364 42.0781C34.7594 41.856 34.4844 41.5485 34.2883 41.1744C34.2383 41.0848 34.1953 40.9806 34.1577 40.893L33.9898 40.4616C33.8346 40.0763 33.7073 39.6968 33.5682 39.3139C33.0547 37.7864 32.6298 36.262 32.2521 34.7305C31.8803 33.1942 31.5541 31.6713 31.2834 30.1006L34.6042 29.4941Z" fill="#FFB27D"/>
<path fill-rule="evenodd" clip-rule="evenodd" d="M30.1558 28.8458C29.5309 30.938 32.0647 37.1747 32.0647 37.1747L37.1108 35.8644C37.1108 35.8644 36.917 32.6243 35.7676 30.0523C34.0335 26.1724 30.9057 26.3342 30.1558 28.8458Z" fill="#0A1629"/>
<path fill-rule="evenodd" clip-rule="evenodd" d="M42.5529 40.9267L45.085 40.8613L43.8672 43.6225C43.8672 43.6225 42.8372 43.7662 41.9907 42.3074L41.0979 41.1929L42.1246 40.9769C42.2655 40.9472 42.4089 40.9303 42.5529 40.9267Z" fill="#FFB27D"/>
<path fill-rule="evenodd" clip-rule="evenodd" d="M46.6185 41.368L45.1973 43.6264L43.8582 43.5861L45.0517 40.8613L46.6185 41.368Z" fill="#FFB27D"/>
<path fill-rule="evenodd" clip-rule="evenodd" d="M33.7371 91.5542L33.6177 94.3193H31.2834L31.4029 91.5542H33.7371Z" fill="#ED975D"/>
<path fill-rule="evenodd" clip-rule="evenodd" d="M15.31 84.4883L17.1753 85.7346L15.0536 87.56L13.1882 86.3143L15.31 84.4883Z" fill="#ED975D"/>
<path fill-rule="evenodd" clip-rule="evenodd" d="M25.1554 18.9713C25.2912 21.2222 25.2567 22.5465 26.3874 23.7025C28.0885 25.4419 30.8556 24.4132 31.3921 22.1673C31.8753 20.1456 31.5723 16.8042 29.3794 15.907C27.2189 15.0226 25.0199 16.7207 25.1554 18.9713Z" fill="#FFB27D"/>
<path fill-rule="evenodd" clip-rule="evenodd" d="M22.4602 18.5511C23.0185 20.5647 24.3336 22.8842 26.0332 23.0314C28.1454 23.2143 29.0988 21.0687 29.3765 18.8516C30.6428 17.9994 29.9774 17.0632 31.2474 16.9439C32.8754 16.7909 32.356 13.8606 30.2095 13.389C30.2095 13.389 30.928 14.7091 29.4198 14.0433C27.9118 13.3772 26.4372 13.0913 24.8098 13.257C24.8098 13.257 26.7332 14.2023 24.852 14.6241C22.9707 15.046 22.4074 16.1886 23.2734 16.8778C23.2734 16.8778 22.0923 17.2256 22.4602 18.5511Z" fill="#233862"/>
<path fill-rule="evenodd" clip-rule="evenodd" d="M28.219 19.3933C28.2558 19.9917 28.5425 20.5547 28.887 20.923C29.4053 21.4768 29.9459 21.1321 30.0374 20.457C30.1199 19.8498 29.9497 18.8297 29.3163 18.5246C28.6919 18.2238 28.1769 18.7089 28.219 19.3933Z" fill="#FFB27D"/>
<path fill-rule="evenodd" clip-rule="evenodd" d="M28.9239 46.6987C28.9239 46.6987 31.125 62.5939 29.3908 68.9619C26.6445 79.0476 16.1365 87.5599 16.1365 87.5599L12.5747 85.232C12.5747 85.232 21.5216 78.0434 22.617 69.602C23.6009 62.0183 21.1306 52.8506 21.1306 46.6987C23.9436 46.6987 28.9239 46.6987 28.9239 46.6987Z" fill="#30619E"/>
<path fill-rule="evenodd" clip-rule="evenodd" d="M17.3975 86.6384L13.8015 84.3023C16.2626 82.0484 21.9214 76.2244 22.7812 69.6389C22.9457 68.378 23.0144 67.0731 23.0144 65.7459C23.0144 61.9913 22.4659 58.0553 21.9861 54.4152C21.6138 51.5906 21.2833 48.9438 21.2833 46.6987C24.118 46.6987 29.1365 46.6987 29.1365 46.6987H25.4535C25.4535 46.6987 26.987 51.4872 28.3074 57.0015C28.4784 60.038 28.6035 63.5031 28.6035 66.7618C28.6035 68.6975 28.5595 70.5599 28.4548 72.2171C28.5478 72.006 28.6375 71.7944 28.7243 71.5816C27.1918 75.3439 24.7369 78.7832 22.4089 81.5049C20.8646 83.3105 19.376 84.7994 18.2492 85.8569C17.9348 86.1518 17.6489 86.4133 17.3975 86.6384Z" fill="#0095DA"/>
<path fill-rule="evenodd" clip-rule="evenodd" d="M29.2881 69.9011C29.2894 69.8974 29.2907 69.893 29.292 69.8887C29.2904 69.893 29.2894 69.8967 29.2881 69.9011Z" fill="#2C5B99"/>
<path fill-rule="evenodd" clip-rule="evenodd" d="M29.2893 69.5889C29.2893 69.5889 29.29 69.5871 29.2903 69.5859L29.2893 69.5889Z" fill="#2C5B99"/>
<path fill-rule="evenodd" clip-rule="evenodd" d="M29.7839 67.8972C29.8802 67.4212 29.9591 66.9065 30.0229 66.3613C30.0229 66.3607 30.0229 66.3619 30.0229 66.3613C29.9897 66.6439 29.9526 66.9188 29.9112 67.1838C29.8725 67.4294 29.8303 67.668 29.7839 67.8972Z" fill="#2C5B99"/>
<path fill-rule="evenodd" clip-rule="evenodd" d="M29.8333 55.6C28.7994 54.436 27.9097 53.7651 27.9097 53.7651C28.284 58.8951 28.5908 66.4935 28.2502 71.8919C28.7074 70.8519 29.094 69.7821 29.3915 68.6976C30.2352 65.6066 30.1462 60.2639 29.8333 55.6Z" fill="#30619E"/>
<path fill-rule="evenodd" clip-rule="evenodd" d="M28.3722 72.1991C28.4827 70.526 28.5291 68.6455 28.5291 66.6917C28.5291 63.4013 28.397 59.9028 28.2166 56.8374C29.0263 60.0734 29.7602 63.5566 30.0567 66.4824C29.9463 67.3998 29.793 68.2346 29.5883 68.9503C29.4925 69.2839 29.3879 69.6157 29.2754 69.9463C29.1718 70.2493 29.0616 70.5507 28.9449 70.8508C28.7684 71.3051 28.5768 71.7547 28.3722 72.1991Z" fill="#87B8FF"/>
<path fill-rule="evenodd" clip-rule="evenodd" d="M17.482 86.9288L16.1179 87.8679L12.2681 85.2317L13.4682 84.1807L17.482 86.9288Z" fill="#30619E"/>
<path fill-rule="evenodd" clip-rule="evenodd" d="M16.1179 87.8679L12.2681 85.2317L13.4682 84.1807L17.482 86.9288L16.1179 87.8679Z" fill="#87B8FF"/>
<path fill-rule="evenodd" clip-rule="evenodd" d="M33.4337 46.6987C33.4337 46.6987 36.8511 61.1366 37.092 68.0333C37.3617 75.7683 34.6537 94.0122 34.6537 94.0122H30.81C30.81 94.0122 30.3368 75.6259 30.1657 68.5814C29.9795 60.9004 25.4563 46.6987 25.4563 46.6987H33.4337Z" fill="#30619E"/>
<path fill-rule="evenodd" clip-rule="evenodd" d="M30.7748 92.4758C30.662 88.1009 30.3084 74.3626 30.1657 68.5017C30.1506 67.8844 30.1073 67.2249 30.0406 66.5332C29.7605 63.6385 29.0671 60.1922 28.3021 56.9905C26.9854 51.4821 25.4563 46.6987 25.4563 46.6987H33.4337C33.4337 46.6987 36.8512 61.0838 37.092 67.9559C37.1048 68.3211 37.1109 68.7098 37.1109 69.1184C37.1109 69.2597 37.1103 69.4039 37.1087 69.5498C37.0769 72.8291 36.6918 77.2755 36.2359 81.468C36.0722 82.9716 35.8996 84.4424 35.731 85.8147C35.6318 86.6208 35.5339 87.3922 35.4403 88.1173C35.4369 88.1426 35.4335 88.1689 35.4301 88.1941C35.2093 89.9 35.011 91.3386 34.8698 92.3375L30.7748 92.4758Z" fill="#0095DA"/>
<path fill-rule="evenodd" clip-rule="evenodd" d="M35.2707 92.4761L35.0587 94.0119H30.487L30.3635 92.6414L35.2707 92.4761Z" fill="#30619E"/>
<path fill-rule="evenodd" clip-rule="evenodd" d="M35.0587 94.0119H30.487L30.3635 92.6414L35.2707 92.4761L35.0587 94.0119Z" fill="#87B8FF"/>
<path fill-rule="evenodd" clip-rule="evenodd" d="M92.1072 32.8735C92.3726 33.1193 92.578 33.3284 92.7979 33.5634C93.0108 33.7932 93.2202 34.0248 93.4232 34.2603C93.8298 34.7312 94.2072 35.223 94.5724 35.7224C95.3086 36.7173 95.9531 37.777 96.5219 38.8735L96.6374 39.0968C96.6916 39.2062 96.7383 39.3195 96.7774 39.4347C96.855 39.6654 96.8987 39.9019 96.9127 40.1292C96.9384 40.5859 96.8585 40.9981 96.7436 41.3606C96.5085 42.0879 96.134 42.6564 95.7466 43.1805C94.937 44.2076 94.0386 45.0384 93.0114 45.7772L92.2361 44.8987C92.6025 44.4803 92.9805 44.0285 93.3182 43.577C93.6636 43.1276 93.9809 42.6638 94.2428 42.1942C94.5111 41.7335 94.7194 41.2512 94.8075 40.8369C94.8506 40.6305 94.8541 40.4471 94.8267 40.3141C94.8145 40.2471 94.7964 40.1921 94.7731 40.1445L94.7334 40.0767L94.6313 39.9126C94.0322 38.946 93.3836 38.0101 92.6853 37.1126C92.3388 36.6617 91.969 36.2292 91.5991 35.8011C91.4148 35.5863 91.2258 35.3766 91.0362 35.1705C90.8484 34.972 90.6419 34.7524 90.4768 34.5881L92.1072 32.8735Z" fill="#FFB27D"/>
<path fill-rule="evenodd" clip-rule="evenodd" d="M92.4408 44.6433L90.1699 44.2407L91.357 46.3913C91.357 46.3913 92.8188 46.3368 93.2371 45.4181L92.4408 44.6433Z" fill="#FFB27D"/>
<path fill-rule="evenodd" clip-rule="evenodd" d="M88.3301 45.1344L89.3737 46.6986L91.0904 46.1717L89.9477 44.2407L88.3301 45.1344Z" fill="#E6776F"/>
<path fill-rule="evenodd" clip-rule="evenodd" d="M91.9304 96.5768L91.861 96.5891C91.8435 96.5973 91.8225 96.612 91.8161 96.6577C91.8044 96.7439 91.8225 96.8072 91.8715 96.8523C91.9876 96.9584 92.2886 96.9725 92.6887 96.8922C92.4426 96.7433 92.1072 96.5768 91.9304 96.5768ZM92.2367 97.0528C92.0599 97.0528 91.896 97.0223 91.7986 96.9326C91.7216 96.8623 91.6912 96.765 91.7082 96.643C91.721 96.551 91.7741 96.5088 91.8167 96.49C92.0838 96.3699 92.7821 96.8201 92.8608 96.8717L92.8842 96.9268L92.8433 96.9701C92.6812 97.0088 92.449 97.0528 92.2367 97.0528Z" fill="#30619E"/>
<path fill-rule="evenodd" clip-rule="evenodd" d="M92.5429 95.9648L92.5178 95.9666C92.4484 95.9754 92.4332 96.0059 92.4286 96.0323C92.3965 96.1894 92.6572 96.5628 92.876 96.7375C92.8631 96.517 92.8118 96.1448 92.6631 96.0129C92.6269 95.9813 92.5872 95.9648 92.5429 95.9648ZM92.9337 96.8987L92.9069 96.8916C92.6876 96.7668 92.2699 96.2697 92.3212 96.01C92.3311 95.9607 92.3685 95.8751 92.505 95.8581C92.5925 95.8452 92.6689 95.8722 92.7354 95.9314C92.9851 96.1524 92.988 96.8154 92.988 96.8436L92.9611 96.891L92.9337 96.8987Z" fill="#30619E"/>
<path fill-rule="evenodd" clip-rule="evenodd" d="M81.5239 96.5778C81.4813 96.5778 81.4474 96.5836 81.4223 96.5977C81.4002 96.61 81.3885 96.6282 81.3862 96.6563C81.3792 96.7302 81.4002 96.787 81.4492 96.8316C81.588 96.9565 81.9672 96.9787 82.4753 96.8937C82.1603 96.7425 81.7414 96.5778 81.5239 96.5778ZM81.9333 97.0544C81.7047 97.0544 81.4941 97.0186 81.3763 96.9125C81.301 96.8451 81.2683 96.7554 81.2777 96.6469C81.2835 96.5819 81.315 96.5315 81.3698 96.5022C81.6539 96.345 82.5674 96.8158 82.6713 96.8703L82.6998 96.926L82.6567 96.9717C82.4619 97.011 82.1865 97.0544 81.9333 97.0544Z" fill="#30619E"/>
<path fill-rule="evenodd" clip-rule="evenodd" d="M82.1397 95.9644L82.1071 95.9661C82.0079 95.9761 82.0015 96.0159 81.9991 96.0288C81.9735 96.1854 82.3416 96.5758 82.6204 96.7458C82.5936 96.5652 82.5171 96.1936 82.3281 96.0353C82.271 95.9878 82.2091 95.9644 82.1397 95.9644ZM82.6875 96.8976L82.6647 96.8929C82.3906 96.7686 81.8492 96.2721 81.8912 96.0113C81.9017 95.9497 81.9449 95.8729 82.096 95.8577C82.208 95.8465 82.3089 95.8776 82.3976 95.952C82.6863 96.1924 82.7394 96.8126 82.7417 96.839L82.719 96.8876L82.6875 96.8976Z" fill="#30619E"/>
<path fill-rule="evenodd" clip-rule="evenodd" d="M86.3497 25.8071C86.2599 27.1885 86.0132 29.9946 87.1034 30.77C87.1034 30.77 86.9086 32.1846 84.3343 32.5121C81.504 32.872 82.7978 31.318 82.7978 31.318C84.2947 30.7626 84.1045 29.6534 83.6944 28.6411L86.3497 25.8071Z" fill="#FFB27D"/>
<path fill-rule="evenodd" clip-rule="evenodd" d="M84.9562 96.7767H82.6567L82.5027 91.5542H84.8028L84.9562 96.7767Z" fill="#FFB27D"/>
<path fill-rule="evenodd" clip-rule="evenodd" d="M95.6906 96.7767H93.3701L92.624 91.5542H94.9445L95.6906 96.7767Z" fill="#FFB27D"/>
<path fill-rule="evenodd" clip-rule="evenodd" d="M93.2073 96.4697H95.8177C95.9128 96.4697 95.9898 96.5389 96.0032 96.6362L96.3007 98.7976C96.3316 99.0221 96.1473 99.2343 95.928 99.2302C95.018 99.2138 94.5793 99.1581 93.4313 99.1581C92.7255 99.1581 91.6936 99.2349 90.7182 99.2349C89.7645 99.2349 89.691 98.2254 90.097 98.134C91.9181 97.7236 92.2057 97.1591 92.8188 96.6198C92.9296 96.5219 93.0685 96.4697 93.2073 96.4697Z" fill="#20282E"/>
<path fill-rule="evenodd" clip-rule="evenodd" d="M82.5277 96.4697H85.092C85.1854 96.4697 85.2612 96.5389 85.274 96.6362L85.5663 98.7976C85.5966 99.0221 85.4158 99.2343 85.2005 99.2302C84.3063 99.2138 83.8758 99.1581 82.7482 99.1581C82.054 99.1581 80.6196 99.2349 79.6612 99.2349C78.7244 99.2349 78.6526 98.2254 79.0516 98.134C80.8395 97.7236 81.5436 97.1591 82.1462 96.6198C82.2553 96.5219 82.3912 96.4697 82.5277 96.4697Z" fill="#20282E"/>
<path fill-rule="evenodd" clip-rule="evenodd" d="M82.5027 91.5542L82.5838 94.3193H84.9562L84.8751 91.5542H82.5027Z" fill="#ED975D"/>
<path fill-rule="evenodd" clip-rule="evenodd" d="M94.9912 91.5542H92.624L93.0172 94.3193H95.3844L94.9912 91.5542Z" fill="#ED975D"/>
<path fill-rule="evenodd" clip-rule="evenodd" d="M86.0795 22.9488C86.2358 25.2538 86.3502 26.2262 85.3661 27.5509C83.8856 29.5439 81.0698 29.2348 80.2403 27.0234C79.4931 25.0332 79.3636 21.5976 81.4461 20.395C83.4983 19.2097 85.9238 20.6435 86.0795 22.9488Z" fill="#FFB27D"/>
<path fill-rule="evenodd" clip-rule="evenodd" d="M87.3461 25.0674C88.6166 25.7857 89.5569 24.0141 89.5569 24.0141C89.5569 24.0141 87.2825 24.2647 87.4855 22.8908C87.7556 21.0684 86.4693 18.8525 83.2423 19.1363C83.0633 19.1521 82.8906 19.1746 82.7237 19.2028C82.0978 18.9376 81.2508 18.9658 80.7171 19.6716C79.8147 19.749 78.5692 20.8581 79.4046 22.3211C79.4046 22.3211 79.4781 22.0884 79.6753 21.8668C79.7435 22.7234 80.4838 24.085 81.4043 24.1741C81.6026 25.3481 80.8349 26.7069 81.1073 27.9304C81.5011 29.6974 84.4364 30.1086 84.4364 30.1086C84.115 29.253 84.6085 28.7464 84.6085 28.7464C86.6035 29.6704 87.9178 28.7677 87.9178 28.7677C86.5586 28.2519 86.9692 27.3366 86.9692 27.3366C88.7904 28.0415 89.5569 26.3826 89.5569 26.3826C88.5868 26.4339 87.7678 25.884 87.3461 25.0674Z" fill="#233862"/>
<path fill-rule="evenodd" clip-rule="evenodd" d="M82.1952 24.4358C82.2098 24.9033 82.0074 25.3341 81.7391 25.6099C81.336 26.0253 80.8437 25.7353 80.7124 25.2034C80.594 24.7246 80.6611 23.9315 81.1832 23.7151C81.6971 23.5022 82.1783 23.9011 82.1952 24.4358Z" fill="#FFB27D"/>
<path fill-rule="evenodd" clip-rule="evenodd" d="M84.3425 45.7458C84.3425 45.7458 84.92 60.8729 86.2868 69.7563C87.391 76.9321 92.2881 93.7046 92.2881 93.7046H95.3839C95.3839 93.7046 92.8324 77.5065 92.2718 70.4093C90.8537 52.4504 94.5328 48.5955 91.0707 44.8555L84.3425 45.7458Z" fill="#0A1629"/>
<path fill-rule="evenodd" clip-rule="evenodd" d="M87.0064 50.3915C87.0064 50.3915 85.5189 50.147 84.6492 52.8406C84.9776 57.9438 85.5218 64.7157 86.3239 69.5953C86.5007 70.6821 86.7713 71.9923 87.1027 73.4279C86.475 64.8072 87.0064 50.3915 87.0064 50.3915Z" fill="#010205"/>
<path fill-rule="evenodd" clip-rule="evenodd" d="M81.8703 46.0489C81.8703 46.0489 79.2914 62.7903 79.4419 69.7967C79.5982 77.0844 82.2652 93.7045 82.2652 93.7045H85.368C85.368 93.7045 84.8768 77.51 85.151 70.353C85.4502 62.55 88.6364 45.1626 88.6364 45.1626L81.8703 46.0489Z" fill="#0A1629"/>
<path fill-rule="evenodd" clip-rule="evenodd" d="M95.9974 94.0119H91.7303L91.3972 92.4761L95.9682 92.5112L95.9974 94.0119Z" fill="#30619E"/>
<path fill-rule="evenodd" clip-rule="evenodd" d="M95.9974 94.0119H91.7303L91.3972 92.4761L95.9682 92.5112L95.9974 94.0119Z" fill="#0095DA"/>
<path fill-rule="evenodd" clip-rule="evenodd" d="M90.8566 30.73C92.0431 30.8441 93.8503 34.2429 93.8503 34.2429L90.8496 36.5605C90.8496 36.5605 88.3652 34.3665 88.6609 33.1341C88.9689 31.8507 89.7162 30.6204 90.8566 30.73Z" fill="#30619E"/>
<path fill-rule="evenodd" clip-rule="evenodd" d="M90.8886 36.582C90.8886 36.582 90.7206 36.4342 90.4768 36.194C90.4768 36.1936 90.4768 36.1933 90.4768 36.193C90.7195 36.4324 90.8875 36.5801 90.8892 36.5813L90.8886 36.582ZM90.9376 36.5442L91.1126 36.4093L90.5801 34.408C90.6547 33.3269 90.7586 32.1118 90.8956 30.7271C90.8956 30.7271 90.8781 30.7256 90.8461 30.7231C90.8624 30.7244 90.8787 30.7256 90.8956 30.7271C92.0926 30.8417 93.9161 34.2547 93.9161 34.2547L93.5475 34.538L90.9376 36.5442Z" fill="#0095DA"/>
<path fill-rule="evenodd" clip-rule="evenodd" d="M89.9694 32.064C89.9694 32.064 89.4881 31.9223 89.032 31.9572C88.8727 32.2906 88.7502 32.6594 88.661 33.0337C88.364 34.3026 90.8665 36.5601 90.8665 36.5601L91.09 36.3838L89.9694 32.064Z" fill="#30619E"/>
<path fill-rule="evenodd" clip-rule="evenodd" d="M90.8741 36.5603C90.8741 36.5603 90.7125 36.414 90.4768 36.176C90.5007 35.6282 90.5334 35.0423 90.576 34.4097L91.0905 36.39L90.8741 36.5603Z" fill="#264D90"/>
<path fill-rule="evenodd" clip-rule="evenodd" d="M80.8937 35.3127C80.0269 37.5188 79.1134 39.7582 78.3865 41.9693C78.3399 42.1077 78.2979 42.2447 78.257 42.3813L78.1538 42.7206C78.1258 42.827 78.1205 42.9077 78.1544 43.0376C78.222 43.2969 78.5411 43.6731 78.9425 43.9849C79.7545 44.6265 80.8441 45.1398 81.8889 45.5715L81.6165 46.6988C80.346 46.5026 79.1466 46.1712 77.9397 45.4926C77.3558 45.1331 76.7182 44.6862 76.3023 43.8251C76.0987 43.4005 76.0124 42.8579 76.09 42.3685C76.0981 42.307 76.1104 42.248 76.1215 42.1881L76.15 42.0616L76.2043 41.8289C76.2393 41.6734 76.276 41.519 76.3163 41.3683C76.629 40.152 77.0093 38.9864 77.4188 37.8318C77.8248 36.6745 78.2594 35.5432 78.7435 34.4097L80.8937 35.3127Z" fill="#FFB27D"/>
<path fill-rule="evenodd" clip-rule="evenodd" d="M78.9453 32.4375C78.9453 32.4375 77.9099 32.9633 81.834 46.0846C85.5072 45.6027 89.303 45.1049 91.0897 44.8706C90.4417 41.1143 90.1337 38.786 90.9223 30.7991C90.9223 30.7991 88.9279 30.6307 86.9242 30.7954C85.3567 30.9246 84.0746 31.0421 82.7212 31.3471C80.9374 31.749 78.9453 32.4375 78.9453 32.4375Z" fill="#30619E"/>
<path fill-rule="evenodd" clip-rule="evenodd" d="M81.7278 45.4701C81.2822 43.9721 80.9042 42.6468 80.5839 41.4729L80.6504 38.6816L80.8319 38.7697C80.8319 38.7697 82.1146 35.5492 82.1134 33.8595C82.1129 33.4822 82.0487 33.1812 81.8912 33.0094C81.3382 32.4051 80.875 32.1252 80.2888 32.1252C80.1184 32.1252 79.9382 32.1489 79.7422 32.195C80.4854 31.9581 81.6823 31.5965 82.7977 31.3465C84.1551 31.0417 85.4419 30.9243 87.0146 30.7953C87.6755 30.7413 88.3347 30.7231 88.9227 30.7231C90.1243 30.7231 91.0268 30.799 91.0268 30.799C90.8897 32.1836 90.7853 33.3987 90.71 34.4798C90.6657 35.1191 90.6319 35.7111 90.6068 36.2647V36.2656C90.5718 37.0469 90.5554 37.7507 90.5554 38.3983C90.556 40.7421 90.7707 42.3528 91.0904 44.2471L81.7278 45.4701Z" fill="#0095DA"/>
<path fill-rule="evenodd" clip-rule="evenodd" d="M80.6622 41.1685C80.4323 40.5019 80.2293 39.8882 80.0491 39.3252C80.2293 39.8884 80.4329 40.5014 80.6622 41.1685Z" fill="#2C5B99"/>
<path fill-rule="evenodd" clip-rule="evenodd" d="M91.171 44.2906L91.6919 45.031C91.7321 45.0882 91.665 45.1607 91.5589 45.1739L81.9426 46.3892C81.8598 46.3998 81.7863 46.3692 81.7741 46.3197L81.5839 45.5372C81.5711 45.4833 81.6364 45.4275 81.7268 45.4163L91.0123 44.2427C91.0811 44.2342 91.1447 44.2533 91.171 44.2906Z" fill="#30619E"/>
<path fill-rule="evenodd" clip-rule="evenodd" d="M81.9104 46.3913C81.8416 46.3913 81.785 46.3629 81.7745 46.3198L81.6135 45.6588L81.5844 45.5374C81.5832 45.5327 81.582 45.5282 81.582 45.5235C81.582 45.4739 81.6439 45.4267 81.7267 45.4164L91.0122 44.2428C91.0233 44.2413 91.0338 44.2407 91.0443 44.2407C91.1003 44.2407 91.1487 44.2592 91.1709 44.2907L91.6912 45.0311C91.6994 45.0425 91.7029 45.0546 91.7034 45.0666C91.704 45.115 91.6439 45.1635 91.5588 45.174L81.9425 46.3893C81.9315 46.3908 81.9209 46.3913 81.9104 46.3913Z" fill="#87B8FF"/>
<path fill-rule="evenodd" clip-rule="evenodd" d="M89.8789 45.4685L90.1012 45.4348C90.1455 45.4282 90.1758 45.3971 90.1694 45.3656L89.9407 44.2871C89.9343 44.2557 89.8923 44.2354 89.848 44.2419L89.6263 44.2753C89.582 44.2822 89.5511 44.3133 89.5575 44.3448L89.7867 45.4229C89.7932 45.4544 89.8346 45.475 89.8789 45.4685Z" fill="#0A1629"/>
<path fill-rule="evenodd" clip-rule="evenodd" d="M83.7445 46.3902L83.9668 46.3568C84.0111 46.3503 84.0415 46.3192 84.035 46.2874L83.8064 45.2094C83.8 45.1779 83.758 45.1573 83.7136 45.1638L83.492 45.1975C83.4476 45.204 83.4173 45.2352 83.4237 45.267L83.6524 46.345C83.6588 46.3765 83.7008 46.3971 83.7445 46.3902Z" fill="#0A1629"/>
<path fill-rule="evenodd" clip-rule="evenodd" d="M79.4353 36.795C79.685 38.0046 80.046 39.5364 80.5512 41.4757L80.6621 36.5601L79.4353 36.795Z" fill="#30619E"/>
<path fill-rule="evenodd" clip-rule="evenodd" d="M80.5944 41.4757C80.2497 40.18 79.9685 39.0619 79.7422 38.0962L80.6621 38.5526L80.5944 41.4757Z" fill="#2B73DF"/>
<path fill-rule="evenodd" clip-rule="evenodd" d="M78.806 32.2675C77.6591 32.7382 76.675 36.7491 76.675 36.7491L80.6166 38.7107C80.6166 38.7107 82.5236 33.807 81.669 32.851C80.7788 31.8556 80.1249 31.7262 78.806 32.2675Z" fill="#30619E"/>
<path fill-rule="evenodd" clip-rule="evenodd" d="M80.6161 38.7107L80.4358 38.6211L76.675 36.7491C76.675 36.7491 77.6591 32.7383 78.806 32.2676C79.31 32.0608 79.7171 31.9517 80.077 31.9517C80.6592 31.9517 81.1189 32.2364 81.6684 32.8511C81.8247 33.0258 81.8883 33.3321 81.8895 33.7158C81.8906 35.4347 80.6161 38.7107 80.6161 38.7107Z" fill="#0095DA"/>
<path fill-rule="evenodd" clip-rule="evenodd" d="M85.7296 94.0119H81.5985L81.2759 92.4761L85.8766 92.5112L85.7296 94.0119Z" fill="#30619E"/>
<path fill-rule="evenodd" clip-rule="evenodd" d="M85.7296 94.0119H81.5985L81.2759 92.4761L85.8766 92.5112L85.7296 94.0119Z" fill="#0095DA"/>
<path fill-rule="evenodd" clip-rule="evenodd" d="M81.9292 45.3467L81.6165 45.2028C81.2793 45.0479 80.92 45.3631 80.9748 45.7661L81.2012 47.4372C81.249 47.7927 81.5762 48.0174 81.8778 47.8931C81.9811 47.8501 82.089 47.7879 82.1922 47.6972C82.4069 47.5093 82.5142 47.2054 82.5014 46.9008L82.4722 46.2085C82.4565 45.8277 82.2447 45.4917 81.9292 45.3467Z" fill="#FFB27D"/>
</g>
<defs>
<clipPath id="clip0_4397_11525">
<rect width="119" height="102" fill="white"/>
</clipPath>
</defs>
</svg>
