<svg width="165" height="130" viewBox="0 0 165 130" fill="none" xmlns="http://www.w3.org/2000/svg">
<ellipse cx="85.2119" cy="70.9091" rx="58.0986" ry="59.091" fill="#58BBE7" fill-opacity="0.12"/>
<ellipse cx="59.6486" cy="3.93939" rx="3.87324" ry="3.93939" fill="#0094D9"/>
<ellipse cx="155.317" cy="27.182" rx="9.68311" ry="9.84848" fill="#0094D9"/>
<ellipse cx="141.76" cy="107.151" rx="3.87324" ry="3.93939" fill="#0890FE"/>
<ellipse cx="40.2807" cy="107.151" rx="7.74648" ry="7.87879" fill="#93DAFB"/>
<ellipse cx="3.87324" cy="55.1513" rx="3.87324" ry="3.93939" fill="#7391C7"/>
<path d="M93.374 65.6492C92.8955 65.6492 92.4874 65.2467 92.4874 64.758V56.9091C92.4874 52.7978 89.2221 49.4628 85.1969 49.4628C81.1716 49.4628 77.9064 52.8122 77.9064 56.9091V64.758C77.9064 65.2467 77.5123 65.6492 77.0197 65.6492H72.1219C71.6433 65.6492 71.2493 65.2467 71.2493 64.758V56.9091C71.2493 49.0459 77.5123 42.6489 85.2109 42.6489C92.9096 42.6489 99.1726 49.0459 99.1726 56.9091V64.758C99.1726 65.2467 98.7786 65.6492 98.286 65.6492H93.374Z" fill="#98D5F0"/>
<path d="M85.212 43.5398C92.418 43.5398 98.287 49.5343 98.287 56.8944V64.7432H93.3891V56.8944C93.3891 52.2943 89.7298 48.5424 85.212 48.5424C80.7082 48.5424 77.0348 52.28 77.0348 56.8944V64.7432H72.137V56.8944C72.137 49.5343 77.9919 43.5398 85.212 43.5398ZM85.212 41.7573C77.0348 41.7573 70.3777 48.5568 70.3777 56.9088V64.7576C70.3777 65.7495 71.1658 66.5545 72.137 66.5545H77.0348C78.0059 66.5545 78.7941 65.7495 78.7941 64.7576V56.9088C78.7941 53.3006 81.6652 50.3537 85.212 50.3537C88.7446 50.3537 91.6298 53.3006 91.6298 56.9088V64.7576C91.6298 65.7495 92.418 66.5545 93.3891 66.5545H98.287C99.2581 66.5545 100.046 65.7495 100.046 64.7576V56.9088C100.046 48.5424 93.3891 41.7573 85.212 41.7573Z" fill="white"/>
<path d="M68.8566 98.3954C67.6743 98.3954 66.7173 97.4179 66.7173 96.2104V66.0368C66.7173 64.8293 67.6743 63.8518 68.8566 63.8518H101.565C102.747 63.8518 103.705 64.8293 103.705 66.0368V96.196C103.705 97.4035 102.747 98.381 101.565 98.381H68.8566V98.3954Z" fill="#98D5F0"/>
<path d="M101.566 64.7578C102.256 64.7578 102.819 65.3328 102.819 66.0516V96.2108C102.819 96.9152 102.256 97.5046 101.566 97.5046H68.8576C68.1539 97.5046 67.605 96.9296 67.605 96.2108V66.0372C67.605 65.3328 68.168 64.7435 68.8576 64.7435H101.566V64.7578ZM101.566 62.9609H68.8576C67.1968 62.9609 65.8457 64.341 65.8457 66.0372V96.1964C65.8457 97.8927 67.1968 99.2727 68.8576 99.2727H101.566C103.227 99.2727 104.578 97.8927 104.578 96.1964V66.0372C104.578 64.341 103.227 62.9609 101.566 62.9609Z" fill="white"/>
<path d="M101.566 64.7578H95.1759V88.5344C95.1759 89.2388 94.613 89.8138 93.9093 89.8138H67.5903V96.1964C67.5903 96.9008 68.1533 97.4901 68.8429 97.4901H101.552C102.241 97.4901 102.804 96.9151 102.804 96.1964V66.0372C102.818 65.3328 102.255 64.7578 101.566 64.7578Z" fill="#98D5F0"/>
<path d="M101.566 64.7578H99.173V92.1282C99.173 92.847 98.6101 93.4076 97.9063 93.4076H67.5903V96.2108C67.5903 96.9151 68.1533 97.5045 68.8429 97.5045H101.552C102.241 97.5045 102.804 96.9295 102.804 96.2108V66.0372C102.818 65.3328 102.255 64.7578 101.566 64.7578Z" fill="#98D5F0"/>
<path d="M83.9365 84.5095C83.9365 84.252 83.7782 84.0207 83.5381 83.9275C81.7786 83.244 80.5303 81.5048 80.5303 79.4636C80.5303 76.8225 82.6399 74.697 85.1982 74.697C87.7695 74.697 89.8662 76.8214 89.8662 79.4636C89.8662 81.5048 88.6179 83.244 86.8584 83.9275C86.6183 84.0207 86.46 84.252 86.46 84.5095V87.0398C86.4598 87.7711 85.8824 88.3415 85.1982 88.3416C84.514 88.3416 83.9367 87.7711 83.9365 87.0398V84.5095Z" fill="#0098DB" stroke="white" stroke-width="1.2486" stroke-miterlimit="10" stroke-linecap="round" stroke-linejoin="round"/>
</svg>
