<svg width="165" height="130" viewBox="0 0 165 130" fill="none" xmlns="http://www.w3.org/2000/svg">
<ellipse cx="85.2119" cy="70.9091" rx="58.0986" ry="59.091" fill="#58BBE7" fill-opacity="0.12"/>
<ellipse cx="59.6486" cy="3.93939" rx="3.87324" ry="3.93939" fill="#0094D9"/>
<ellipse cx="155.317" cy="27.1819" rx="9.68311" ry="9.84848" fill="#0094D9"/>
<ellipse cx="141.76" cy="107.151" rx="3.87324" ry="3.93939" fill="#0890FE"/>
<ellipse cx="40.2807" cy="107.151" rx="7.74648" ry="7.87879" fill="#93DAFB"/>
<ellipse cx="3.87324" cy="55.1513" rx="3.87324" ry="3.93939" fill="#7391C7"/>
<path d="M93.3739 65.6492C92.8954 65.6492 92.4872 65.2467 92.4872 64.758V56.9091C92.4872 52.7978 89.222 49.4628 85.1968 49.4628C81.1715 49.4628 77.9063 52.8122 77.9063 56.9091V64.758C77.9063 65.2467 77.5122 65.6492 77.0196 65.6492H72.1217C71.6432 65.6492 71.2491 65.2467 71.2491 64.758V56.9091C71.2491 49.0459 77.5122 42.6489 85.2108 42.6489C92.9095 42.6489 99.1725 49.0459 99.1725 56.9091V64.758C99.1725 65.2467 98.7784 65.6492 98.2858 65.6492H93.3739Z" fill="#98D5F0"/>
<path d="M85.2118 43.54C92.4179 43.54 98.2869 49.5344 98.2869 56.8945V64.7434H93.389V56.8945C93.389 52.2945 89.7297 48.5425 85.2118 48.5425C80.7081 48.5425 77.0347 52.2801 77.0347 56.8945V64.7434H72.1368V56.8945C72.1368 49.5344 77.9917 43.54 85.2118 43.54ZM85.2118 41.7574C77.0347 41.7574 70.3776 48.5569 70.3776 56.9089V64.7577C70.3776 65.7496 71.1657 66.5546 72.1368 66.5546H77.0347C78.0058 66.5546 78.794 65.7496 78.794 64.7577V56.9089C78.794 53.3007 81.6651 50.3538 85.2118 50.3538C88.7445 50.3538 91.6297 53.3007 91.6297 56.9089V64.7577C91.6297 65.7496 92.4179 66.5546 93.389 66.5546H98.2869C99.258 66.5546 100.046 65.7496 100.046 64.7577V56.9089C100.046 48.5425 93.389 41.7574 85.2118 41.7574Z" fill="white"/>
<path d="M68.8566 98.3955C67.6743 98.3955 66.7173 97.418 66.7173 96.2105V66.037C66.7173 64.8294 67.6743 63.8519 68.8566 63.8519H101.565C102.747 63.8519 103.705 64.8294 103.705 66.037V96.1961C103.705 97.4036 102.747 98.3811 101.565 98.3811H68.8566V98.3955Z" fill="#98D5F0"/>
<path d="M101.566 64.758C102.256 64.758 102.819 65.333 102.819 66.0517V96.2109C102.819 96.9153 102.256 97.5047 101.566 97.5047H68.8576C68.1539 97.5047 67.605 96.9297 67.605 96.2109V66.0374C67.605 65.333 68.168 64.7436 68.8576 64.7436H101.566V64.758ZM101.566 62.9611H68.8576C67.1968 62.9611 65.8457 64.3411 65.8457 66.0374V96.1966C65.8457 97.8928 67.1968 99.2728 68.8576 99.2728H101.566C103.227 99.2728 104.578 97.8928 104.578 96.1966V66.0374C104.578 64.3411 103.227 62.9611 101.566 62.9611Z" fill="white"/>
<path d="M101.566 64.7578H95.1759V88.5344C95.1759 89.2388 94.613 89.8138 93.9093 89.8138H67.5903V96.1964C67.5903 96.9008 68.1533 97.4901 68.8429 97.4901H101.552C102.241 97.4901 102.804 96.9151 102.804 96.1964V66.0372C102.818 65.3328 102.255 64.7578 101.566 64.7578Z" fill="#98D5F0"/>
<path d="M101.566 64.7578H99.173V92.1282C99.173 92.847 98.6101 93.4076 97.9063 93.4076H67.5903V96.2108C67.5903 96.9151 68.1533 97.5045 68.8429 97.5045H101.552C102.241 97.5045 102.804 96.9295 102.804 96.2108V66.0372C102.818 65.3328 102.255 64.7578 101.566 64.7578Z" fill="#98D5F0"/>
<path d="M83.9365 84.5095C83.9365 84.252 83.7782 84.0207 83.5381 83.9275C81.7786 83.244 80.5303 81.5048 80.5303 79.4636C80.5303 76.8225 82.6399 74.697 85.1982 74.697C87.7695 74.697 89.8662 76.8214 89.8662 79.4636C89.8662 81.5048 88.6179 83.244 86.8584 83.9275C86.6183 84.0207 86.46 84.252 86.46 84.5095V87.0398C86.4598 87.7711 85.8824 88.3415 85.1982 88.3416C84.514 88.3416 83.9367 87.7711 83.9365 87.0398V84.5095Z" fill="#0098DB" stroke="white" stroke-width="1.2486" stroke-miterlimit="10" stroke-linecap="round" stroke-linejoin="round"/>
</svg>
