<?xml version="1.0" encoding="UTF-8"?>
<svg version="1.1" xmlns="http://www.w3.org/2000/svg" width="1024" height="788">
<path d="M0 0 C0 59.73 0 119.46 0 181 C-13.49554896 186.6231454 -13.49554896 186.6231454 -19.46484375 188.5859375 C-20.12379135 188.80415665 -20.78273895 189.02237579 -21.46165466 189.24720764 C-22.87868671 189.7158388 -24.29641238 190.18237721 -25.71478271 190.64694214 C-28.02107878 191.40237649 -30.32541589 192.16355403 -32.62939453 192.92602539 C-35.98422186 194.03580841 -39.33974996 195.14343428 -42.69580078 196.24951172 C-51.92818409 199.29414048 -61.15175419 202.36532347 -70.375 205.4375 C-71.31407196 205.75018829 -72.25314392 206.06287659 -73.22067261 206.38504028 C-86.9985613 210.97471249 -100.75860514 215.61468595 -114.5 220.3125 C-115.31104187 220.58939667 -116.12208374 220.86629333 -116.95770264 221.15158081 C-119.23277921 221.92885536 -121.50716088 222.70812304 -123.78125 223.48828125 C-124.44367706 223.71466278 -125.10610413 223.94104431 -125.78860474 224.17428589 C-129.23353104 225.35970762 -132.62285467 226.63492274 -136 228 C-135.42278198 228.19584183 -134.84556396 228.39168365 -134.25085449 228.59346008 C-132.4645637 229.19952303 -130.67827325 229.80558698 -128.89198303 230.41165161 C-126.73185972 231.14454855 -124.57173389 231.87743807 -122.41160583 232.61032104 C-116.88482345 234.48544605 -111.3580616 236.36063149 -105.83139324 238.23609257 C-102.58682837 239.33712416 -99.34224649 240.43810565 -96.09765625 241.5390625 C-95.43794893 241.76291563 -94.77824162 241.98676876 -94.09854317 242.21740532 C-85.53371493 245.12354452 -76.96826855 248.02785205 -68.40206909 250.9299469 C-63.43716235 252.61205225 -58.4724806 254.29482108 -53.5078125 255.97763062 C-51.16433677 256.77176265 -48.82075303 257.56557605 -46.47705078 258.35903931 C-34.62178298 262.37278231 -22.77224891 266.4030262 -10.94140625 270.48828125 C-9.45809059 270.99720161 -9.45809059 270.99720161 -7.94480896 271.5164032 C-6.59456383 271.98455193 -6.59456383 271.98455193 -5.21704102 272.4621582 C-4.02716331 272.87290337 -4.02716331 272.87290337 -2.81324768 273.29194641 C-1 274 -1 274 0 275 C0.09770914 276.93389124 0.12371302 278.87141282 0.12304783 280.80777073 C0.12503888 282.07771777 0.12702993 283.34766481 0.12908131 284.65609509 C0.12622771 286.0837643 0.1232821 287.51143332 0.12025452 288.93910217 C0.12069009 290.44139275 0.12156473 291.94368325 0.12284368 293.44597334 C0.12509145 297.59389646 0.12106354 301.74179402 0.11606562 305.88971388 C0.11176532 310.35531404 0.11320724 314.82091264 0.1139679 319.28651428 C0.1144934 327.03002835 0.11134386 334.77353402 0.10573006 342.51704597 C0.09761861 353.71299917 0.0950002 364.90894829 0.09374207 376.10490411 C0.09155099 394.2676109 0.08488939 412.43031322 0.07543945 430.59301758 C0.06626678 448.24112933 0.05918524 465.88923986 0.05493164 483.53735352 C0.05453756 485.16785902 0.05453756 485.16785902 0.05413551 486.83130402 C0.05283051 492.28423532 0.0515668 497.73716662 0.05032361 503.19009793 C0.03994925 548.46006839 0.02232942 593.73003396 0 639 C-1.58932084 639.6405043 -3.17912051 640.27982056 -4.76911926 640.91864014 C-5.65438703 641.27478771 -6.53965479 641.63093529 -7.45174885 641.99787521 C-10.66700953 643.26230805 -13.91705358 644.37499649 -17.19921875 645.453125 C-17.85511993 645.66988892 -18.51102112 645.88665283 -19.1867981 646.10998535 C-20.60651546 646.57907669 -22.02665315 647.0468975 -23.44717407 647.5135498 C-27.43357005 648.82397614 -31.41595224 650.14649508 -35.3984375 651.46875 C-36.24974747 651.75127625 -37.10105743 652.03380249 -37.97816467 652.32489014 C-48.27409941 655.74741115 -58.54348648 659.24770178 -68.8125 662.75 C-69.79602448 663.08533752 -70.77954895 663.42067505 -71.7928772 663.76617432 C-75.82157452 665.13986478 -79.85016867 666.51385691 -83.8785553 667.88845825 C-90.91921418 670.29092885 -97.96111774 672.68971737 -105.00390625 675.0859375 C-105.98626251 675.42018234 -106.96861877 675.75442719 -107.98074341 676.09880066 C-109.95790354 676.77151221 -111.93506621 677.44421629 -113.91223145 678.11691284 C-125.90593219 682.1977904 -137.89936948 686.27940236 -149.88671875 690.37890625 C-171.25733366 697.68679349 -192.64322512 704.9487428 -214.03672028 712.18932343 C-233.26014598 718.69556172 -252.47644433 725.22196149 -271.67922974 731.78890991 C-272.47473236 732.06095245 -273.27023499 732.332995 -274.08984375 732.61328125 C-274.88317108 732.88459869 -275.67649841 733.15591614 -276.49386597 733.43545532 C-285.82273848 736.62488439 -295.15645358 739.80008194 -304.48999023 742.97583008 C-319.61745854 748.12302203 -334.74399213 753.27293689 -349.86639404 758.43499756 C-352.4037887 759.30099454 -354.94139297 760.16637531 -357.47900391 761.03173828 C-365.5126776 763.77298074 -373.54056751 766.52970633 -381.55859375 769.31640625 C-383.06516013 769.8388591 -384.57175131 770.36124045 -386.07836914 770.88354492 C-388.86973263 771.851263 -391.65894709 772.82485418 -394.44702148 773.80200195 C-395.66848877 774.22570068 -396.88995605 774.64939941 -398.1484375 775.0859375 C-399.21239746 775.4576709 -400.27635742 775.8294043 -401.37255859 776.21240234 C-404 777 -404 777 -407 777 C-407 716.61 -407 656.22 -407 594 C-397.74407764 590.52902911 -388.56885203 587.09291302 -379.18701172 584.02075195 C-374.5813025 582.50853713 -369.97959703 580.98444182 -365.37890625 579.45703125 C-364.12883789 579.04220741 -364.12883789 579.04220741 -362.85351562 578.6190033 C-352.67616102 575.23611255 -342.52560961 571.77464023 -332.375 568.3125 C-331.39377167 567.97792786 -330.41254333 567.64335571 -329.40158081 567.29864502 C-325.35867087 565.92008953 -321.31582818 564.5413373 -317.27314758 563.16210938 C-306.89886585 559.62307016 -296.52083837 556.09507546 -286.14248657 552.56799316 C-268.02675071 546.41125021 -249.9133446 540.2476914 -231.80145264 534.07965088 C-217.04618028 529.05499685 -202.28752061 524.04037511 -187.52740479 519.02996826 C-169.14527776 512.79003661 -150.76720792 506.53861274 -132.39916992 500.25732422 C-123.1894506 497.10870611 -113.97583966 493.97187499 -104.7578125 490.84765625 C-83.21683873 483.5446208 -61.70076269 476.18308575 -40.24389648 468.63623047 C-28.868326 464.63750447 -17.4645732 460.73722607 -6 457 C-13.69957767 453.74620358 -21.56907271 451.08553577 -29.50732422 448.48535156 C-44.73156687 443.49347056 -59.87698409 438.28968514 -75 433 C-88.42949489 428.30626946 -101.86944874 423.65801427 -115.375 419.1875 C-130.79160847 414.08184745 -146.18244088 408.90226876 -161.5625 403.6875 C-163.36826508 403.07530609 -163.36826508 403.07530609 -165.21051025 402.45074463 C-181.08449959 397.06540668 -196.9318307 391.6095434 -212.75 386.0625 C-225.83654126 381.47357468 -238.94557104 376.97226865 -252.11062622 372.61373901 C-267.49330179 367.52078324 -282.84258552 362.3304406 -298.1875 357.125 C-299.14656061 356.79969551 -299.14656061 356.79969551 -300.12499619 356.46781921 C-323.09407263 348.67659783 -346.05172917 340.85228125 -369 333 C-381.54 328.71 -394.08 324.42 -407 320 C-407 259.28 -407 198.56 -407 136 C-401.72 134.35 -396.44 132.7 -391 131 C-387.9505422 129.98471844 -384.90972764 128.96230248 -381.875 127.90625 C-380.26696971 127.35208983 -378.65889491 126.79805882 -377.05078125 126.24414062 C-376.22916504 125.96030518 -375.40754883 125.67646973 -374.56103516 125.3840332 C-359.75438502 120.27298648 -344.9091475 115.30347209 -330 110.5 C-316.4162349 106.11988652 -302.87718894 101.6256805 -289.375 97 C-288.52310089 96.70819855 -287.67120178 96.41639709 -286.79348755 96.11575317 C-279.24256832 93.52764598 -271.69515088 90.92939464 -264.14892578 88.32763672 C-259.41272077 86.69486048 -254.67557194 85.0648507 -249.9375 83.4375 C-249.16044708 83.17048279 -248.38339417 82.90346558 -247.58279419 82.62835693 C-234.70768225 78.2098492 -221.77410386 73.99019336 -208.81613159 69.82199097 C-195.63946814 65.57719967 -182.55656749 61.10003514 -169.5 56.5 C-155.68005787 51.63122822 -141.82404606 46.9233907 -127.875 42.4375 C-114.33173675 38.08048241 -100.83338195 33.61297512 -87.375 29 C-86.10335999 28.56415588 -86.10335999 28.56415588 -84.80603027 28.11950684 C-79.71263721 26.37266652 -74.62069836 24.62161575 -69.52905273 22.86968994 C-50.78694135 16.42465796 -32.04098007 9.9888725 -13.25 3.6875 C-11.56221436 3.11841919 -11.56221436 3.11841919 -9.84033203 2.5378418 C-8.31835205 2.02991089 -8.31835205 2.02991089 -6.765625 1.51171875 C-5.88680664 1.21740967 -5.00798828 0.92310059 -4.10253906 0.61987305 C-2 0 -2 0 0 0 Z " fill="#0095DA" transform="translate(497,0)"/>
<path d="M0 0 C40.68335635 13.56111878 40.68335635 13.56111878 54.17269897 18.20007324 C67.49067407 22.77765239 80.82458577 27.30533067 94.1875 31.75 C94.89379547 31.98495178 95.60009094 32.21990356 96.32778931 32.4619751 C100.13484419 33.72797935 103.94232775 34.99268981 107.75 36.25683594 C118.39731673 39.79176559 129.04310811 43.33127285 139.6875 46.875 C140.84893524 47.26163818 142.01037048 47.64827637 143.20700073 48.04663086 C159.07266836 53.33073095 174.91586682 58.67556778 190.73339844 64.10195923 C204.40846572 68.79264093 218.11411448 73.38566929 231.83465576 77.94146729 C244.37047195 82.10536371 256.8823559 86.33336463 269.375 90.625 C281.60689849 94.82614455 293.85290112 98.98018102 306.125 103.0625 C306.8681546 103.30973816 307.6113092 103.55697632 308.37698364 103.81170654 C314.30539403 105.78331405 320.23508944 107.75104444 326.16497803 109.71820068 C353.1586133 118.67365678 380.07538834 127.83417475 407 137 C407 196.73 407 256.46 407 318 C401.71149577 320.64425212 397.34210065 322.71104691 391.85546875 324.48828125 C391.18530228 324.70796066 390.5151358 324.92764008 389.82466125 325.15397644 C388.37464029 325.62905654 386.92378023 326.1015819 385.47216797 326.57177734 C381.45958551 327.87271506 377.45434825 329.19585677 373.44921875 330.51953125 C372.17985977 330.93871323 372.17985977 330.93871323 370.88485718 331.36636353 C361.04902326 334.62705661 351.27613951 338.06542093 341.5 341.5 C328.69732481 345.99136871 315.88041117 350.42393618 303 354.6875 C286.95805373 360.00027514 270.94284294 365.3904669 254.9375 370.8125 C254.30013287 371.02836636 253.66276573 371.24423271 253.00608444 371.46664047 C235.1140973 377.52719411 217.25292216 383.67020943 199.42767334 389.92446899 C186.22374858 394.55543804 172.98006816 399.04720296 159.69702148 403.44555664 C147.81829329 407.38069274 135.96744698 411.39454822 124.125 415.4375 C122.73509354 415.91188004 122.73509354 415.91188004 121.31710815 416.39584351 C111.47977475 419.75410449 101.64530471 423.12069233 91.8125 426.4921875 C89.37800266 427.32671371 86.94347564 428.16115316 84.50891113 428.9954834 C82.92382335 429.5387264 81.33878078 430.08210135 79.75378418 430.62561035 C68.10990017 434.61705559 56.4405744 438.52397968 44.75244141 442.38378906 C38.51942496 444.45379453 32.31223206 446.58061664 26.1328125 448.8046875 C25.4882309 449.03660294 24.84364929 449.26851837 24.17953491 449.50746155 C21.10104384 450.61759915 18.02612607 451.73671932 14.95458984 452.8659668 C13.8661377 453.26211182 12.77768555 453.65825684 11.65625 454.06640625 C10.70556641 454.41646729 9.75488281 454.76652832 8.77539062 455.12719727 C6 456 6 456 0 457 C0 396.94 0 336.88 0 275 C21.45 267.74 42.9 260.48 65 253 C74.24 249.7 83.48 246.4 93 243 C99.30405329 240.88993864 105.60094563 238.78369971 111.92749023 236.74633789 C114.52311825 235.90990995 117.11611362 235.06563583 119.70898438 234.22070312 C121.3878771 233.67663959 123.06690774 233.1330014 124.74609375 232.58984375 C125.50740097 232.34201645 126.26870819 232.09418915 127.05308533 231.83885193 C130.67775121 230.67542304 134.24461937 229.63999042 138 229 C138 228.34 138 227.68 138 227 C137.16573486 226.88640137 136.33146973 226.77280273 135.47192383 226.65576172 C131.65741435 225.93529393 128.10035301 224.79125079 124.44921875 223.5078125 C123.7031134 223.25029709 122.95700806 222.99278168 122.18829346 222.72746277 C120.55291496 222.16280735 118.91822749 221.59614755 117.28414917 221.02774048 C112.71937137 219.44076841 108.14877446 217.87074739 103.578125 216.30078125 C102.09378212 215.79060707 102.09378212 215.79060707 100.57945251 215.27012634 C87.72815419 210.86332751 74.83057179 206.59512438 61.9375 202.3125 C46.1264103 197.05647754 30.3184437 191.79449504 14.5625 186.375 C13.90297333 186.14857819 13.24344666 185.92215637 12.56393433 185.68887329 C2.37220483 182.18610242 2.37220483 182.18610242 0 181 C0 121.27 0 61.54 0 0 Z " fill="#698BC7" transform="translate(510,0)"/>
<path d="M0 0 C1.65 0 3.3 0 5 0 C5 60.39 5 120.78 5 183 C-0.77565863 185.31026345 -6.32850238 187.52470692 -12.19921875 189.453125 C-13.18307053 189.77827087 -13.18307053 189.77827087 -14.1867981 190.10998535 C-15.60651546 190.57907669 -17.02665315 191.0468975 -18.44717407 191.5135498 C-22.43357005 192.82397614 -26.41595224 194.14649508 -30.3984375 195.46875 C-31.24974747 195.75127625 -32.10105743 196.03380249 -32.97816467 196.32489014 C-43.27409941 199.74741115 -53.54348648 203.24770178 -63.8125 206.75 C-64.79602448 207.08533752 -65.77954895 207.42067505 -66.7928772 207.76617432 C-70.82157452 209.13986478 -74.85016867 210.51385691 -78.8785553 211.88845825 C-85.91921418 214.29092885 -92.96111774 216.68971737 -100.00390625 219.0859375 C-100.98626251 219.42018234 -101.96861877 219.75442719 -102.98074341 220.09880066 C-104.95790354 220.77151221 -106.93506621 221.44421629 -108.91223145 222.11691284 C-120.90593219 226.1977904 -132.89936948 230.27940236 -144.88671875 234.37890625 C-166.25733366 241.68679349 -187.64322512 248.9487428 -209.03672028 256.18932343 C-228.26014598 262.69556172 -247.47644433 269.22196149 -266.67922974 275.78890991 C-267.47473236 276.06095245 -268.27023499 276.332995 -269.08984375 276.61328125 C-269.88317108 276.88459869 -270.67649841 277.15591614 -271.49386597 277.43545532 C-280.82273848 280.62488439 -290.15645358 283.80008194 -299.48999023 286.97583008 C-314.61745854 292.12302203 -329.74399213 297.27293689 -344.86639404 302.43499756 C-347.4037887 303.30099454 -349.94139297 304.16637531 -352.47900391 305.03173828 C-360.5126776 307.77298074 -368.54056751 310.52970633 -376.55859375 313.31640625 C-378.06516013 313.8388591 -379.57175131 314.36124045 -381.07836914 314.88354492 C-383.86973263 315.851263 -386.65894709 316.82485418 -389.44702148 317.80200195 C-391.27922241 318.43755005 -391.27922241 318.43755005 -393.1484375 319.0859375 C-394.21239746 319.4576709 -395.27635742 319.8294043 -396.37255859 320.21240234 C-399 321 -399 321 -402 321 C-402 260.61 -402 200.22 -402 138 C-392.74407764 134.52902911 -383.56885203 131.09291302 -374.18701172 128.02075195 C-369.5813025 126.50853713 -364.97959703 124.98444182 -360.37890625 123.45703125 C-359.54552734 123.18048203 -358.71214844 122.9039328 -357.85351562 122.6190033 C-347.67616102 119.23611255 -337.52560961 115.77464023 -327.375 112.3125 C-326.39377167 111.97792786 -325.41254333 111.64335571 -324.40158081 111.29864502 C-320.35867087 109.92008953 -316.31582818 108.5413373 -312.27314758 107.16210938 C-301.89886585 103.62307016 -291.52083837 100.09507546 -281.14248657 96.56799316 C-263.02675071 90.41125021 -244.9133446 84.2476914 -226.80145264 78.07965088 C-212.04618028 73.05499685 -197.28752061 68.04037511 -182.52740479 63.02996826 C-164.14527776 56.79003661 -145.76720792 50.53861274 -127.39916992 44.25732422 C-118.1894506 41.10870611 -108.97583966 37.97187499 -99.7578125 34.84765625 C-78.2160003 27.54433655 -56.6973151 20.18721744 -35.24169922 12.6340332 C-25.69827044 9.27684344 -16.14022912 5.97825108 -6.5144043 2.86279297 C-2.97944846 1.93303699 -2.97944846 1.93303699 0 0 Z " fill="#0095DA" transform="translate(492,456)"/>
<path d="M0 0 C0.93980209 0.32164124 1.87960419 0.64328247 2.84788513 0.97467041 C5.96826324 2.04388767 9.08562671 3.12163681 12.203125 4.19921875 C14.40641691 4.95569609 16.60995413 5.71145929 18.8137207 6.46655273 C22.31505007 7.66633842 25.81620444 8.86661274 29.31660461 10.06910706 C38.22824721 13.12981837 47.14865946 16.16378301 56.07421875 19.18359375 C57.0496847 19.51369729 57.0496847 19.51369729 58.04485703 19.85046959 C63.81381777 21.80263988 69.58318716 23.75360124 75.35266113 25.70425415 C87.78857473 29.91018719 100.22011642 34.1286577 112.62890625 38.4140625 C114.1014814 38.91940269 114.1014814 38.91940269 115.60380554 39.43495178 C116.49421036 39.74379807 117.38461517 40.05264435 118.30200195 40.37084961 C119.47397881 40.77562782 119.47397881 40.77562782 120.66963196 41.18858337 C122.453125 41.88671875 122.453125 41.88671875 123.453125 42.88671875 C123.55074724 45.22698999 123.58310104 47.53770256 123.57337952 49.87843323 C123.57466115 50.98839933 123.57466115 50.98839933 123.57596868 52.12078899 C123.57762569 54.61904288 123.57209853 57.11723073 123.56665039 59.61547852 C123.56636854 61.39885456 123.56652621 63.18223072 123.5670929 64.96560669 C123.56738096 69.82284066 123.56148288 74.68005016 123.55451894 79.53727841 C123.54828679 84.60752823 123.54768171 89.67777856 123.54649353 94.74803162 C123.5433798 104.35635568 123.53516586 113.96466843 123.52514404 123.5729875 C123.51398419 134.50871403 123.50847278 145.44444109 123.50344861 156.3801719 C123.49298328 178.88236047 123.47538304 201.38453897 123.453125 223.88671875 C119.35851823 225.11196248 117.12084706 224.38461595 113.05078125 222.9921875 C112.4025238 222.77372665 111.75426636 222.55526581 111.08636475 222.33018494 C108.89261072 221.58811769 106.70431341 220.83108472 104.515625 220.07421875 C102.93416625 219.53598086 101.35236847 218.99873825 99.77026367 218.46240234 C96.26218574 217.27116643 92.75639212 216.07348005 89.25195312 214.87158203 C83.07933678 212.75600807 76.89937291 210.66235896 70.71875 208.5703125 C49.70593726 201.45422772 28.70640729 194.29915219 7.71517944 187.11965942 C-2.85717121 183.50369512 -13.43535344 179.9054278 -24.01953125 176.32421875 C-28.82039044 174.69944894 -33.62118265 173.07448148 -38.421875 171.44921875 C-39.61749054 171.04445313 -40.81310608 170.6396875 -42.04495239 170.22265625 C-57.82404239 164.87789123 -73.57625925 159.46351818 -89.296875 153.94921875 C-102.38330931 149.35999851 -115.4924519 144.85898546 -128.65750122 140.50045776 C-144.04017659 135.40750206 -159.38946924 130.2171847 -174.734375 125.01171875 C-175.37330688 124.79499638 -176.01223877 124.578274 -176.67053223 124.35498428 C-211.31975835 112.60162291 -245.94001636 100.76417514 -280.546875 88.88671875 C-280.546875 87.56671875 -280.546875 86.24671875 -280.546875 84.88671875 C-273.21839927 81.89622785 -266.04939774 79.31980429 -258.30078125 77.66015625 C-255.13254714 76.77035433 -252.47418291 75.383977 -249.546875 73.88671875 C-240.69733674 70.43139108 -231.63872358 67.62259538 -222.546875 64.88671875 C-214.91211825 62.58383317 -207.34012931 60.26625148 -199.921875 57.32421875 C-195.57005853 55.60062108 -191.24928121 54.18380327 -186.734375 52.94921875 C-181.18183069 51.41999343 -175.8757895 49.54213812 -170.51049805 47.45605469 C-162.25548694 44.30589795 -153.81717038 41.7050405 -145.39404297 39.04614258 C-140.07019618 37.3614326 -134.79551151 35.64632306 -129.58642578 33.63549805 C-125.02904552 31.96234922 -120.36631569 30.58697381 -115.734375 29.13671875 C-107.1263819 26.41691298 -98.6274584 23.51933088 -90.18310547 20.33007812 C-83.91162162 17.97640315 -77.57542098 15.95124574 -71.16015625 14.02734375 C-67.91355223 13.00246983 -64.7591639 11.85813413 -61.58081055 10.64550781 C-58.18517456 9.37871671 -54.74059635 8.26465324 -51.296875 7.13671875 C-43.55400963 4.58471096 -35.85802439 1.91292403 -28.18457031 -0.84082031 C-17.47598662 -4.6420417 -10.59759003 -3.69222899 0 0 Z " fill="#004EA1" transform="translate(373.546875,232.11328125)"/>
<path d="M0 0 C0.95390625 0.29003906 1.9078125 0.58007812 2.890625 0.87890625 C4.67726563 1.46478516 4.67726563 1.46478516 6.5 2.0625 C7.26505859 2.31241699 8.03011719 2.56233398 8.81835938 2.81982422 C14.06685581 4.5394027 19.30289873 6.29424316 24.53466797 8.06396484 C27.90275481 9.1981222 31.27556782 10.31764868 34.6484375 11.4375 C42.01799365 13.88851581 49.36263064 16.4095702 56.70516968 18.94015503 C69.51322205 23.35157533 82.33783818 27.71127767 95.1875 32 C95.84780212 32.22093323 96.50810425 32.44186646 97.18841553 32.66949463 C103.03176209 34.62338023 108.87533541 36.57029187 114.76416016 38.38330078 C115.47514359 38.60240616 116.18612701 38.82151154 116.9186554 39.04725647 C118.26971851 39.46150608 119.62184667 39.87230624 120.9752655 40.27879333 C125.29145334 41.59919857 129.36267045 43.2674103 133.5 45.0625 C135.05816674 45.5843512 136.62671829 46.07698476 138.20703125 46.52734375 C139.04169922 46.77033203 139.87636719 47.01332031 140.73632812 47.26367188 C142.44191025 47.75116578 144.14763752 48.2381522 145.85351562 48.72460938 C150.94679671 50.20835536 155.81114372 51.9560497 160.71606445 53.97143555 C166.45355272 56.22003987 172.3351357 58.07523878 178.1875 60 C179.46038161 60.42093634 180.73316848 60.84215926 182.00585938 61.26367188 C184.55098006 62.10627525 187.09660406 62.94733246 189.64257812 63.78735352 C194.83135666 65.50072454 200.01412243 67.23207353 205.19750977 68.96166992 C207.75814267 69.81521422 210.31967292 70.66574711 212.8828125 71.51171875 C222.48700853 74.68972516 232.0598993 77.9565534 241.625 81.25 C242.87039551 81.67821045 244.11579102 82.1064209 245.39892578 82.54760742 C251.46473474 84.64080804 257.50710934 86.7684633 263.5 89.0625 C260.17662121 91.90318781 256.92111564 93.11037627 252.78125 94.453125 C252.10838455 94.67412872 251.4355191 94.89513245 250.74226379 95.12283325 C249.27337395 95.60454866 247.80337681 96.08289753 246.33242798 96.55828857 C242.26197576 97.87450566 238.20012981 99.21692561 234.13671875 100.5546875 C233.27483444 100.83764679 232.41295013 101.12060608 231.52494812 101.41213989 C221.59458496 104.67699665 211.70343629 108.05546887 201.8125 111.4375 C199.93459226 112.0788403 198.05666244 112.72011598 196.17871094 113.36132812 C191.51290924 114.95483371 186.84757521 116.54970328 182.18243408 118.1451416 C175.52624869 120.42147249 168.86964677 122.6965845 162.21279907 124.97097778 C160.56723048 125.53325773 158.92170249 126.09565654 157.2762146 126.65817261 C146.52060057 130.33468331 135.7591518 133.99357636 124.9921875 137.63671875 C120.20304297 139.25757027 115.41397319 140.87864233 110.625 142.5 C109.4302002 142.90449371 108.23540039 143.30898743 107.00439453 143.72573853 C91.2244847 149.07077477 75.47130065 154.48503577 59.75 160 C45.60582257 164.96155305 31.42700807 169.7961442 17.19775391 174.5078125 C5.31878245 178.44303275 -6.53230942 182.45696505 -18.375 186.5 C-19.76490646 186.97438004 -19.76490646 186.97438004 -21.18289185 187.45834351 C-31.02022525 190.81660449 -40.85469529 194.18319233 -50.6875 197.5546875 C-53.12199734 198.38921371 -55.55652436 199.22365316 -57.99108887 200.0579834 C-59.57617665 200.6012264 -61.16121922 201.14460135 -62.74621582 201.68811035 C-74.39009983 205.67955559 -86.0594256 209.58647968 -97.74755859 213.44628906 C-103.98057504 215.51629453 -110.18776794 217.64311664 -116.3671875 219.8671875 C-117.0117691 220.09910294 -117.65635071 220.33101837 -118.32046509 220.56996155 C-121.39895616 221.68009915 -124.47387393 222.79921932 -127.54541016 223.9284668 C-129.17808838 224.52268433 -129.17808838 224.52268433 -130.84375 225.12890625 C-132.26977539 225.6539978 -132.26977539 225.6539978 -133.72460938 226.18969727 C-136.5 227.0625 -136.5 227.0625 -142.5 228.0625 C-142.5 168.0025 -142.5 107.9425 -142.5 46.0625 C-121.05 38.8025 -99.6 31.5425 -77.5 24.0625 C-68.26 20.7625 -59.02 17.4625 -49.5 14.0625 C-42.36289686 11.69579222 -35.22487741 9.34894321 -28.0625 7.0625 C-25.44839818 6.22449461 -22.83473285 5.38516759 -20.22166443 4.54394531 C-18.63074754 4.03210383 -17.03920834 3.52219066 -15.44691467 3.01464844 C-12.4602794 2.05632942 -9.5220044 1.0715229 -6.61889648 -0.11889648 C-3.92797857 -1.1584918 -2.73845886 -0.84435815 0 0 Z " fill="#8CD5F2" transform="translate(652.5,228.9375)"/>
</svg>
