<svg width="372" height="170" viewBox="0 0 372 170" fill="none" xmlns="http://www.w3.org/2000/svg">
<path d="M356.939 9.52282C356.939 4.26351 361.203 0 366.462 0H372C372 5.25931 367.737 9.52282 362.477 9.52282H356.939Z" fill="white" fill-opacity="0.2"/>
<path d="M356.939 135.788C356.939 141.048 361.203 145.311 366.462 145.311H372C372 140.052 367.737 135.788 362.477 135.788H356.939Z" fill="white" fill-opacity="0.2"/>
<path d="M356.939 160.477C356.939 165.736 361.203 170 366.462 170H372C372 164.741 367.737 160.477 362.477 160.477H356.939Z" fill="white" fill-opacity="0.2"/>
<path d="M356.939 34.2118C356.939 28.9525 361.203 24.689 366.462 24.689H372C372 29.9483 367.737 34.2118 362.477 34.2118H356.939Z" fill="white" fill-opacity="0.2"/>
<path d="M356.939 111.1C356.939 116.359 361.203 120.623 366.462 120.623H372C372 115.363 367.737 111.1 362.477 111.1H356.939Z" fill="white" fill-opacity="0.2"/>
<path d="M356.939 58.9003C356.939 53.641 361.203 49.3774 366.462 49.3774H372C372 54.6368 367.737 58.9003 362.477 58.9003H356.939Z" fill="white" fill-opacity="0.2"/>
<path d="M356.939 86.4108C356.939 91.6701 361.203 95.9336 366.462 95.9336H372C372 90.6743 367.737 86.4108 362.477 86.4108H356.939Z" fill="white" fill-opacity="0.2"/>
<path d="M356.939 83.5892C356.939 78.3299 361.203 74.0664 366.462 74.0664H372C372 79.3257 367.737 83.5892 362.477 83.5892H356.939Z" fill="white" fill-opacity="0.2"/>
<path d="M356.939 61.7223C356.939 66.9816 361.203 71.2451 366.462 71.2451H372C372 65.9858 367.737 61.7223 362.477 61.7223H356.939Z" fill="white" fill-opacity="0.2"/>
<path d="M356.939 108.278C356.939 103.018 361.203 98.7549 366.462 98.7549H372C372 104.014 367.737 108.278 362.477 108.278H356.939Z" fill="white" fill-opacity="0.2"/>
<path d="M356.939 37.0328C356.939 42.2922 361.203 46.5557 366.462 46.5557H372C372 41.2964 367.737 37.0328 362.477 37.0328H356.939Z" fill="white" fill-opacity="0.2"/>
<path d="M356.939 132.967C356.939 127.708 361.203 123.444 366.462 123.444H372C372 128.704 367.737 132.967 362.477 132.967H356.939Z" fill="white" fill-opacity="0.2"/>
<path d="M356.939 12.3444C356.939 17.6037 361.203 21.8672 366.462 21.8672H372C372 16.6079 367.737 12.3444 362.477 12.3444H356.939Z" fill="white" fill-opacity="0.2"/>
<path d="M356.939 157.656C356.939 152.396 361.203 148.133 366.462 148.133H372C372 153.392 367.737 157.656 362.477 157.656H356.939Z" fill="white" fill-opacity="0.2"/>
<path d="M314.77 9.52282C314.77 4.26351 319.033 0 324.292 0H329.83C329.83 5.25931 325.567 9.52282 320.307 9.52282H314.77Z" fill="white" fill-opacity="0.2"/>
<path d="M314.77 135.788C314.77 141.048 319.033 145.311 324.292 145.311H329.83C329.83 140.052 325.567 135.788 320.307 135.788H314.77Z" fill="white" fill-opacity="0.2"/>
<path d="M314.77 160.477C314.77 165.736 319.033 170 324.292 170H329.83C329.83 164.741 325.567 160.477 320.307 160.477H314.77Z" fill="white" fill-opacity="0.2"/>
<path d="M314.77 34.2118C314.77 28.9525 319.033 24.689 324.292 24.689H329.83C329.83 29.9483 325.567 34.2118 320.307 34.2118H314.77Z" fill="white" fill-opacity="0.2"/>
<path d="M314.77 111.1C314.77 116.359 319.033 120.623 324.292 120.623H329.83C329.83 115.363 325.567 111.1 320.307 111.1H314.77Z" fill="white" fill-opacity="0.2"/>
<path d="M314.77 58.9003C314.77 53.641 319.033 49.3774 324.292 49.3774H329.83C329.83 54.6368 325.567 58.9003 320.307 58.9003H314.77Z" fill="white" fill-opacity="0.2"/>
<path d="M314.77 86.4108C314.77 91.6701 319.033 95.9336 324.292 95.9336H329.83C329.83 90.6743 325.567 86.4108 320.307 86.4108H314.77Z" fill="white" fill-opacity="0.2"/>
<path d="M314.77 83.5892C314.77 78.3299 319.033 74.0664 324.292 74.0664H329.83C329.83 79.3257 325.567 83.5892 320.307 83.5892H314.77Z" fill="white" fill-opacity="0.2"/>
<path d="M314.77 61.7223C314.77 66.9816 319.033 71.2451 324.292 71.2451H329.83C329.83 65.9858 325.567 61.7223 320.307 61.7223H314.77Z" fill="white" fill-opacity="0.2"/>
<path d="M314.77 108.278C314.77 103.018 319.033 98.7549 324.292 98.7549H329.83C329.83 104.014 325.567 108.278 320.307 108.278H314.77Z" fill="white" fill-opacity="0.2"/>
<path d="M314.77 37.0328C314.77 42.2922 319.033 46.5557 324.292 46.5557H329.83C329.83 41.2964 325.567 37.0328 320.307 37.0328H314.77Z" fill="white" fill-opacity="0.2"/>
<path d="M314.77 132.967C314.77 127.708 319.033 123.444 324.292 123.444H329.83C329.83 128.704 325.567 132.967 320.307 132.967H314.77Z" fill="white" fill-opacity="0.2"/>
<path d="M314.77 12.3444C314.77 17.6037 319.033 21.8672 324.292 21.8672H329.83C329.83 16.6079 325.567 12.3444 320.307 12.3444H314.77Z" fill="white" fill-opacity="0.2"/>
<path d="M314.77 157.656C314.77 152.396 319.033 148.133 324.292 148.133H329.83C329.83 153.392 325.567 157.656 320.307 157.656H314.77Z" fill="white" fill-opacity="0.2"/>
<path d="M272.598 9.52282C272.598 4.26351 276.861 0 282.12 0H287.658C287.658 5.25931 283.395 9.52282 278.136 9.52282H272.598Z" fill="white" fill-opacity="0.2"/>
<path d="M272.598 135.788C272.598 141.048 276.861 145.311 282.12 145.311H287.658C287.658 140.052 283.395 135.788 278.136 135.788H272.598Z" fill="white" fill-opacity="0.2"/>
<path d="M272.598 160.477C272.598 165.736 276.861 170 282.12 170H287.658C287.658 164.741 283.395 160.477 278.136 160.477H272.598Z" fill="white" fill-opacity="0.2"/>
<path d="M272.598 34.2118C272.598 28.9525 276.861 24.689 282.12 24.689H287.658C287.658 29.9483 283.395 34.2118 278.136 34.2118H272.598Z" fill="white" fill-opacity="0.2"/>
<path d="M272.598 111.1C272.598 116.359 276.861 120.623 282.12 120.623H287.658C287.658 115.363 283.395 111.1 278.136 111.1H272.598Z" fill="white" fill-opacity="0.2"/>
<path d="M272.598 58.9003C272.598 53.641 276.861 49.3774 282.12 49.3774H287.658C287.658 54.6368 283.395 58.9003 278.136 58.9003H272.598Z" fill="white" fill-opacity="0.2"/>
<path d="M272.598 86.4108C272.598 91.6701 276.861 95.9336 282.12 95.9336H287.658C287.658 90.6743 283.395 86.4108 278.136 86.4108H272.598Z" fill="white" fill-opacity="0.2"/>
<path d="M272.598 83.5892C272.598 78.3299 276.861 74.0664 282.12 74.0664H287.658C287.658 79.3257 283.395 83.5892 278.136 83.5892H272.598Z" fill="white" fill-opacity="0.2"/>
<path d="M272.598 61.7223C272.598 66.9816 276.861 71.2451 282.12 71.2451H287.658C287.658 65.9858 283.395 61.7223 278.136 61.7223H272.598Z" fill="white" fill-opacity="0.2"/>
<path d="M272.598 108.278C272.598 103.018 276.861 98.7549 282.12 98.7549H287.658C287.658 104.014 283.395 108.278 278.136 108.278H272.598Z" fill="white" fill-opacity="0.2"/>
<path d="M272.598 37.0328C272.598 42.2922 276.861 46.5557 282.12 46.5557H287.658C287.658 41.2964 283.395 37.0328 278.136 37.0328H272.598Z" fill="white" fill-opacity="0.2"/>
<path d="M272.598 132.967C272.598 127.708 276.861 123.444 282.12 123.444H287.658C287.658 128.704 283.395 132.967 278.136 132.967H272.598Z" fill="white" fill-opacity="0.2"/>
<path d="M272.598 12.3444C272.598 17.6037 276.861 21.8672 282.12 21.8672H287.658C287.658 16.6079 283.395 12.3444 278.136 12.3444H272.598Z" fill="white" fill-opacity="0.2"/>
<path d="M272.598 157.656C272.598 152.396 276.861 148.133 282.12 148.133H287.658C287.658 153.392 283.395 157.656 278.136 157.656H272.598Z" fill="white" fill-opacity="0.2"/>
<path d="M230.432 9.52282C230.432 4.26351 234.695 0 239.954 0H245.492C245.492 5.25931 241.229 9.52282 235.97 9.52282H230.432Z" fill="white" fill-opacity="0.2"/>
<path d="M230.432 135.788C230.432 141.048 234.695 145.311 239.954 145.311H245.492C245.492 140.052 241.229 135.788 235.97 135.788H230.432Z" fill="white" fill-opacity="0.2"/>
<path d="M230.432 160.477C230.432 165.736 234.695 170 239.954 170H245.492C245.492 164.741 241.229 160.477 235.97 160.477H230.432Z" fill="white" fill-opacity="0.2"/>
<path d="M230.432 34.2118C230.432 28.9525 234.695 24.689 239.954 24.689H245.492C245.492 29.9483 241.229 34.2118 235.97 34.2118H230.432Z" fill="white" fill-opacity="0.2"/>
<path d="M230.432 111.1C230.432 116.359 234.695 120.623 239.954 120.623H245.492C245.492 115.363 241.229 111.1 235.97 111.1H230.432Z" fill="white" fill-opacity="0.2"/>
<path d="M230.432 58.9003C230.432 53.641 234.695 49.3774 239.954 49.3774H245.492C245.492 54.6368 241.229 58.9003 235.97 58.9003H230.432Z" fill="white" fill-opacity="0.2"/>
<path d="M230.432 86.4108C230.432 91.6701 234.695 95.9336 239.954 95.9336H245.492C245.492 90.6743 241.229 86.4108 235.97 86.4108H230.432Z" fill="white" fill-opacity="0.2"/>
<path d="M230.432 83.5892C230.432 78.3299 234.695 74.0664 239.954 74.0664H245.492C245.492 79.3257 241.229 83.5892 235.97 83.5892H230.432Z" fill="white" fill-opacity="0.2"/>
<path d="M230.432 61.7223C230.432 66.9816 234.695 71.2451 239.954 71.2451H245.492C245.492 65.9858 241.229 61.7223 235.97 61.7223H230.432Z" fill="white" fill-opacity="0.2"/>
<path d="M230.432 108.278C230.432 103.018 234.695 98.7549 239.954 98.7549H245.492C245.492 104.014 241.229 108.278 235.97 108.278H230.432Z" fill="white" fill-opacity="0.2"/>
<path d="M230.432 37.0328C230.432 42.2922 234.695 46.5557 239.954 46.5557H245.492C245.492 41.2964 241.229 37.0328 235.97 37.0328H230.432Z" fill="white" fill-opacity="0.2"/>
<path d="M230.432 132.967C230.432 127.708 234.695 123.444 239.954 123.444H245.492C245.492 128.704 241.229 132.967 235.97 132.967H230.432Z" fill="white" fill-opacity="0.2"/>
<path d="M230.432 12.3444C230.432 17.6037 234.695 21.8672 239.954 21.8672H245.492C245.492 16.6079 241.229 12.3444 235.97 12.3444H230.432Z" fill="white" fill-opacity="0.2"/>
<path d="M230.432 157.656C230.432 152.396 234.695 148.133 239.954 148.133H245.492C245.492 153.392 241.229 157.656 235.97 157.656H230.432Z" fill="white" fill-opacity="0.2"/>
<path d="M188.26 9.52282C188.26 4.26351 192.523 0 197.783 0H203.32C203.32 5.25931 199.057 9.52282 193.798 9.52282H188.26Z" fill="white" fill-opacity="0.2"/>
<path d="M188.26 135.788C188.26 141.048 192.523 145.311 197.783 145.311H203.32C203.32 140.052 199.057 135.788 193.798 135.788H188.26Z" fill="white" fill-opacity="0.2"/>
<path d="M188.26 160.477C188.26 165.736 192.523 170 197.783 170H203.32C203.32 164.741 199.057 160.477 193.798 160.477H188.26Z" fill="white" fill-opacity="0.2"/>
<path d="M188.26 34.2118C188.26 28.9525 192.523 24.689 197.783 24.689H203.32C203.32 29.9483 199.057 34.2118 193.798 34.2118H188.26Z" fill="white" fill-opacity="0.2"/>
<path d="M188.26 111.1C188.26 116.359 192.523 120.623 197.783 120.623H203.32C203.32 115.363 199.057 111.1 193.798 111.1H188.26Z" fill="white" fill-opacity="0.2"/>
<path d="M188.26 58.9003C188.26 53.641 192.523 49.3774 197.783 49.3774H203.32C203.32 54.6368 199.057 58.9003 193.798 58.9003H188.26Z" fill="white" fill-opacity="0.2"/>
<path d="M188.26 86.4108C188.26 91.6701 192.523 95.9336 197.783 95.9336H203.32C203.32 90.6743 199.057 86.4108 193.798 86.4108H188.26Z" fill="white" fill-opacity="0.2"/>
<path d="M188.26 83.5892C188.26 78.3299 192.523 74.0664 197.783 74.0664H203.32C203.32 79.3257 199.057 83.5892 193.798 83.5892H188.26Z" fill="white" fill-opacity="0.2"/>
<path d="M188.26 61.7223C188.26 66.9816 192.523 71.2451 197.783 71.2451H203.32C203.32 65.9858 199.057 61.7223 193.798 61.7223H188.26Z" fill="white" fill-opacity="0.2"/>
<path d="M188.26 108.278C188.26 103.018 192.523 98.7549 197.783 98.7549H203.32C203.32 104.014 199.057 108.278 193.798 108.278H188.26Z" fill="white" fill-opacity="0.2"/>
<path d="M188.26 37.0328C188.26 42.2922 192.523 46.5557 197.783 46.5557H203.32C203.32 41.2964 199.057 37.0328 193.798 37.0328H188.26Z" fill="white" fill-opacity="0.2"/>
<path d="M188.26 132.967C188.26 127.708 192.523 123.444 197.783 123.444H203.32C203.32 128.704 199.057 132.967 193.798 132.967H188.26Z" fill="white" fill-opacity="0.2"/>
<path d="M188.26 12.3444C188.26 17.6037 192.523 21.8672 197.783 21.8672H203.32C203.32 16.6079 199.057 12.3444 193.798 12.3444H188.26Z" fill="white" fill-opacity="0.2"/>
<path d="M188.26 157.656C188.26 152.396 192.523 148.133 197.783 148.133H203.32C203.32 153.392 199.057 157.656 193.798 157.656H188.26Z" fill="white" fill-opacity="0.2"/>
<path d="M146.09 9.52282C146.09 4.26351 150.353 0 155.613 0H161.151C161.151 5.25931 156.887 9.52282 151.628 9.52282H146.09Z" fill="white" fill-opacity="0.2"/>
<path d="M146.09 135.788C146.09 141.048 150.353 145.311 155.613 145.311H161.151C161.151 140.052 156.887 135.788 151.628 135.788H146.09Z" fill="white" fill-opacity="0.2"/>
<path d="M146.09 160.477C146.09 165.736 150.353 170 155.613 170H161.151C161.151 164.741 156.887 160.477 151.628 160.477H146.09Z" fill="white" fill-opacity="0.2"/>
<path d="M146.09 34.2118C146.09 28.9525 150.353 24.689 155.613 24.689H161.151C161.151 29.9483 156.887 34.2118 151.628 34.2118H146.09Z" fill="white" fill-opacity="0.2"/>
<path d="M146.09 111.1C146.09 116.359 150.353 120.623 155.613 120.623H161.151C161.151 115.363 156.887 111.1 151.628 111.1H146.09Z" fill="white" fill-opacity="0.2"/>
<path d="M146.09 58.9003C146.09 53.641 150.353 49.3774 155.613 49.3774H161.151C161.151 54.6368 156.887 58.9003 151.628 58.9003H146.09Z" fill="white" fill-opacity="0.2"/>
<path d="M146.09 86.4108C146.09 91.6701 150.353 95.9336 155.613 95.9336H161.151C161.151 90.6743 156.887 86.4108 151.628 86.4108H146.09Z" fill="white" fill-opacity="0.2"/>
<path d="M146.09 83.5892C146.09 78.3299 150.353 74.0664 155.613 74.0664H161.151C161.151 79.3257 156.887 83.5892 151.628 83.5892H146.09Z" fill="white" fill-opacity="0.2"/>
<path d="M146.09 61.7223C146.09 66.9816 150.353 71.2451 155.613 71.2451H161.151C161.151 65.9858 156.887 61.7223 151.628 61.7223H146.09Z" fill="white" fill-opacity="0.2"/>
<path d="M146.09 108.278C146.09 103.018 150.353 98.7549 155.613 98.7549H161.151C161.151 104.014 156.887 108.278 151.628 108.278H146.09Z" fill="white" fill-opacity="0.2"/>
<path d="M146.09 37.0328C146.09 42.2922 150.353 46.5557 155.613 46.5557H161.151C161.151 41.2964 156.887 37.0328 151.628 37.0328H146.09Z" fill="white" fill-opacity="0.2"/>
<path d="M146.09 132.967C146.09 127.708 150.353 123.444 155.613 123.444H161.151C161.151 128.704 156.887 132.967 151.628 132.967H146.09Z" fill="white" fill-opacity="0.2"/>
<path d="M146.09 12.3444C146.09 17.6037 150.353 21.8672 155.613 21.8672H161.151C161.151 16.6079 156.887 12.3444 151.628 12.3444H146.09Z" fill="white" fill-opacity="0.2"/>
<path d="M146.09 157.656C146.09 152.396 150.353 148.133 155.613 148.133H161.151C161.151 153.392 156.887 157.656 151.628 157.656H146.09Z" fill="white" fill-opacity="0.2"/>
<path d="M103.922 9.52282C103.922 4.26351 108.185 0 113.445 0H118.983C118.983 5.25931 114.719 9.52282 109.46 9.52282H103.922Z" fill="white" fill-opacity="0.2"/>
<path d="M103.922 135.788C103.922 141.048 108.185 145.311 113.445 145.311H118.983C118.983 140.052 114.719 135.788 109.46 135.788H103.922Z" fill="white" fill-opacity="0.2"/>
<path d="M103.922 160.477C103.922 165.736 108.185 170 113.445 170H118.983C118.983 164.741 114.719 160.477 109.46 160.477H103.922Z" fill="white" fill-opacity="0.2"/>
<path d="M103.922 34.2118C103.922 28.9525 108.185 24.689 113.445 24.689H118.983C118.983 29.9483 114.719 34.2118 109.46 34.2118H103.922Z" fill="white" fill-opacity="0.2"/>
<path d="M103.922 111.1C103.922 116.359 108.185 120.623 113.445 120.623H118.983C118.983 115.363 114.719 111.1 109.46 111.1H103.922Z" fill="white" fill-opacity="0.2"/>
<path d="M103.922 58.9003C103.922 53.641 108.185 49.3774 113.445 49.3774H118.983C118.983 54.6368 114.719 58.9003 109.46 58.9003H103.922Z" fill="white" fill-opacity="0.2"/>
<path d="M103.922 86.4108C103.922 91.6701 108.185 95.9336 113.445 95.9336H118.983C118.983 90.6743 114.719 86.4108 109.46 86.4108H103.922Z" fill="white" fill-opacity="0.2"/>
<path d="M103.922 83.5892C103.922 78.3299 108.185 74.0664 113.445 74.0664H118.983C118.983 79.3257 114.719 83.5892 109.46 83.5892H103.922Z" fill="white" fill-opacity="0.2"/>
<path d="M103.922 61.7223C103.922 66.9816 108.185 71.2451 113.445 71.2451H118.983C118.983 65.9858 114.719 61.7223 109.46 61.7223H103.922Z" fill="white" fill-opacity="0.2"/>
<path d="M103.922 108.278C103.922 103.018 108.185 98.7549 113.445 98.7549H118.983C118.983 104.014 114.719 108.278 109.46 108.278H103.922Z" fill="white" fill-opacity="0.2"/>
<path d="M103.922 37.0328C103.922 42.2922 108.185 46.5557 113.445 46.5557H118.983C118.983 41.2964 114.719 37.0328 109.46 37.0328H103.922Z" fill="white" fill-opacity="0.2"/>
<path d="M103.922 132.967C103.922 127.708 108.185 123.444 113.445 123.444H118.983C118.983 128.704 114.719 132.967 109.46 132.967H103.922Z" fill="white" fill-opacity="0.2"/>
<path d="M103.922 12.3444C103.922 17.6037 108.185 21.8672 113.445 21.8672H118.983C118.983 16.6079 114.719 12.3444 109.46 12.3444H103.922Z" fill="white" fill-opacity="0.2"/>
<path d="M103.922 157.656C103.922 152.396 108.185 148.133 113.445 148.133H118.983C118.983 153.392 114.719 157.656 109.46 157.656H103.922Z" fill="white" fill-opacity="0.2"/>
<path d="M61.75 9.52282C61.75 4.26351 66.0135 0 71.2728 0H76.8107C76.8107 5.25931 72.5472 9.52282 67.2879 9.52282H61.75Z" fill="white" fill-opacity="0.2"/>
<path d="M61.75 135.788C61.75 141.048 66.0135 145.311 71.2728 145.311H76.8107C76.8107 140.052 72.5472 135.788 67.2879 135.788H61.75Z" fill="white" fill-opacity="0.2"/>
<path d="M61.75 160.477C61.75 165.736 66.0135 170 71.2728 170H76.8107C76.8107 164.741 72.5472 160.477 67.2879 160.477H61.75Z" fill="white" fill-opacity="0.2"/>
<path d="M61.75 34.2118C61.75 28.9525 66.0135 24.689 71.2728 24.689H76.8107C76.8107 29.9483 72.5472 34.2118 67.2879 34.2118H61.75Z" fill="white" fill-opacity="0.2"/>
<path d="M61.75 111.1C61.75 116.359 66.0135 120.623 71.2728 120.623H76.8107C76.8107 115.363 72.5472 111.1 67.2879 111.1H61.75Z" fill="white" fill-opacity="0.2"/>
<path d="M61.75 58.9003C61.75 53.641 66.0135 49.3774 71.2728 49.3774H76.8107C76.8107 54.6368 72.5472 58.9003 67.2879 58.9003H61.75Z" fill="white" fill-opacity="0.2"/>
<path d="M61.75 86.4108C61.75 91.6701 66.0135 95.9336 71.2728 95.9336H76.8107C76.8107 90.6743 72.5472 86.4108 67.2879 86.4108H61.75Z" fill="white" fill-opacity="0.2"/>
<path d="M61.75 83.5892C61.75 78.3299 66.0135 74.0664 71.2728 74.0664H76.8107C76.8107 79.3257 72.5472 83.5892 67.2879 83.5892H61.75Z" fill="white" fill-opacity="0.2"/>
<path d="M61.75 61.7223C61.75 66.9816 66.0135 71.2451 71.2728 71.2451H76.8107C76.8107 65.9858 72.5472 61.7223 67.2879 61.7223H61.75Z" fill="white" fill-opacity="0.2"/>
<path d="M61.75 108.278C61.75 103.018 66.0135 98.7549 71.2728 98.7549H76.8107C76.8107 104.014 72.5472 108.278 67.2879 108.278H61.75Z" fill="white" fill-opacity="0.2"/>
<path d="M61.75 37.0328C61.75 42.2922 66.0135 46.5557 71.2728 46.5557H76.8107C76.8107 41.2964 72.5472 37.0328 67.2879 37.0328H61.75Z" fill="white" fill-opacity="0.2"/>
<path d="M61.75 132.967C61.75 127.708 66.0135 123.444 71.2728 123.444H76.8107C76.8107 128.704 72.5472 132.967 67.2879 132.967H61.75Z" fill="white" fill-opacity="0.2"/>
<path d="M61.75 12.3444C61.75 17.6037 66.0135 21.8672 71.2728 21.8672H76.8107C76.8107 16.6079 72.5472 12.3444 67.2879 12.3444H61.75Z" fill="white" fill-opacity="0.2"/>
<path d="M61.75 157.656C61.75 152.396 66.0135 148.133 71.2728 148.133H76.8107C76.8107 153.392 72.5472 157.656 67.2879 157.656H61.75Z" fill="white" fill-opacity="0.2"/>
<path d="M21.0879 9.52282C21.0879 4.26351 25.3514 0 30.6107 0H36.1486C36.1486 5.25931 31.8851 9.52282 26.6258 9.52282H21.0879Z" fill="white" fill-opacity="0.2"/>
<path d="M21.0879 135.788C21.0879 141.048 25.3514 145.311 30.6107 145.311H36.1486C36.1486 140.052 31.8851 135.788 26.6258 135.788H21.0879Z" fill="white" fill-opacity="0.2"/>
<path d="M21.0879 160.477C21.0879 165.736 25.3514 170 30.6107 170H36.1486C36.1486 164.741 31.8851 160.477 26.6258 160.477H21.0879Z" fill="white" fill-opacity="0.2"/>
<path d="M21.0879 34.2118C21.0879 28.9525 25.3514 24.689 30.6107 24.689H36.1486C36.1486 29.9483 31.8851 34.2118 26.6258 34.2118H21.0879Z" fill="white" fill-opacity="0.2"/>
<path d="M21.0879 111.1C21.0879 116.359 25.3514 120.623 30.6107 120.623H36.1486C36.1486 115.363 31.8851 111.1 26.6258 111.1H21.0879Z" fill="white" fill-opacity="0.2"/>
<path d="M21.0879 58.9003C21.0879 53.641 25.3514 49.3774 30.6107 49.3774H36.1486C36.1486 54.6368 31.8851 58.9003 26.6258 58.9003H21.0879Z" fill="white" fill-opacity="0.2"/>
<path d="M21.0879 86.4108C21.0879 91.6701 25.3514 95.9336 30.6107 95.9336H36.1486C36.1486 90.6743 31.8851 86.4108 26.6258 86.4108H21.0879Z" fill="white" fill-opacity="0.2"/>
<path d="M21.0879 83.5892C21.0879 78.3299 25.3514 74.0664 30.6107 74.0664H36.1486C36.1486 79.3257 31.8851 83.5892 26.6258 83.5892H21.0879Z" fill="white" fill-opacity="0.2"/>
<path d="M21.0879 61.7223C21.0879 66.9816 25.3514 71.2451 30.6107 71.2451H36.1486C36.1486 65.9858 31.8851 61.7223 26.6258 61.7223H21.0879Z" fill="white" fill-opacity="0.2"/>
<path d="M21.0879 108.278C21.0879 103.018 25.3514 98.7549 30.6107 98.7549H36.1486C36.1486 104.014 31.8851 108.278 26.6258 108.278H21.0879Z" fill="white" fill-opacity="0.2"/>
<path d="M21.0879 37.0328C21.0879 42.2922 25.3514 46.5557 30.6107 46.5557H36.1486C36.1486 41.2964 31.8851 37.0328 26.6258 37.0328H21.0879Z" fill="white" fill-opacity="0.2"/>
<path d="M21.0879 132.967C21.0879 127.708 25.3514 123.444 30.6107 123.444H36.1486C36.1486 128.704 31.8851 132.967 26.6258 132.967H21.0879Z" fill="white" fill-opacity="0.2"/>
<path d="M21.0879 12.3444C21.0879 17.6037 25.3514 21.8672 30.6107 21.8672H36.1486C36.1486 16.6079 31.8851 12.3444 26.6258 12.3444H21.0879Z" fill="white" fill-opacity="0.2"/>
<path d="M21.0879 157.656C21.0879 152.396 25.3514 148.133 30.6107 148.133H36.1486C36.1486 153.392 31.8851 157.656 26.6258 157.656H21.0879Z" fill="white" fill-opacity="0.2"/>
<path d="M350.916 160.477C350.916 165.736 346.653 170 341.393 170H335.855C335.855 164.741 340.119 160.477 345.378 160.477H350.916Z" fill="white" fill-opacity="0.2"/>
<path d="M350.916 34.2118C350.916 28.9525 346.653 24.689 341.393 24.689H335.855C335.855 29.9483 340.119 34.2118 345.378 34.2118H350.916Z" fill="white" fill-opacity="0.2"/>
<path d="M350.916 9.52282C350.916 4.26351 346.653 0 341.393 0H335.855C335.855 5.25931 340.119 9.52282 345.378 9.52282H350.916Z" fill="white" fill-opacity="0.2"/>
<path d="M350.916 135.788C350.916 141.048 346.653 145.311 341.393 145.311H335.855C335.855 140.052 340.119 135.788 345.378 135.788H350.916Z" fill="white" fill-opacity="0.2"/>
<path d="M350.916 58.9003C350.916 53.641 346.653 49.3774 341.393 49.3774H335.855C335.855 54.6368 340.119 58.9003 345.378 58.9003H350.916Z" fill="white" fill-opacity="0.2"/>
<path d="M350.916 111.1C350.916 116.359 346.653 120.623 341.393 120.623H335.855C335.855 115.363 340.119 111.1 345.378 111.1H350.916Z" fill="white" fill-opacity="0.2"/>
<path d="M350.916 83.5892C350.916 78.3299 346.653 74.0664 341.393 74.0664H335.855C335.855 79.3257 340.119 83.5892 345.378 83.5892H350.916Z" fill="white" fill-opacity="0.2"/>
<path d="M350.916 86.4108C350.916 91.6701 346.653 95.9336 341.393 95.9336H335.855C335.855 90.6743 340.119 86.4108 345.378 86.4108H350.916Z" fill="white" fill-opacity="0.2"/>
<path d="M350.916 108.278C350.916 103.018 346.653 98.7549 341.393 98.7549H335.855C335.855 104.014 340.119 108.278 345.378 108.278H350.916Z" fill="white" fill-opacity="0.2"/>
<path d="M350.916 61.7223C350.916 66.9816 346.653 71.2451 341.393 71.2451H335.855C335.855 65.9858 340.119 61.7223 345.378 61.7223H350.916Z" fill="white" fill-opacity="0.2"/>
<path d="M350.916 132.967C350.916 127.708 346.653 123.444 341.393 123.444H335.855C335.855 128.704 340.119 132.967 345.378 132.967H350.916Z" fill="white" fill-opacity="0.2"/>
<path d="M350.916 37.0328C350.916 42.2922 346.653 46.5557 341.393 46.5557H335.855C335.855 41.2964 340.119 37.0328 345.378 37.0328H350.916Z" fill="white" fill-opacity="0.2"/>
<path d="M350.916 157.656C350.916 152.396 346.653 148.133 341.393 148.133H335.855C335.855 153.392 340.119 157.656 345.378 157.656H350.916Z" fill="white" fill-opacity="0.2"/>
<path d="M350.916 12.3444C350.916 17.6037 346.653 21.8672 341.393 21.8672H335.855C335.855 16.6079 340.119 12.3444 345.378 12.3444H350.916Z" fill="white" fill-opacity="0.2"/>
<path d="M308.746 160.477C308.746 165.736 304.483 170 299.223 170H293.685C293.685 164.741 297.949 160.477 303.208 160.477H308.746Z" fill="white" fill-opacity="0.2"/>
<path d="M308.746 34.2118C308.746 28.9525 304.483 24.689 299.223 24.689H293.685C293.685 29.9483 297.949 34.2118 303.208 34.2118H308.746Z" fill="white" fill-opacity="0.2"/>
<path d="M308.746 9.52282C308.746 4.26351 304.483 0 299.223 0H293.685C293.685 5.25931 297.949 9.52282 303.208 9.52282H308.746Z" fill="white" fill-opacity="0.2"/>
<path d="M308.746 135.788C308.746 141.048 304.483 145.311 299.223 145.311H293.685C293.685 140.052 297.949 135.788 303.208 135.788H308.746Z" fill="white" fill-opacity="0.2"/>
<path d="M308.746 58.9003C308.746 53.641 304.483 49.3774 299.223 49.3774H293.685C293.685 54.6368 297.949 58.9003 303.208 58.9003H308.746Z" fill="white" fill-opacity="0.2"/>
<path d="M308.746 111.1C308.746 116.359 304.483 120.623 299.223 120.623H293.685C293.685 115.363 297.949 111.1 303.208 111.1H308.746Z" fill="white" fill-opacity="0.2"/>
<path d="M308.746 83.5892C308.746 78.3299 304.483 74.0664 299.223 74.0664H293.685C293.685 79.3257 297.949 83.5892 303.208 83.5892H308.746Z" fill="white" fill-opacity="0.2"/>
<path d="M308.746 86.4108C308.746 91.6701 304.483 95.9336 299.223 95.9336H293.685C293.685 90.6743 297.949 86.4108 303.208 86.4108H308.746Z" fill="white" fill-opacity="0.2"/>
<path d="M308.746 108.278C308.746 103.018 304.483 98.7549 299.223 98.7549H293.685C293.685 104.014 297.949 108.278 303.208 108.278H308.746Z" fill="white" fill-opacity="0.2"/>
<path d="M308.746 61.7223C308.746 66.9816 304.483 71.2451 299.223 71.2451H293.685C293.685 65.9858 297.949 61.7223 303.208 61.7223H308.746Z" fill="white" fill-opacity="0.2"/>
<path d="M308.746 132.967C308.746 127.708 304.483 123.444 299.223 123.444H293.685C293.685 128.704 297.949 132.967 303.208 132.967H308.746Z" fill="white" fill-opacity="0.2"/>
<path d="M308.746 37.0328C308.746 42.2922 304.483 46.5557 299.223 46.5557H293.685C293.685 41.2964 297.949 37.0328 303.208 37.0328H308.746Z" fill="white" fill-opacity="0.2"/>
<path d="M308.746 157.656C308.746 152.396 304.483 148.133 299.223 148.133H293.685C293.685 153.392 297.949 157.656 303.208 157.656H308.746Z" fill="white" fill-opacity="0.2"/>
<path d="M308.746 12.3444C308.746 17.6037 304.483 21.8672 299.223 21.8672H293.685C293.685 16.6079 297.949 12.3444 303.208 12.3444H308.746Z" fill="white" fill-opacity="0.2"/>
<path d="M266.578 160.477C266.578 165.736 262.315 170 257.055 170H251.517C251.517 164.741 255.781 160.477 261.04 160.477H266.578Z" fill="white" fill-opacity="0.2"/>
<path d="M266.578 34.2118C266.578 28.9525 262.315 24.689 257.055 24.689H251.517C251.517 29.9483 255.781 34.2118 261.04 34.2118H266.578Z" fill="white" fill-opacity="0.2"/>
<path d="M266.578 9.52282C266.578 4.26351 262.315 0 257.055 0H251.517C251.517 5.25931 255.781 9.52282 261.04 9.52282H266.578Z" fill="white" fill-opacity="0.2"/>
<path d="M266.578 135.788C266.578 141.048 262.315 145.311 257.055 145.311H251.517C251.517 140.052 255.781 135.788 261.04 135.788H266.578Z" fill="white" fill-opacity="0.2"/>
<path d="M266.578 58.9003C266.578 53.641 262.315 49.3774 257.055 49.3774H251.517C251.517 54.6368 255.781 58.9003 261.04 58.9003H266.578Z" fill="white" fill-opacity="0.2"/>
<path d="M266.578 111.1C266.578 116.359 262.315 120.623 257.055 120.623H251.517C251.517 115.363 255.781 111.1 261.04 111.1H266.578Z" fill="white" fill-opacity="0.2"/>
<path d="M266.578 83.5892C266.578 78.3299 262.315 74.0664 257.055 74.0664H251.517C251.517 79.3257 255.781 83.5892 261.04 83.5892H266.578Z" fill="white" fill-opacity="0.2"/>
<path d="M266.578 86.4108C266.578 91.6701 262.315 95.9336 257.055 95.9336H251.517C251.517 90.6743 255.781 86.4108 261.04 86.4108H266.578Z" fill="white" fill-opacity="0.2"/>
<path d="M266.578 108.278C266.578 103.018 262.315 98.7549 257.055 98.7549H251.517C251.517 104.014 255.781 108.278 261.04 108.278H266.578Z" fill="white" fill-opacity="0.2"/>
<path d="M266.578 61.7223C266.578 66.9816 262.315 71.2451 257.055 71.2451H251.517C251.517 65.9858 255.781 61.7223 261.04 61.7223H266.578Z" fill="white" fill-opacity="0.2"/>
<path d="M266.578 132.967C266.578 127.708 262.315 123.444 257.055 123.444H251.517C251.517 128.704 255.781 132.967 261.04 132.967H266.578Z" fill="white" fill-opacity="0.2"/>
<path d="M266.578 37.0328C266.578 42.2922 262.315 46.5557 257.055 46.5557H251.517C251.517 41.2964 255.781 37.0328 261.04 37.0328H266.578Z" fill="white" fill-opacity="0.2"/>
<path d="M266.578 157.656C266.578 152.396 262.315 148.133 257.055 148.133H251.517C251.517 153.392 255.781 157.656 261.04 157.656H266.578Z" fill="white" fill-opacity="0.2"/>
<path d="M266.578 12.3444C266.578 17.6037 262.315 21.8672 257.055 21.8672H251.517C251.517 16.6079 255.781 12.3444 261.04 12.3444H266.578Z" fill="white" fill-opacity="0.2"/>
<path d="M224.404 160.477C224.404 165.736 220.141 170 214.881 170H209.344C209.344 164.741 213.607 160.477 218.866 160.477H224.404Z" fill="white" fill-opacity="0.2"/>
<path d="M224.404 34.2118C224.404 28.9525 220.141 24.689 214.881 24.689H209.344C209.344 29.9483 213.607 34.2118 218.866 34.2118H224.404Z" fill="white" fill-opacity="0.2"/>
<path d="M224.404 9.52282C224.404 4.26351 220.141 0 214.881 0H209.344C209.344 5.25931 213.607 9.52282 218.866 9.52282H224.404Z" fill="white" fill-opacity="0.2"/>
<path d="M224.404 135.788C224.404 141.048 220.141 145.311 214.881 145.311H209.344C209.344 140.052 213.607 135.788 218.866 135.788H224.404Z" fill="white" fill-opacity="0.2"/>
<path d="M224.404 58.9003C224.404 53.641 220.141 49.3774 214.881 49.3774H209.344C209.344 54.6368 213.607 58.9003 218.866 58.9003H224.404Z" fill="white" fill-opacity="0.2"/>
<path d="M224.404 111.1C224.404 116.359 220.141 120.623 214.881 120.623H209.344C209.344 115.363 213.607 111.1 218.866 111.1H224.404Z" fill="white" fill-opacity="0.2"/>
<path d="M224.404 83.5892C224.404 78.3299 220.141 74.0664 214.881 74.0664H209.344C209.344 79.3257 213.607 83.5892 218.866 83.5892H224.404Z" fill="white" fill-opacity="0.2"/>
<path d="M224.404 86.4108C224.404 91.6701 220.141 95.9336 214.881 95.9336H209.344C209.344 90.6743 213.607 86.4108 218.866 86.4108H224.404Z" fill="white" fill-opacity="0.2"/>
<path d="M224.404 108.278C224.404 103.018 220.141 98.7549 214.881 98.7549H209.344C209.344 104.014 213.607 108.278 218.866 108.278H224.404Z" fill="white" fill-opacity="0.2"/>
<path d="M224.404 61.7223C224.404 66.9816 220.141 71.2451 214.881 71.2451H209.344C209.344 65.9858 213.607 61.7223 218.866 61.7223H224.404Z" fill="white" fill-opacity="0.2"/>
<path d="M224.404 132.967C224.404 127.708 220.141 123.444 214.881 123.444H209.344C209.344 128.704 213.607 132.967 218.866 132.967H224.404Z" fill="white" fill-opacity="0.2"/>
<path d="M224.404 37.0328C224.404 42.2922 220.141 46.5557 214.881 46.5557H209.344C209.344 41.2964 213.607 37.0328 218.866 37.0328H224.404Z" fill="white" fill-opacity="0.2"/>
<path d="M224.404 157.656C224.404 152.396 220.141 148.133 214.881 148.133H209.344C209.344 153.392 213.607 157.656 218.866 157.656H224.404Z" fill="white" fill-opacity="0.2"/>
<path d="M224.404 12.3444C224.404 17.6037 220.141 21.8672 214.881 21.8672H209.344C209.344 16.6079 213.607 12.3444 218.866 12.3444H224.404Z" fill="white" fill-opacity="0.2"/>
<path d="M182.234 160.477C182.234 165.736 177.971 170 172.712 170H167.174C167.174 164.741 171.437 160.477 176.696 160.477H182.234Z" fill="white" fill-opacity="0.2"/>
<path d="M182.234 34.2118C182.234 28.9525 177.971 24.689 172.712 24.689H167.174C167.174 29.9483 171.437 34.2118 176.696 34.2118H182.234Z" fill="white" fill-opacity="0.2"/>
<path d="M182.234 9.52282C182.234 4.26351 177.971 0 172.712 0H167.174C167.174 5.25931 171.437 9.52282 176.696 9.52282H182.234Z" fill="white" fill-opacity="0.2"/>
<path d="M182.234 135.788C182.234 141.048 177.971 145.311 172.712 145.311H167.174C167.174 140.052 171.437 135.788 176.696 135.788H182.234Z" fill="white" fill-opacity="0.2"/>
<path d="M182.234 58.9003C182.234 53.641 177.971 49.3774 172.712 49.3774H167.174C167.174 54.6368 171.437 58.9003 176.696 58.9003H182.234Z" fill="white" fill-opacity="0.2"/>
<path d="M182.234 111.1C182.234 116.359 177.971 120.623 172.712 120.623H167.174C167.174 115.363 171.437 111.1 176.696 111.1H182.234Z" fill="white" fill-opacity="0.2"/>
<path d="M182.234 83.5892C182.234 78.3299 177.971 74.0664 172.712 74.0664H167.174C167.174 79.3257 171.437 83.5892 176.696 83.5892H182.234Z" fill="white" fill-opacity="0.2"/>
<path d="M182.234 86.4108C182.234 91.6701 177.971 95.9336 172.712 95.9336H167.174C167.174 90.6743 171.437 86.4108 176.696 86.4108H182.234Z" fill="white" fill-opacity="0.2"/>
<path d="M182.234 108.278C182.234 103.018 177.971 98.7549 172.712 98.7549H167.174C167.174 104.014 171.437 108.278 176.696 108.278H182.234Z" fill="white" fill-opacity="0.2"/>
<path d="M182.234 61.7223C182.234 66.9816 177.971 71.2451 172.712 71.2451H167.174C167.174 65.9858 171.437 61.7223 176.696 61.7223H182.234Z" fill="white" fill-opacity="0.2"/>
<path d="M182.234 132.967C182.234 127.708 177.971 123.444 172.712 123.444H167.174C167.174 128.704 171.437 132.967 176.696 132.967H182.234Z" fill="white" fill-opacity="0.2"/>
<path d="M182.234 37.0328C182.234 42.2922 177.971 46.5557 172.712 46.5557H167.174C167.174 41.2964 171.437 37.0328 176.696 37.0328H182.234Z" fill="white" fill-opacity="0.2"/>
<path d="M182.234 157.656C182.234 152.396 177.971 148.133 172.712 148.133H167.174C167.174 153.392 171.437 157.656 176.696 157.656H182.234Z" fill="white" fill-opacity="0.2"/>
<path d="M182.234 12.3444C182.234 17.6037 177.971 21.8672 172.712 21.8672H167.174C167.174 16.6079 171.437 12.3444 176.696 12.3444H182.234Z" fill="white" fill-opacity="0.2"/>
<path d="M140.066 160.477C140.066 165.736 135.803 170 130.544 170H125.006C125.006 164.741 129.269 160.477 134.529 160.477H140.066Z" fill="white" fill-opacity="0.2"/>
<path d="M140.066 34.2118C140.066 28.9525 135.803 24.689 130.544 24.689H125.006C125.006 29.9483 129.269 34.2118 134.529 34.2118H140.066Z" fill="white" fill-opacity="0.2"/>
<path d="M140.066 9.52282C140.066 4.26351 135.803 0 130.544 0H125.006C125.006 5.25931 129.269 9.52282 134.529 9.52282H140.066Z" fill="white" fill-opacity="0.2"/>
<path d="M140.066 135.788C140.066 141.048 135.803 145.311 130.544 145.311H125.006C125.006 140.052 129.269 135.788 134.529 135.788H140.066Z" fill="white" fill-opacity="0.2"/>
<path d="M140.066 58.9003C140.066 53.641 135.803 49.3774 130.544 49.3774H125.006C125.006 54.6368 129.269 58.9003 134.529 58.9003H140.066Z" fill="white" fill-opacity="0.2"/>
<path d="M140.066 111.1C140.066 116.359 135.803 120.623 130.544 120.623H125.006C125.006 115.363 129.269 111.1 134.529 111.1H140.066Z" fill="white" fill-opacity="0.2"/>
<path d="M140.066 83.5892C140.066 78.3299 135.803 74.0664 130.544 74.0664H125.006C125.006 79.3257 129.269 83.5892 134.529 83.5892H140.066Z" fill="white" fill-opacity="0.2"/>
<path d="M140.066 86.4108C140.066 91.6701 135.803 95.9336 130.544 95.9336H125.006C125.006 90.6743 129.269 86.4108 134.529 86.4108H140.066Z" fill="white" fill-opacity="0.2"/>
<path d="M140.066 108.278C140.066 103.018 135.803 98.7549 130.544 98.7549H125.006C125.006 104.014 129.269 108.278 134.529 108.278H140.066Z" fill="white" fill-opacity="0.2"/>
<path d="M140.066 61.7223C140.066 66.9816 135.803 71.2451 130.544 71.2451H125.006C125.006 65.9858 129.269 61.7223 134.529 61.7223H140.066Z" fill="white" fill-opacity="0.2"/>
<path d="M140.066 132.967C140.066 127.708 135.803 123.444 130.544 123.444H125.006C125.006 128.704 129.269 132.967 134.529 132.967H140.066Z" fill="white" fill-opacity="0.2"/>
<path d="M140.066 37.0328C140.066 42.2922 135.803 46.5557 130.544 46.5557H125.006C125.006 41.2964 129.269 37.0328 134.529 37.0328H140.066Z" fill="white" fill-opacity="0.2"/>
<path d="M140.066 157.656C140.066 152.396 135.803 148.133 130.544 148.133H125.006C125.006 153.392 129.269 157.656 134.529 157.656H140.066Z" fill="white" fill-opacity="0.2"/>
<path d="M140.066 12.3444C140.066 17.6037 135.803 21.8672 130.544 21.8672H125.006C125.006 16.6079 129.269 12.3444 134.529 12.3444H140.066Z" fill="white" fill-opacity="0.2"/>
<path d="M97.8965 160.477C97.8965 165.736 93.633 170 88.3737 170H82.8358C82.8358 164.741 87.0993 160.477 92.3586 160.477H97.8965Z" fill="white" fill-opacity="0.2"/>
<path d="M97.8965 34.2118C97.8965 28.9525 93.633 24.689 88.3737 24.689H82.8358C82.8358 29.9483 87.0993 34.2118 92.3586 34.2118H97.8965Z" fill="white" fill-opacity="0.2"/>
<path d="M97.8965 9.52282C97.8965 4.26351 93.633 0 88.3737 0H82.8358C82.8358 5.25931 87.0993 9.52282 92.3586 9.52282H97.8965Z" fill="white" fill-opacity="0.2"/>
<path d="M97.8965 135.788C97.8965 141.048 93.633 145.311 88.3737 145.311H82.8358C82.8358 140.052 87.0993 135.788 92.3586 135.788H97.8965Z" fill="white" fill-opacity="0.2"/>
<path d="M97.8965 58.9003C97.8965 53.641 93.633 49.3774 88.3737 49.3774H82.8358C82.8358 54.6368 87.0993 58.9003 92.3586 58.9003H97.8965Z" fill="white" fill-opacity="0.2"/>
<path d="M97.8965 111.1C97.8965 116.359 93.633 120.623 88.3737 120.623H82.8358C82.8358 115.363 87.0993 111.1 92.3586 111.1H97.8965Z" fill="white" fill-opacity="0.2"/>
<path d="M97.8965 83.5892C97.8965 78.3299 93.633 74.0664 88.3737 74.0664H82.8358C82.8358 79.3257 87.0993 83.5892 92.3586 83.5892H97.8965Z" fill="white" fill-opacity="0.2"/>
<path d="M97.8965 86.4108C97.8965 91.6701 93.633 95.9336 88.3737 95.9336H82.8358C82.8358 90.6743 87.0993 86.4108 92.3586 86.4108H97.8965Z" fill="white" fill-opacity="0.2"/>
<path d="M97.8965 108.278C97.8965 103.018 93.633 98.7549 88.3737 98.7549H82.8358C82.8358 104.014 87.0993 108.278 92.3586 108.278H97.8965Z" fill="white" fill-opacity="0.2"/>
<path d="M97.8965 61.7223C97.8965 66.9816 93.633 71.2451 88.3737 71.2451H82.8358C82.8358 65.9858 87.0993 61.7223 92.3586 61.7223H97.8965Z" fill="white" fill-opacity="0.2"/>
<path d="M97.8965 132.967C97.8965 127.708 93.633 123.444 88.3737 123.444H82.8358C82.8358 128.704 87.0993 132.967 92.3586 132.967H97.8965Z" fill="white" fill-opacity="0.2"/>
<path d="M97.8965 37.0328C97.8965 42.2922 93.633 46.5557 88.3737 46.5557H82.8358C82.8358 41.2964 87.0993 37.0328 92.3586 37.0328H97.8965Z" fill="white" fill-opacity="0.2"/>
<path d="M97.8965 157.656C97.8965 152.396 93.633 148.133 88.3737 148.133H82.8358C82.8358 153.392 87.0993 157.656 92.3586 157.656H97.8965Z" fill="white" fill-opacity="0.2"/>
<path d="M97.8965 12.3444C97.8965 17.6037 93.633 21.8672 88.3737 21.8672H82.8358C82.8358 16.6079 87.0993 12.3444 92.3586 12.3444H97.8965Z" fill="white" fill-opacity="0.2"/>
<path d="M55.7246 160.477C55.7246 165.736 51.4611 170 46.2018 170H40.6639C40.6639 164.741 44.9274 160.477 50.1867 160.477H55.7246Z" fill="white" fill-opacity="0.2"/>
<path d="M55.7246 34.2118C55.7246 28.9525 51.4611 24.689 46.2018 24.689H40.6639C40.6639 29.9483 44.9274 34.2118 50.1867 34.2118H55.7246Z" fill="white" fill-opacity="0.2"/>
<path d="M55.7246 9.52282C55.7246 4.26351 51.4611 0 46.2018 0H40.6639C40.6639 5.25931 44.9274 9.52282 50.1867 9.52282H55.7246Z" fill="white" fill-opacity="0.2"/>
<path d="M55.7246 135.788C55.7246 141.048 51.4611 145.311 46.2018 145.311H40.6639C40.6639 140.052 44.9274 135.788 50.1867 135.788H55.7246Z" fill="white" fill-opacity="0.2"/>
<path d="M55.7246 58.9003C55.7246 53.641 51.4611 49.3774 46.2018 49.3774H40.6639C40.6639 54.6368 44.9274 58.9003 50.1867 58.9003H55.7246Z" fill="white" fill-opacity="0.2"/>
<path d="M55.7246 111.1C55.7246 116.359 51.4611 120.623 46.2018 120.623H40.6639C40.6639 115.363 44.9274 111.1 50.1867 111.1H55.7246Z" fill="white" fill-opacity="0.2"/>
<path d="M55.7246 83.5892C55.7246 78.3299 51.4611 74.0664 46.2018 74.0664H40.6639C40.6639 79.3257 44.9274 83.5892 50.1867 83.5892H55.7246Z" fill="white" fill-opacity="0.2"/>
<path d="M55.7246 86.4108C55.7246 91.6701 51.4611 95.9336 46.2018 95.9336H40.6639C40.6639 90.6743 44.9274 86.4108 50.1867 86.4108H55.7246Z" fill="white" fill-opacity="0.2"/>
<path d="M55.7246 108.278C55.7246 103.018 51.4611 98.7549 46.2018 98.7549H40.6639C40.6639 104.014 44.9274 108.278 50.1867 108.278H55.7246Z" fill="white" fill-opacity="0.2"/>
<path d="M55.7246 61.7223C55.7246 66.9816 51.4611 71.2451 46.2018 71.2451H40.6639C40.6639 65.9858 44.9274 61.7223 50.1867 61.7223H55.7246Z" fill="white" fill-opacity="0.2"/>
<path d="M55.7246 132.967C55.7246 127.708 51.4611 123.444 46.2018 123.444H40.6639C40.6639 128.704 44.9274 132.967 50.1867 132.967H55.7246Z" fill="white" fill-opacity="0.2"/>
<path d="M55.7246 37.0328C55.7246 42.2922 51.4611 46.5557 46.2018 46.5557H40.6639C40.6639 41.2964 44.9274 37.0328 50.1867 37.0328H55.7246Z" fill="white" fill-opacity="0.2"/>
<path d="M55.7246 157.656C55.7246 152.396 51.4611 148.133 46.2018 148.133H40.6639C40.6639 153.392 44.9274 157.656 50.1867 157.656H55.7246Z" fill="white" fill-opacity="0.2"/>
<path d="M55.7246 12.3444C55.7246 17.6037 51.4611 21.8672 46.2018 21.8672H40.6639C40.6639 16.6079 44.9274 12.3444 50.1867 12.3444H55.7246Z" fill="white" fill-opacity="0.2"/>
<path d="M15.0605 160.477C15.0605 165.736 10.797 170 5.53772 170H-0.0001688C-0.0001688 164.741 4.26334 160.477 9.52265 160.477H15.0605Z" fill="white" fill-opacity="0.2"/>
<path d="M15.0605 34.2118C15.0605 28.9525 10.797 24.689 5.53772 24.689H-0.0001688C-0.0001688 29.9483 4.26334 34.2118 9.52265 34.2118H15.0605Z" fill="white" fill-opacity="0.2"/>
<path d="M15.0605 9.52282C15.0605 4.26351 10.797 0 5.53772 0H-0.0001688C-0.0001688 5.25931 4.26334 9.52282 9.52265 9.52282H15.0605Z" fill="white" fill-opacity="0.2"/>
<path d="M15.0605 135.788C15.0605 141.048 10.797 145.311 5.53772 145.311H-0.0001688C-0.0001688 140.052 4.26334 135.788 9.52265 135.788H15.0605Z" fill="white" fill-opacity="0.2"/>
<path d="M15.0605 58.9003C15.0605 53.641 10.797 49.3774 5.53772 49.3774H-0.0001688C-0.0001688 54.6368 4.26334 58.9003 9.52265 58.9003H15.0605Z" fill="white" fill-opacity="0.2"/>
<path d="M15.0605 111.1C15.0605 116.359 10.797 120.623 5.53772 120.623H-0.0001688C-0.0001688 115.363 4.26334 111.1 9.52265 111.1H15.0605Z" fill="white" fill-opacity="0.2"/>
<path d="M15.0605 83.5892C15.0605 78.3299 10.797 74.0664 5.53772 74.0664H-0.0001688C-0.0001688 79.3257 4.26334 83.5892 9.52265 83.5892H15.0605Z" fill="white" fill-opacity="0.2"/>
<path d="M15.0605 86.4108C15.0605 91.6701 10.797 95.9336 5.53772 95.9336H-0.0001688C-0.0001688 90.6743 4.26334 86.4108 9.52265 86.4108H15.0605Z" fill="white" fill-opacity="0.2"/>
<path d="M15.0605 108.278C15.0605 103.018 10.797 98.7549 5.53772 98.7549H-0.0001688C-0.0001688 104.014 4.26334 108.278 9.52265 108.278H15.0605Z" fill="white" fill-opacity="0.2"/>
<path d="M15.0605 61.7223C15.0605 66.9816 10.797 71.2451 5.53772 71.2451H-0.0001688C-0.0001688 65.9858 4.26334 61.7223 9.52265 61.7223H15.0605Z" fill="white" fill-opacity="0.2"/>
<path d="M15.0605 132.967C15.0605 127.708 10.797 123.444 5.53772 123.444H-0.0001688C-0.0001688 128.704 4.26334 132.967 9.52265 132.967H15.0605Z" fill="white" fill-opacity="0.2"/>
<path d="M15.0605 37.0328C15.0605 42.2922 10.797 46.5557 5.53772 46.5557H-0.0001688C-0.0001688 41.2964 4.26334 37.0328 9.52265 37.0328H15.0605Z" fill="white" fill-opacity="0.2"/>
<path d="M15.0605 157.656C15.0605 152.396 10.797 148.133 5.53772 148.133H-0.0001688C-0.0001688 153.392 4.26334 157.656 9.52265 157.656H15.0605Z" fill="white" fill-opacity="0.2"/>
<path d="M15.0605 12.3444C15.0605 17.6037 10.797 21.8672 5.53772 21.8672H-0.0001688C-0.0001688 16.6079 4.26334 12.3444 9.52265 12.3444H15.0605Z" fill="white" fill-opacity="0.2"/>
</svg>
