<?xml version="1.0" encoding="UTF-8"?>
<svg version="1.1" xmlns="http://www.w3.org/2000/svg" width="32" height="32">
    <path d="M0 0 C5.94 0 11.88 0 18 0 C18 8.25 18 16.5 18 25 C16.68 25 15.36 25 14 25 C14 18.07 14 11.14 14 4 C10.7 4 7.4 4 4 4 C4 10.93 4 17.86 4 25 C2.68 25 1.36 25 0 25 C0 16.75 0 8.5 0 0 Z " fill="#4A8C55" transform="translate(1,4)"/>
    <path d="M0 0 C3.63 0 7.26 0 11 0 C11 5.94 11 11.88 11 18 C9.68 18 8.36 18 7 18 C7 13.38 7 8.76 7 4 C4.69 4 2.38 4 0 4 C0 2.68 0 1.36 0 0 Z " fill="#506A8A" transform="translate(21,11)"/>
    <path d="M0 0 C1.32 0 2.64 0 4 0 C4 1.32 4 2.64 4 4 C2.68 4 1.36 4 0 4 C0 2.68 0 1.36 0 0 Z " fill="#506A8A" transform="translate(21,25)"/>
    <path d="M0 0 C1.32 0 2.64 0 4 0 C4 1.32 4 2.64 4 4 C2.68 4 1.36 4 0 4 C0 2.68 0 1.36 0 0 Z " fill="#4A8C55" transform="translate(8,25)"/>
    <path d="M0 0 C1.32 0 2.64 0 4 0 C4 1.32 4 2.64 4 4 C2.68 4 1.36 4 0 4 C0 2.68 0 1.36 0 0 Z " fill="#506A8A" transform="translate(21,18)"/>
    <path d="M0 0 C1.32 0 2.64 0 4 0 C4 1.32 4 2.64 4 4 C2.68 4 1.36 4 0 4 C0 2.68 0 1.36 0 0 Z " fill="#4A8C55" transform="translate(8,18)"/>
    <path d="M0 0 C1.32 0 2.64 0 4 0 C4 1.32 4 2.64 4 4 C2.68 4 1.36 4 0 4 C0 2.68 0 1.36 0 0 Z " fill="#4A8C55" transform="translate(8,11)"/>
</svg>
