<svg width="1024" height="1024" viewBox="0 0 1024 1024" fill="none" xmlns="http://www.w3.org/2000/svg">
<path d="M557.12 843.68H235.04V354.88C235.061 352.029 235.843 349.235 237.306 346.788C238.769 344.341 240.859 342.329 243.36 340.96L533.44 182.4C535.88 181.065 538.626 180.389 541.406 180.439C544.187 180.489 546.907 181.263 549.297 182.684C551.688 184.105 553.667 186.125 555.038 188.545C556.41 190.964 557.128 193.699 557.12 196.48V843.68Z" stroke="#5C779E" stroke-width="48" stroke-linecap="round"/>
<path d="M781.92 843.68H558.72V345.44L774.4 468.8C776.706 470.242 778.606 472.247 779.922 474.626C781.238 477.006 781.925 479.681 781.92 482.4V843.68Z" stroke="#3F527B" stroke-width="48" stroke-linecap="round"/>
<path d="M449.6 397.76H336.96" stroke="#3F527B" stroke-width="48" stroke-linecap="round"/>
<path d="M698.56 518.56H642.24" stroke="#5C779E" stroke-width="48" stroke-linecap="round"/>
<path d="M698.56 590.4H642.24" stroke="#5C779E" stroke-width="48" stroke-linecap="round"/>
<path d="M698.56 667.36H642.24" stroke="#5C779E" stroke-width="48" stroke-linecap="round"/>
<path d="M698.56 739.04H642.24" stroke="#5C779E" stroke-width="48" stroke-linecap="round"/>
<path d="M449.6 487.04H336.96" stroke="#3F527B" stroke-width="48" stroke-linecap="round"/>
<path d="M449.6 575.04H336.96" stroke="#3F527B" stroke-width="48" stroke-linecap="round"/>
<path d="M449.6 663.04H336.96" stroke="#3F527B" stroke-width="48" stroke-linecap="round"/>
<path d="M449.6 751.04H336.96" stroke="#3F527B" stroke-width="48" stroke-linecap="round"/>
<path d="M151.36 843.68H872.64" stroke="#3F527B" stroke-width="48" stroke-linecap="round"/>
</svg>
