<svg width="48" height="48" viewBox="0 0 48 48" fill="none" xmlns="http://www.w3.org/2000/svg">
<rect x="0.5" width="46.8" height="48" rx="10" fill="#E9EBF1"/>
<mask id="mask0_1343_11402" style="mask-type:luminance" maskUnits="userSpaceOnUse" x="0" y="0" width="48" height="48">
<rect x="0.5" width="46.8" height="48" rx="10" fill="white"/>
</mask>
<g mask="url(#mask0_1343_11402)">
<mask id="mask1_1343_11402" style="mask-type:luminance" maskUnits="userSpaceOnUse" x="-110" y="-144" width="343" height="199">
<path fill-rule="evenodd" clip-rule="evenodd" d="M-109.675 -144H232.55V55H-109.675V-144Z" fill="white"/>
</mask>
<g mask="url(#mask1_1343_11402)">
<path fill-rule="evenodd" clip-rule="evenodd" d="M234.5 59.0612V74H-108.7V-162H-75.1213C-71.886 -160.749 -68.7286 -159.277 -65.681 -157.601C-45.5786 -146.547 -30.3177 -126.68 -23.9982 -104.104C-18.4887 -84.4221 -19.5778 -63.5172 -17.633 -43.1268C-15.6882 -22.7411 -9.75311 -1.17543 5.82359 11.5308C18.3893 21.7779 35.293 24.5627 51.3045 23.968C67.3113 23.3686 83.0848 19.7672 99.0733 18.7807C123.756 17.2514 148.782 22.0753 171.26 32.6953C189.742 41.4273 206.87 54.1194 226.844 58.0228C229.379 58.5184 231.937 58.863 234.5 59.0612Z" fill="#FFFFFE"/>
<path fill-rule="evenodd" clip-rule="evenodd" d="M234.5 -162V10C234.088 9.87767 233.681 9.74593 233.278 9.60477C222.226 5.79362 212.953 -3.21666 208.744 -14.396C203.611 -28.022 205.839 -43.9159 199.54 -57.0149C192.92 -70.7914 178.134 -78.5313 163.513 -81.7261C148.897 -84.9209 133.75 -84.5115 119.006 -86.9958C93.8765 -91.2257 70.193 -104.104 52.6489 -123.084C44.547 -131.845 37.6071 -142.144 34.8119 -153.888C34.1806 -156.533 33.7917 -159.262 33.6499 -162H234.5Z" fill="#FFFFFE"/>
</g>
<mask id="mask2_1343_11402" style="mask-type:luminance" maskUnits="userSpaceOnUse" x="-98" y="-144" width="264" height="147">
<path fill-rule="evenodd" clip-rule="evenodd" d="M-97.9751 -144H165.275V3H-97.9751V-144Z" fill="white"/>
</mask>
<g mask="url(#mask2_1343_11402)">
</g>
<mask id="mask3_1343_11402" style="mask-type:luminance" maskUnits="userSpaceOnUse" x="-29" y="-118" width="148" height="173">
<path fill-rule="evenodd" clip-rule="evenodd" d="M-28.75 -118H118.475V55H-28.75V-118Z" fill="white"/>
</mask>
<g mask="url(#mask3_1343_11402)">
<path fill-rule="evenodd" clip-rule="evenodd" d="M38.5321 41.3892C31.1661 28.7322 18.076 22.7122 6.84199 22.0403C-6.15155 21.2643 -15.6096 31.8253 -22.1185 43.0124C-25.767 49.2854 -28.7326 56.7322 -28.75 65.1311C-28.7568 68.6905 -27.9843 72.6398 -26.2564 75.9588C-24.4346 79.4577 -21.6135 82.0945 -18.738 84.1952C-11.7686 89.2859 -3.54635 91.5112 3.94178 92.5838C11.6408 93.6859 18.9309 92.6438 25.383 88.9218C32.3022 84.9285 37.3617 77.9634 40.1928 69.3442C42.9993 60.8019 43.8733 50.5679 38.5321 41.3892Z" fill="#FDC748"/>
</g>
<path fill-rule="evenodd" clip-rule="evenodd" d="M7.2892 29.4499C7.28754 29.4432 7.28589 29.4354 7.2834 29.4257C7.26683 29.3666 7.24943 29.3085 7.22375 29.2581C7.21132 29.2319 7.19061 29.2135 7.17652 29.1922C7.15332 29.1621 7.13509 29.1302 7.10444 29.105C7.05638 29.0643 6.99507 29.0332 6.92382 29.0226C6.87577 29.0168 6.83103 29.009 6.78546 29.0022C6.53442 28.9635 6.39688 29.4373 6.377 29.7029C6.37037 29.8037 6.36126 29.9054 6.35463 30.0033C6.29912 30.7088 6.73823 31.3832 7.12018 30.7436C7.15166 30.6923 7.18149 30.6099 7.20966 30.5198C7.2138 30.5275 7.2138 30.5363 7.21546 30.543C7.24529 30.4442 7.27594 30.2998 7.29831 30.136C7.33311 29.9054 7.33725 29.6583 7.2892 29.4499Z" fill="#FFF9E0"/>
<path fill-rule="evenodd" clip-rule="evenodd" d="M7.94909 34.1099C7.65201 33.7145 7.38356 34.498 7.39788 34.6951C7.40862 34.8517 7.35421 34.9983 7.33345 35.1456C7.30911 35.3307 7.32916 35.6644 7.49881 35.8223C7.51814 35.8389 7.53962 35.8601 7.55966 35.8787C8.03857 36.3239 8.29342 35.4249 8.29986 35.0932C8.30415 34.7674 8.15955 34.3886 7.94909 34.1099Z" fill="#FFF9E0"/>
<path fill-rule="evenodd" clip-rule="evenodd" d="M4.16702 37.1923C3.74792 36.4969 3.40802 37.8829 3.42571 38.2591C3.43724 38.5542 3.5449 38.9921 3.79713 38.9999C3.94247 39.0047 4.04706 38.887 4.12857 38.7307C4.33774 38.6343 4.44693 38.2321 4.3808 37.8964C4.33466 37.6669 4.30467 37.4219 4.16702 37.1923Z" fill="#FFF9E0"/>
<path fill-rule="evenodd" clip-rule="evenodd" d="M5.623 41.2616C5.63348 41.244 5.64397 41.2272 5.65515 41.2123C5.37493 41.4792 5.25823 42.302 5.52587 42.7777C5.54054 42.8112 5.55941 42.8376 5.58457 42.8597C6.01503 43.331 6.30643 42.5046 6.34486 42.0095C6.40146 41.2942 5.97939 40.6105 5.623 41.2616Z" fill="#FFF9E0"/>
<path fill-rule="evenodd" clip-rule="evenodd" d="M19.9014 34.0406C18.8009 34.2982 18.5998 36.3094 20.0959 35.9592C21.1998 35.7039 21.4009 33.6915 19.9014 34.0406Z" fill="#FFF9E0"/>
<path fill-rule="evenodd" clip-rule="evenodd" d="M20.1553 39.0002C19.6009 38.9907 19.2222 39.3934 19.1041 39.7094C19.1 39.7164 19.097 39.7229 19.096 39.73C18.9698 40.0678 18.9112 40.9857 19.82 40.9998C20.6319 41.0134 21.0369 40.247 20.9672 39.7689C20.9642 39.7612 20.9632 39.753 20.9632 39.7477C20.9197 39.45 20.7137 39.009 20.1553 39.0002Z" fill="#FFF9E0"/>
<path fill-rule="evenodd" clip-rule="evenodd" d="M19.594 37.2685C19.0324 36.6414 18.3879 37.2618 18.1992 37.6203C18.1796 37.6541 18.1599 37.6893 18.1436 37.7251C17.9963 38.0032 17.9909 38.5146 18.3639 38.7852C18.7172 39.0375 18.9146 38.9956 19.3203 38.9996C19.9801 39.0037 20.1764 38.2575 19.8351 37.8659C19.7882 37.6616 19.7609 37.46 19.594 37.2685Z" fill="#FFF9E0"/>
<path fill-rule="evenodd" clip-rule="evenodd" d="M18.2666 31.0095C18.1332 31.0708 18.1081 31.5454 18.2913 31.4629C18.4229 31.4016 18.4494 30.9275 18.2666 31.0095Z" fill="#FFF9E0"/>
<path fill-rule="evenodd" clip-rule="evenodd" d="M13.4511 25.0734C13.1051 24.5339 13.0887 27.1556 13.3775 26.8165C13.3816 26.8295 13.3821 26.8331 13.3889 26.8544C13.5502 27.4082 13.6768 26.2272 13.6444 25.8963C13.6069 25.5122 13.5745 25.2643 13.4511 25.0734Z" fill="#FFF9E0"/>
<path fill-rule="evenodd" clip-rule="evenodd" d="M44.3732 31.5271C44.4515 35.3757 41.7692 39.4597 37.5402 41.932C32.9637 44.6069 27.8681 44.6919 23.91 42.1578C20.9234 40.2459 19.0983 37.0111 19.0271 33.5039C18.9706 30.7381 20.0164 28.1195 21.9719 26.1303C26.2641 21.7666 33.5651 20.7126 38.9552 23.6795C43.3501 26.0974 44.3274 29.2814 44.3732 31.5266V31.5271Z" fill="#C418E6"/>
<path fill-rule="evenodd" clip-rule="evenodd" d="M17.0776 33.8013C17.1655 38.0545 19.4071 41.973 23.0729 44.2832C27.8346 47.2831 33.925 47.2049 39.3645 44.0748C44.4135 41.1701 47.6138 36.2864 47.5177 31.6354C47.4707 29.3426 46.5422 25.037 40.8568 21.9579C34.4672 18.4965 25.8068 19.7298 20.7131 24.8272C18.2991 27.2447 17.008 30.4317 17.0776 33.8013ZM20.1502 33.7362C20.1012 31.3527 20.9749 28.9395 22.8745 27.0368C27.0609 22.8478 34.2463 21.903 39.4063 24.6975C42.9221 26.6016 44.3919 29.1255 44.4452 31.6995C44.5984 39.0954 33.0551 46.9101 24.6987 41.6456C21.8039 39.8216 20.2136 36.8027 20.1502 33.7362Z" fill="#FFFFFE"/>
<path fill-rule="evenodd" clip-rule="evenodd" d="M26.0235 35.6816C26.3981 36.1458 26.9939 36.0533 27.3891 35.718C27.7017 35.4507 27.9991 34.7807 27.6259 34.3189C27.2513 33.8548 26.6566 33.946 26.261 34.2813C25.9481 34.5486 25.6507 35.2186 26.0235 35.6816Z" fill="#FFF9E0"/>
<path fill-rule="evenodd" clip-rule="evenodd" d="M26.023 30.6814C26.3973 31.1447 26.9936 31.0548 27.3882 30.7173C27.7013 30.4518 27.9995 29.7825 27.6258 29.3183C27.2515 28.8542 26.6552 28.9465 26.2611 29.2824C25.9485 29.5496 25.6508 30.2189 26.023 30.6814Z" fill="#FFF9E0"/>
<path fill-rule="evenodd" clip-rule="evenodd" d="M25.8709 29.9925C25.8924 30.0808 25.9133 30.1699 25.9327 30.26C26.1482 31.1883 26.9682 31.1175 27.4255 30.7294C28.0101 30.2381 27.8683 29.3928 27.2885 29.1358C27.2052 29.0982 27.1219 29.0615 27.0386 29.0256C26.7742 28.9085 25.686 29.1865 25.8709 29.9925Z" fill="#FFF9E0"/>
<path fill-rule="evenodd" clip-rule="evenodd" d="M28.8261 32.319C28.8145 32.3483 28.8038 32.3737 28.7922 32.4007C28.7349 32.5303 28.83 32.6213 28.9329 32.7062C28.9911 32.754 29.0484 32.7987 29.1046 32.845C29.6811 33.314 31.4134 32.6105 30.4274 32.1678C30.1537 32.0436 29.9354 31.995 29.618 32.0004C29.3356 32.0058 28.9368 32.0737 28.8261 32.319Z" fill="#FFF9E0"/>
<mask id="mask4_1343_11402" style="mask-type:luminance" maskUnits="userSpaceOnUse" x="35" y="29" width="56" height="26">
<path fill-rule="evenodd" clip-rule="evenodd" d="M35.5999 29H90.1999V55H35.5999V29Z" fill="white"/>
</mask>
<g mask="url(#mask4_1343_11402)">
<path fill-rule="evenodd" clip-rule="evenodd" d="M35.7737 29.8415C36.1479 30.0725 36.7442 30.0271 37.1381 29.8583C37.452 29.7257 37.7495 29.3906 37.3752 29.159C37.0014 28.9277 36.4055 28.973 36.0108 29.1405C35.6981 29.2745 35.4006 29.6092 35.7737 29.8415Z" fill="#FFF9E0"/>
</g>
</g>
</svg>
