<svg width="16" height="16" viewBox="0 0 16 16" fill="none" xmlns="http://www.w3.org/2000/svg">
<g clip-path="url(#clip0_4516_3936)">
<path d="M5.87478 3.67742L7.65941 6.76817C7.95076 6.69035 8.26024 6.71796 8.53322 6.84611L9.47141 5.22123L7.90328 2.50586L5.85641 3.68792L5.87478 3.67742ZM3.18453 7.67567H6.75453C6.78302 7.56709 6.82572 7.46276 6.88153 7.36536C6.97538 7.20298 7.10389 7.06331 7.25791 6.9563L6.31991 5.33192H3.18359V7.69586L3.18453 7.67567ZM9.10116 8.64692C9.00745 8.80899 8.87921 8.94844 8.72553 9.05536L9.66428 10.6811H12.7997V8.33767H9.22834C9.19944 8.44582 9.15669 8.54972 9.10116 8.64692ZM8.89622 7.10055C9.10999 7.31363 9.2415 7.59546 9.26747 7.89617H11.1432L12.7113 5.18067L10.6819 4.00867L8.89622 7.10055ZM5.30109 12.0048L7.08672 8.91161C6.87401 8.6984 6.74278 8.41738 6.71584 8.11742H4.83916L3.27103 10.8316L5.31741 12.0145L5.30109 12.0048ZM10.1087 12.3351L8.32441 9.24423C8.03299 9.32295 7.72308 9.2955 7.45003 9.1668L6.51159 10.7921L8.07878 13.5068L10.1258 12.3252L10.1087 12.3351Z" fill="#2F80ED"/>
<path d="M7.99306 0.0146484C3.58575 0.0146484 0 3.59946 0 8.00609C0 12.414 3.58575 16.0001 7.99306 16.0001C12.4 16.0001 15.9849 12.414 15.9849 8.00609C15.985 3.59946 12.3999 0.0146484 7.99306 0.0146484ZM7.99312 1.63277C11.5131 1.63277 14.3666 4.4859 14.3666 8.00609C14.3666 11.5272 11.5131 14.3818 7.99312 14.3818C4.47263 14.3818 1.61863 11.5272 1.61863 8.00609C1.61863 4.4859 4.47263 1.63277 7.99312 1.63277Z" fill="black" fill-opacity="0.8"/>
</g>
<defs>
<clipPath id="clip0_4516_3936">
<rect width="16" height="16" fill="white"/>
</clipPath>
</defs>
</svg>
