<svg width="41" height="37" viewBox="0 0 41 37" fill="none" xmlns="http://www.w3.org/2000/svg">
<g clip-path="url(#clip0_577_18078)">
<path d="M32.3494 2.74927H13.9995V9.78811H36.2685V6.37299C36.2685 4.37468 34.5104 2.74927 32.3494 2.74927Z" fill="#CED9F9"/>
<path d="M21.9621 10.8712H0.5V4.33989C0.5 1.94666 2.60541 0 5.1936 0H12.0558C12.7379 0 13.3949 0.132957 13.9918 0.382782C14.8256 0.730278 15.5418 1.30304 16.0441 2.05138L21.9621 10.8712Z" fill="#0584BD"/>
<path d="M40.5 12.3334V33.3718C40.5 35.3726 38.7391 37 36.5751 37H4.42487C2.26086 37 0.5 35.3726 0.5 33.3718V8.70435H36.5751C38.7391 8.70435 40.5 10.3323 40.5 12.3334Z" fill="#0298DB"/>
<path d="M40.5 12.3334V33.3718C40.5 35.3726 38.7391 37 36.5751 37H20.5V8.70435H36.5751C38.7391 8.70435 40.5 10.3323 40.5 12.3334Z" fill="#0298DB"/>
<path d="M31.0217 22.8519C31.0217 28.219 26.3016 32.5854 20.4999 32.5854C14.6982 32.5854 9.97803 28.219 9.97803 22.8519C9.97803 17.4856 14.6982 13.1191 20.4999 13.1191C26.3016 13.1191 31.0217 17.4856 31.0217 22.8519Z" fill="#E7ECFC"/>
<path d="M31.0219 22.8519C31.0219 28.219 26.3017 32.5854 20.5 32.5854V13.1191C26.3017 13.1191 31.0219 17.4856 31.0219 22.8519Z" fill="#E7ECFC"/>
<path d="M23.8912 22.9711C23.6718 23.143 23.4029 23.2269 23.1365 23.2269C22.8029 23.2269 22.4715 23.0962 22.2396 22.8416L21.6716 22.2188V26.2959C21.6716 26.8944 21.1467 27.3799 20.4998 27.3799C19.8528 27.3799 19.3279 26.8944 19.3279 26.2959V22.2188L18.76 22.8416C18.3419 23.2991 17.603 23.3576 17.1084 22.9711C16.614 22.5852 16.5505 21.9015 16.9677 21.4439L19.2873 18.9003C19.5897 18.5694 20.031 18.3792 20.4998 18.3792C20.9685 18.3792 21.4098 18.5694 21.7122 18.9003L24.0319 21.4439C24.449 21.9015 24.3856 22.5852 23.8912 22.9711Z" fill="#0298DB"/>
<path d="M23.8914 22.9711C23.672 23.143 23.4031 23.2269 23.1367 23.2269C22.8032 23.2269 22.4717 23.0962 22.2398 22.8416L21.6719 22.2188V26.2959C21.6719 26.8944 21.147 27.3799 20.5 27.3799V18.3792C20.9688 18.3792 21.41 18.5694 21.7125 18.9003L24.0321 21.4439C24.4493 21.9015 24.3858 22.5852 23.8914 22.9711Z" fill="#0298DB"/>
</g>
<defs>
<clipPath id="clip0_577_18078">
<rect width="40" height="37" fill="white" transform="translate(0.5)"/>
</clipPath>
</defs>
</svg>
